<svg width="301" height="279" viewBox="0 0 301 279" fill="none" xmlns="http://www.w3.org/2000/svg">
<path d="M29.7618 127.502L22.6595 81.8449C9.82204 109.117 5.63996 124.647 4.73483 152.867C6.74975 177.192 10.0026 190.812 18.6011 215.097L13.5281 226.934L0 236.742L7.77865 270.9L29.7618 243.506L23.6742 229.301C56.8749 144.261 109.239 107.887 156.926 72.3753C68.6551 141.369 66.4606 157.31 34.8348 218.817C96.1638 215.189 126.139 199.368 174.512 155.235H136.634C190.649 137.034 215.634 118.384 256.019 78.4629L227.948 72.3753C270.146 53.4973 283.397 35.767 301 0C277.813 3.983 271.305 4.86517 247.05 5.04062C228.231 5.17674 211.375 3.63379 196.495 3.72022C174.512 5.71702 156.926 6.73163 135.957 28.0708L143.398 7.77865C54.8052 32.43 42.4717 64.9162 29.7618 127.502Z" fill="#A4634D"/>
<path d="M7.77869 270.9L26.3798 247.564L59.5237 252.604L84.2124 256.662L94.3584 258.353C98.9281 258.603 101.17 258.397 104.843 257.677L95.2906 250.431C95.1206 250.302 94.9648 250.155 94.8259 249.993L90.1956 244.591C89.39 243.651 88.9472 242.454 88.9472 241.216C88.9472 238.994 89.8973 236.878 91.5579 235.402L91.7508 235.231C93.861 233.355 96.6049 232.351 99.4274 232.421L190.07 234.679C190.07 234.679 171.13 222.842 174.174 218.784C177.218 214.725 300.199 224.708 265.827 222.504C231.455 220.3 180.6 219.46 179.924 220.813C179.287 222.085 200.059 230.555 202.938 240.549C203.284 241.748 202.694 242.886 201.466 243.109C187.53 245.637 101.046 239.523 104.843 241.105C108.901 242.796 133.796 257.25 136.634 272.22C139.472 287.19 7.77869 270.9 7.77869 270.9Z" fill="#E0E0E0"/>
</svg>
