<svg width="359" height="362" viewBox="0 0 359 362" fill="none" xmlns="http://www.w3.org/2000/svg">
<path d="M104.006 257.184L68.7458 236.579C80.2783 260.595 88.5905 272.127 107.43 288.492C125.228 300.682 136.38 306.051 157.823 313.706L163.107 323.788L162.283 338.533L190.038 352.259L183.524 321.905L170.391 318.153C130.621 247.949 134.902 191.759 137.165 139.258C135.21 238.26 144.914 248.658 169.431 304.653C201.161 260.589 207.04 231.215 203.776 173.433L182.643 199.398C200.303 152.216 201.458 124.685 196.625 74.728L176.79 90.5737C187.393 51.1155 182.632 32.1396 167.936 0.117846C157.729 18.2342 154.703 23.1877 141.291 39.9122C130.885 52.8879 120.423 63.5816 112.18 73.8297C101.284 90.0129 92.1673 102.634 95.0961 128.913L85.3374 112.492C52.8075 186.974 68.1951 213.553 104.006 257.184Z" fill="#A4634D"/>
<path d="M190.038 352.259L184.419 326.488L206.366 306.58L222.922 291.921L229.742 285.909C232.463 282.916 233.572 281.264 235.128 278.345L224.868 280.841C224.66 280.892 224.448 280.92 224.235 280.925L217.986 281.084C216.892 281.112 215.824 280.748 214.976 280.057C213.453 278.818 212.533 276.986 212.447 275.024L212.437 274.796C212.329 272.303 213.171 269.862 214.794 267.966L266.914 207.092C266.914 207.092 248.233 213.471 247.149 209.12C246.065 204.769 321.522 126.037 300.835 148.369C280.147 170.701 251.198 205.093 251.748 206.311C252.261 207.448 269.378 198.098 277.909 201.461C279.07 201.918 279.57 203.077 278.951 204.16C272.458 215.533 220.582 270.81 223.768 269.099C227.192 267.261 250.989 258.26 262.834 264.667C274.679 271.073 190.038 352.259 190.038 352.259Z" fill="#E0E0E0"/>
</svg>
