<svg width="209" height="177" viewBox="0 0 209 177" fill="none" xmlns="http://www.w3.org/2000/svg">
<g clip-path="url(#clip0_137_275)">
<path d="M170.214 85.107C170.214 87.5849 170.11 90.0376 169.902 92.4652C169.738 94.3602 169.514 96.2381 169.23 98.0991C168.929 100.069 168.559 102.016 168.122 103.939V103.941C167.836 105.207 167.522 106.462 167.18 107.707C166.187 111.326 164.953 114.874 163.485 118.328C163.166 119.079 162.837 119.825 162.497 120.566C161.211 123.372 159.771 126.106 158.184 128.753C153.733 136.188 148.176 142.903 141.705 148.667C141.005 149.29 140.295 149.902 139.576 150.504C124.297 163.267 105.014 170.245 85.107 170.214C38.1031 170.214 0 132.111 0 85.107C0 38.1031 38.1031 1.38586e-05 85.107 1.38586e-05C104.329 -0.0302947 122.99 6.4761 138.026 18.4509C138.731 19.0094 139.427 19.5805 140.114 20.1642C143.467 23.0077 146.596 26.1049 149.474 29.4284H149.476C162.879 44.8785 170.244 64.6535 170.214 85.107Z" fill="#F2F2F2"/>
<path d="M25.1234 99.8082C17.016 94.9828 10.8968 85.9649 11.6913 76.5637C19.1034 83.6579 28.786 87.9016 39.0259 88.544C42.9759 88.7775 47.3935 88.6258 50.3012 91.3096C52.1104 92.9795 52.9526 95.4936 53.0907 97.9517C53.2288 100.41 52.7364 102.855 52.2465 105.268L52.4151 105.859C42.9804 105.894 33.2309 104.634 25.1234 99.8082Z" fill="#E6E6E6"/>
<path d="M11.889 76.5537C15.1374 83.6553 20.5409 89.5528 27.332 93.4085C28.7919 94.2257 30.344 94.9276 31.9934 95.2532C33.6035 95.5582 35.266 95.4265 36.808 94.8717C38.2562 94.3834 39.6809 93.7161 41.2226 93.5882C42.8476 93.4535 44.352 94.0804 45.534 95.1785C46.9802 96.522 47.8574 98.3051 48.6546 100.079C49.5398 102.048 50.428 104.107 52.1251 105.523C52.3307 105.695 52.0525 106.004 51.8471 105.832C48.8945 103.369 48.4125 99.2427 46.0523 96.3411C44.951 94.9872 43.4349 93.957 41.634 93.9842C40.0591 94.0079 38.5892 94.6947 37.1272 95.2019C35.592 95.7345 34.0542 95.9846 32.4334 95.7503C30.7755 95.5106 29.1927 94.8679 27.7183 94.0917C24.388 92.3064 21.3591 90.0086 18.7426 87.2825C15.7392 84.1877 13.2872 80.602 11.4929 76.6804C11.3819 76.4377 11.7788 76.3125 11.889 76.5537Z" fill="white"/>
<path d="M25.0722 92.2957C24.2706 93.3473 23.1213 94.0797 21.8296 94.3621C20.5379 94.6445 19.1878 94.4586 18.0205 93.8375C17.7847 93.711 17.9702 93.3387 18.2063 93.4653C19.2922 94.0457 20.5498 94.2188 21.7521 93.9533C22.9544 93.6879 24.0223 93.0014 24.7629 92.0178C24.9241 91.8042 25.2325 92.0834 25.0722 92.2957Z" fill="white"/>
<path d="M36.1063 95.2161C35.769 92.5343 34.4332 90.0782 32.3654 88.3375C32.1604 88.1652 32.4385 87.8561 32.6433 88.0282C34.7917 89.8436 36.1766 92.4024 36.5216 95.1939C36.5542 95.46 36.1388 95.4807 36.1063 95.2161Z" fill="white"/>
<path d="M16.2548 83.9925C16.6497 83.6503 16.9535 83.2153 17.1388 82.7267C17.324 82.238 17.3851 81.711 17.3163 81.193C17.2803 80.9274 17.6957 80.907 17.7316 81.1708C17.8048 81.7435 17.7367 82.3255 17.5332 82.8658C17.3297 83.4061 16.997 83.8884 16.5641 84.2705C16.5263 84.3099 16.4749 84.3335 16.4204 84.3364C16.3659 84.3393 16.3123 84.3214 16.2705 84.2862C16.2297 84.2492 16.2052 84.1976 16.2023 84.1426C16.1993 84.0876 16.2182 84.0337 16.2548 83.9925Z" fill="white"/>
<path d="M37.9345 58.3504C37.9617 58.5156 37.9889 58.6807 38.0193 58.8475C38.3968 61.0662 38.954 63.2506 39.6853 65.3791C39.7392 65.5446 39.7963 65.7115 39.8549 65.875C41.6714 70.9843 44.4207 75.7119 47.9631 79.8176C49.3741 81.45 50.9074 82.9727 52.5495 84.3725C54.8174 86.3056 57.4302 88.2211 58.8843 90.717C59.0389 90.9757 59.1773 91.2437 59.2988 91.5195L53.1231 105.607C53.093 105.632 53.066 105.659 53.0359 105.684L52.815 106.258C52.7253 106.192 52.6336 106.121 52.5439 106.055C52.4917 106.016 52.4409 105.975 52.3887 105.937C52.3543 105.91 52.3199 105.884 52.2874 105.862C52.2759 105.853 52.2645 105.844 52.2563 105.837C52.2237 105.815 52.1958 105.791 52.1665 105.77C51.6532 105.377 51.1417 104.979 50.6321 104.577C50.6289 104.575 50.6289 104.575 50.6271 104.571C46.752 101.496 43.0995 98.0712 40.083 94.2007C39.9923 94.0842 39.8983 93.9665 39.8104 93.8436C38.4604 92.0914 37.2558 90.2318 36.2088 88.2833C35.6389 87.2146 35.1235 86.1177 34.6645 84.9968C33.4841 82.0984 32.767 79.0324 32.5394 75.9111C32.0866 69.6888 33.6288 63.391 37.6256 58.7054C37.7279 58.5856 37.8289 58.4688 37.9345 58.3504Z" fill="#E6E6E6"/>
<path d="M38.0994 58.4605C36.4174 66.0865 37.1811 74.0486 40.2819 81.2159C40.9556 82.7473 41.7723 84.2422 42.8932 85.4953C43.9952 86.7082 45.4018 87.6039 46.9671 88.0894C48.4174 88.5714 49.9567 88.8964 51.2646 89.7225C52.6433 90.5933 53.467 91.9996 53.7496 93.588C54.0954 95.5314 53.7223 97.4832 53.2911 99.3792C52.8123 101.484 52.2816 103.663 52.7841 105.816C52.845 106.077 52.4368 106.156 52.376 105.895C51.5017 102.151 53.601 98.5661 53.4634 94.8283C53.3992 93.0842 52.809 91.3489 51.3547 90.2863C50.0829 89.3571 48.4958 89.0205 47.0231 88.5452C45.4768 88.0461 44.0982 87.32 42.9453 86.1571C41.7658 84.9676 40.889 83.5014 40.1791 81.9939C38.5949 78.5634 37.5599 74.9052 37.1121 71.1532C36.5773 66.8739 36.7784 62.5347 37.7068 58.3232C37.7644 58.0626 38.1566 58.2015 38.0994 58.4605Z" fill="white"/>
<path d="M39.1477 78.9668C37.8745 79.3238 36.5159 79.2166 35.3145 78.6644C34.1131 78.1122 33.1471 77.1509 32.589 75.9522C32.4769 75.7093 32.8492 75.5237 32.9614 75.767C33.479 76.8841 34.379 77.7795 35.4988 78.2914C36.6186 78.8034 37.8845 78.8982 39.068 78.5587C39.3253 78.4852 39.4035 78.8938 39.1477 78.9668Z" fill="white"/>
<path d="M46.1995 87.9419C47.5447 85.5975 47.957 82.8322 47.3539 80.1974C47.294 79.9364 47.7022 79.8571 47.7621 80.1178C48.3845 82.8608 47.9497 85.7376 46.5444 88.1742C46.4103 88.4063 46.0661 88.1727 46.1995 87.9419Z" fill="white"/>
<path d="M37.1065 67.0285C37.6279 66.9931 38.1323 66.8286 38.5745 66.55C39.0166 66.2714 39.3826 65.8874 39.6396 65.4323C39.7707 65.1986 40.1148 65.4324 39.9845 65.6646C39.6982 66.166 39.2935 66.5897 38.8057 66.8986C38.3178 67.2075 37.7618 67.3922 37.1861 67.4367C37.1322 67.4454 37.077 67.4333 37.0317 67.4028C36.9864 67.3723 36.9544 67.3257 36.9423 67.2724C36.932 67.2183 36.9435 67.1624 36.9742 67.1167C37.005 67.0711 37.0525 67.0394 37.1065 67.0285Z" fill="white"/>
<path d="M58.9543 19.7253L69.3711 141.666L48.5376 143.232V21.2768C51.0201 19.6341 54.5837 19.3771 58.9543 19.7253Z" fill="#CCCCCC"/>
<path d="M110.373 19.7253L99.9564 141.666L120.79 143.232V21.2768C118.307 19.6341 114.744 19.3771 110.373 19.7253Z" fill="#CCCCCC"/>
<path d="M117.67 148.272H51.4354C50.3733 148.271 49.3551 147.849 48.6041 147.098C47.8531 146.347 47.4306 145.328 47.4294 144.266V23.0664C47.4307 22.0043 47.8531 20.9861 48.6041 20.2351C49.3551 19.4841 50.3733 19.0616 51.4354 19.0604H117.67C118.733 19.0616 119.751 19.4841 120.502 20.2351C121.253 20.9861 121.675 22.0043 121.676 23.0664V144.266C121.675 145.328 121.253 146.347 120.502 147.098C119.751 147.849 118.733 148.271 117.67 148.272ZM51.4354 20.3902C50.7259 20.391 50.0456 20.6732 49.5439 21.1749C49.0422 21.6766 48.76 22.3569 48.7592 23.0664V144.266C48.76 144.976 49.0422 145.656 49.5439 146.158C50.0456 146.66 50.7259 146.942 51.4354 146.943H117.67C118.38 146.942 119.06 146.66 119.562 146.158C120.064 145.656 120.346 144.976 120.347 144.266V23.0664C120.346 22.3569 120.064 21.6766 119.562 21.1749C119.06 20.6732 118.38 20.391 117.67 20.3902L51.4354 20.3902Z" fill="#CCCCCC"/>
<path d="M121.011 39.229H48.0943V40.5588H121.011V39.229Z" fill="#CCCCCC"/>
<path d="M121.011 61.3923H48.0943V62.7221H121.011V61.3923Z" fill="#CCCCCC"/>
<path d="M71.7567 19.7253H70.4269V80.2311H71.7567V19.7253Z" fill="#CCCCCC"/>
<path d="M98.679 19.7253H97.3492V80.2311H98.679V19.7253Z" fill="#CCCCCC"/>
<path d="M129.323 151.929H41.9994C40.4123 151.929 38.8903 151.299 37.768 150.177C36.6458 149.054 36.0153 147.532 36.0153 145.945C36.0153 144.358 36.6458 142.836 37.768 141.714C38.8903 140.592 40.4123 139.961 41.9994 139.961H129.323C130.91 139.961 132.432 140.592 133.554 141.714C134.676 142.836 135.307 144.358 135.307 145.945C135.307 147.532 134.676 149.054 133.554 150.177C132.432 151.299 130.91 151.929 129.323 151.929Z" fill="#CCCCCC"/>
<path d="M121.012 77.1282H48.5376V81.5609H121.012V77.1282Z" fill="#CCCCCC"/>
<path d="M71.9631 91.2353L71.8711 91.1909C66.9305 88.8043 60.4608 88.8064 50.8928 91.1987L50.7906 91.2243L50.76 91.1234C49.7478 87.8046 48.6013 84.0458 50.7552 82.1964C50.7854 76.7696 55.5457 72.3631 61.3927 72.3631C67.2384 72.3631 71.998 76.7674 72.0299 82.1927C75.2342 84.6426 73.7071 88.2628 72.0148 91.1472L71.9631 91.2353Z" fill="#2F2E41"/>
<path d="M102.329 79.615C102.241 80.0547 102.057 80.4697 101.79 80.8307C101.524 81.1916 101.182 81.4898 100.788 81.7043C100.394 81.9187 99.9577 82.0441 99.51 82.0717C99.0622 82.0992 98.6139 82.0283 98.1966 81.8639L80.7369 99.4094L79.1791 93.9614L96.5198 77.6681C96.8425 76.9852 97.4045 76.4445 98.0993 76.1484C98.794 75.8522 99.5732 75.8212 100.289 76.0612C101.005 76.3012 101.609 76.7955 101.985 77.4505C102.361 78.1055 102.483 78.8756 102.329 79.615Z" fill="#FFB6B6"/>
<path d="M59.1777 96.5061C59.1777 96.5061 57.5936 100.096 61.5023 102.31C65.4109 104.523 79.0717 101.465 81.2883 101.038C83.5049 100.611 91.7838 88.2213 91.7838 88.2213L90.6131 82.1453L79.6334 91.6766L59.1777 96.5061Z" fill="#A4634D"/>
<path d="M56.2948 116.357L56.5164 120.568C56.5164 120.568 55.8622 124.298 56.4002 125.103C56.9342 125.904 71.5046 126.005 71.5046 126.005C71.5046 126.005 72.4673 120.816 73.2966 116.273L56.2948 116.357Z" fill="#FFB6B6"/>
<path d="M98.1864 172.036L101.233 171.421L100.361 159.117L95.8651 160.025L98.1864 172.036Z" fill="#FFB6B6"/>
<path d="M102.55 156.025L105.382 154.751L101.708 142.979L97.5284 144.859L102.55 156.025Z" fill="#FFB6B6"/>
<path d="M105.016 149.391L99.6844 152.411L86.5345 131.28C77.3031 137.499 68.2761 140.477 59.176 142.067C56.0993 142.614 52.9624 142.337 52.3717 139.205C52.3441 139.059 52.3221 138.912 52.3057 138.764C51.9423 135.343 56.1972 130.959 56.738 126.774L68.3827 126.075L69.8187 127.916L83.2854 119.637C85.9935 117.972 89.5555 118.872 91.2412 121.648C91.3302 121.795 91.4129 121.945 91.4891 122.099L105.016 149.391Z" fill="#2F2E41"/>
<path d="M101.753 163.606L95.6517 164.173L84.5893 141.549C73.6195 143.436 63.2705 144.04 54.319 141.758C51.2883 140.996 49.4357 137.866 50.1811 134.768C50.216 134.623 50.2562 134.48 50.302 134.338C51.3733 131.069 54.1776 128.757 56.3871 125.162L72.5257 125.407L70.7231 131.626L86.4006 129.598C89.5534 129.19 92.4328 131.472 92.8319 134.695C92.853 134.865 92.8667 135.036 92.8732 135.207L101.753 163.606Z" fill="#2F2E41"/>
<path d="M62.5963 88.0187C66.2155 88.0187 69.1495 85.0847 69.1495 81.4655C69.1495 77.8463 66.2155 74.9123 62.5963 74.9123C58.9771 74.9123 56.0431 77.8463 56.0431 81.4655C56.0431 85.0847 58.9771 88.0187 62.5963 88.0187Z" fill="#FFB6B6"/>
<path d="M58.7545 90.3844L64.7631 91.0913C65.0165 91.1211 65.2543 91.2292 65.4434 91.4006C65.6324 91.5719 65.7632 91.798 65.8177 92.0472L66.7733 96.4198L72.73 103.435C72.73 103.435 74.869 107.445 74.0669 111.991C73.2648 116.536 72.9123 119.914 72.9123 119.914C72.9123 119.914 56.9334 125.905 56.3987 125.103C55.8639 124.3 55.6904 120.657 55.6904 120.657L53.5514 96.8604C53.5514 96.8604 55.9578 92.8498 57.2947 92.8498C58.1575 92.8207 58.0468 90.8788 58.7545 90.3844Z" fill="#A4634D"/>
<path d="M73.0747 121.377C73.9174 121.377 74.6004 120.557 74.6004 119.546C74.6004 118.535 73.9174 117.715 73.0747 117.715C72.2321 117.715 71.5491 118.535 71.5491 119.546C71.5491 120.557 72.2321 121.377 73.0747 121.377Z" fill="#A4634D"/>
<path d="M96.6748 168.868L101.319 166.541L102.194 168.583L108.067 169.77C108.357 169.828 108.62 169.978 108.819 170.197C109.018 170.416 109.142 170.693 109.172 170.988C109.203 171.282 109.138 171.578 108.988 171.833C108.838 172.088 108.61 172.289 108.338 172.406L102.664 174.838L100.821 173.237L101.305 175.421L99.1652 176.338L96.6748 168.868Z" fill="#2F2E41"/>
<path d="M101.221 155.045L105.823 152.636L106.734 154.663L112.626 155.746C112.918 155.8 113.184 155.945 113.387 156.16C113.589 156.376 113.718 156.651 113.753 156.945C113.789 157.238 113.73 157.536 113.584 157.793C113.439 158.051 113.215 158.256 112.945 158.377L107.314 160.908L105.443 159.341L105.965 161.515L103.842 162.47L101.221 155.045Z" fill="#2F2E41"/>
<path d="M58.8522 79.41C57.1209 79.4128 55.4311 78.8797 54.0149 77.8839L53.9676 77.8507V77.7931C53.9695 76.1184 54.6356 74.5129 55.8198 73.3287C57.0039 72.1445 58.6095 71.4784 60.2841 71.4765H62.9437C64.6184 71.4784 66.2239 72.1445 67.4081 73.3287C68.5923 74.5129 69.2584 76.1184 69.2603 77.7931C69.2585 78.1764 69.1071 78.5438 68.8385 78.8172C68.5698 79.0906 68.205 79.2482 67.8218 79.2566L59.0016 79.4087C58.9518 79.4095 58.9018 79.41 58.8522 79.41Z" fill="#2F2E41"/>
<path d="M69.7035 76.58C70.5516 76.0904 70.6933 74.7482 70.0201 73.5821C69.3468 72.4161 68.1136 71.8677 67.2656 72.3573C66.4175 72.8469 66.2758 74.1891 66.949 75.3552C67.6222 76.5212 68.8555 77.0696 69.7035 76.58Z" fill="#2F2E41"/>
<path d="M56.4403 75.2791C57.3924 74.327 57.6029 72.9939 56.9105 72.3015C56.218 71.609 54.8849 71.8195 53.9328 72.7716C52.9807 73.7237 52.7702 75.0568 53.4627 75.7493C54.1551 76.4417 55.4882 76.2312 56.4403 75.2791Z" fill="#2F2E41"/>
<path d="M114.438 135.196H107.897C107.749 135.196 107.603 135.228 107.469 135.29C107.335 135.351 107.216 135.442 107.121 135.555C106.88 135.51 106.632 135.524 106.397 135.594C106.162 135.664 105.946 135.789 105.769 135.959C105.592 136.128 105.457 136.337 105.376 136.569C105.295 136.8 105.271 137.048 105.304 137.291C105.337 137.534 105.428 137.766 105.568 137.967C105.708 138.168 105.894 138.333 106.11 138.449C106.327 138.564 106.568 138.627 106.813 138.631C107.058 138.636 107.301 138.582 107.521 138.474L108.064 140.237C108.128 140.446 108.258 140.629 108.433 140.759C108.609 140.888 108.822 140.959 109.041 140.959H113.293C113.512 140.959 113.725 140.888 113.901 140.759C114.076 140.629 114.206 140.446 114.27 140.237L115.414 136.519C115.461 136.366 115.472 136.204 115.445 136.046C115.418 135.889 115.355 135.74 115.26 135.611C115.165 135.482 115.041 135.378 114.898 135.306C114.755 135.234 114.597 135.196 114.438 135.196ZM106.845 138.188C106.551 138.188 106.269 138.071 106.062 137.864C105.854 137.656 105.737 137.374 105.737 137.08C105.737 136.786 105.854 136.504 106.062 136.296C106.269 136.089 106.551 135.972 106.845 135.972C106.865 135.972 106.884 135.977 106.904 135.978C106.86 136.156 106.866 136.343 106.92 136.519L107.388 138.04C107.223 138.136 107.036 138.187 106.845 138.188Z" fill="#3F3D56"/>
<path d="M85.2294 130.385C84.7828 130.426 84.3325 130.369 83.9103 130.218C83.4881 130.066 83.1042 129.824 82.7858 129.508C82.4673 129.192 82.222 128.81 82.0671 128.389C81.9123 127.968 81.8516 127.518 81.8893 127.071L60.0721 115.38L64.844 112.324L85.4277 124.261C86.1744 124.374 86.8536 124.758 87.3366 125.338C87.8197 125.919 88.073 126.656 88.0486 127.411C88.0241 128.166 87.7236 128.886 87.2041 129.434C86.6845 129.982 85.9819 130.32 85.2294 130.385Z" fill="#FFB6B6"/>
<path d="M56.6677 93.894C56.6677 93.894 52.7743 93.4065 51.7751 97.786C50.7759 102.165 57.6253 114.374 58.6704 116.375C59.7154 118.376 73.9593 122.752 73.9593 122.752L79.444 119.887L67.1632 112.104L56.6677 93.894Z" fill="#A4634D"/>
<path d="M84.1097 75.7984H85.4394C86.086 75.7984 86.7061 76.0553 87.1633 76.5125C87.6206 76.9697 87.8774 77.5898 87.8774 78.2364H81.6717C81.6717 77.5898 81.9285 76.9697 82.3858 76.5125C82.843 76.0553 83.4631 75.7984 84.1097 75.7984Z" fill="#CCCCCC"/>
<path d="M41.9422 30.3117C49.2181 30.3117 55.1164 24.4134 55.1164 17.1375C55.1164 9.86152 49.2181 3.9632 41.9422 3.9632C34.6662 3.9632 28.7679 9.86152 28.7679 17.1375C28.7679 24.4134 34.6662 30.3117 41.9422 30.3117Z" fill="#FF6584"/>
<path d="M82.2786 16.4509C78.7921 12.7934 74.7428 9.45684 69.9492 7.69366C68.614 7.20044 67.2294 6.85251 65.8196 6.65591C65.8083 6.65436 65.7976 6.65665 65.7863 6.65574C65.7634 6.64983 65.7401 6.64526 65.7166 6.64207C63.7449 6.39087 61.7435 6.5117 59.8163 6.99828C58.8739 7.23478 57.9544 7.55507 57.069 7.95533C56.1805 8.3888 55.3196 8.87671 54.4911 9.41627C52.7377 10.4659 50.8071 11.1861 48.7946 11.5414C47.7845 11.7233 46.7613 11.8237 45.7351 11.8417C44.8446 11.8596 44.0049 11.8905 43.1612 12.2122C42.26 12.5511 41.4505 13.0959 40.7972 13.8032C40.144 14.5106 39.6651 15.3608 39.3988 16.286C39.3783 16.3684 39.3844 16.4552 39.4164 16.5339C39.4485 16.6125 39.5046 16.679 39.5768 16.7236C39.8051 16.8871 40.0275 17.0725 40.2673 17.2181C40.4806 17.3158 40.7085 17.3779 40.9418 17.4021C41.323 17.4825 41.7047 17.5606 42.0869 17.6364C43.4949 17.9153 44.9087 18.1623 46.3284 18.3772C49.2011 18.8121 52.0893 19.1184 54.993 19.2962C60.8099 19.6485 66.6469 19.4731 72.4322 18.772C75.6835 18.3782 78.9128 17.8197 82.1076 17.0986C82.1723 17.0796 82.231 17.0443 82.278 16.9961C82.3251 16.9478 82.3588 16.8882 82.376 16.823C82.3932 16.7579 82.3933 16.6894 82.3762 16.6242C82.3592 16.559 82.3255 16.4993 82.2786 16.4509Z" fill="#E6E6E6"/>
<path d="M42.5674 25.2593C41.2321 24.7661 39.8476 24.4182 38.4378 24.2216C38.4265 24.22 38.4157 24.2223 38.4045 24.2214C38.3815 24.2155 38.3583 24.2109 38.3348 24.2077C36.3631 23.9565 34.3617 24.0774 32.4345 24.564C31.492 24.8005 30.5726 25.1207 29.6872 25.521C28.7987 25.9545 27.9377 26.4424 27.1093 26.9819C25.3558 28.0316 23.4253 28.7518 21.4128 29.1071C20.4026 29.289 19.3795 29.3894 18.3532 29.4074C17.4628 29.4252 16.623 29.4562 15.7793 29.7779C14.8781 30.1168 14.0686 30.6616 13.4154 31.3689C12.7621 32.0762 12.2833 32.9264 12.0169 33.8517C11.9964 33.9341 12.0026 34.0209 12.0346 34.0995C12.0666 34.1782 12.1228 34.2446 12.195 34.2893C12.4232 34.4527 12.6457 34.6382 12.8855 34.7838C13.0988 34.8814 13.3266 34.9436 13.56 34.9677C13.9412 35.0482 14.3229 35.1263 14.7051 35.202C16.113 35.481 17.5269 35.7279 18.9466 35.9428C21.8192 36.3777 24.7074 36.684 27.6111 36.8618C33.4281 37.2142 39.265 37.0387 45.0503 36.3377C48.3017 35.9439 51.531 35.3853 54.7258 34.6642C54.7905 34.6453 54.8492 34.61 54.8962 34.5617C54.9432 34.5134 54.977 34.4538 54.9942 34.3887C55.0114 34.3235 55.0114 34.255 54.9944 34.1898C54.9773 34.1246 54.9437 34.065 54.8968 34.0166C51.4102 30.3591 47.361 27.0225 42.5674 25.2593Z" fill="#E6E6E6"/>
<path d="M137.573 123.471L127.441 110.162L119.447 114.682L136.387 134.798L137.573 123.471Z" fill="#3F3D56"/>
<path d="M160.91 101.836C161.135 107.413 161.999 112.947 163.485 118.328C163.166 119.079 162.837 119.825 162.497 120.566C161.211 123.372 159.771 126.106 158.184 128.753C153.733 136.188 148.176 142.903 141.705 148.667C141.005 149.29 140.295 149.902 139.576 150.504C135.473 144.848 133.259 138.607 132.384 132.184C132.273 131.368 132.182 130.544 132.113 129.724V129.719C131.945 127.727 131.891 125.726 131.951 123.727C131.954 123.567 131.958 123.405 131.965 123.243C132.042 121.107 132.235 118.966 132.525 116.845V116.843C132.559 116.599 132.592 116.355 132.63 116.111C132.736 115.38 132.856 114.648 132.986 113.921C133.747 109.729 134.81 105.597 136.165 101.557V101.554C136.202 101.437 136.24 101.322 136.282 101.206C136.428 100.768 136.577 100.333 136.73 99.8988C136.739 99.8648 136.751 99.8314 136.765 99.7991C136.962 99.2317 137.164 98.6687 137.37 98.1102C137.426 97.9551 137.483 97.7999 137.543 97.6448C137.776 97.022 138.013 96.4036 138.255 95.7941C138.33 95.5991 138.408 95.4041 138.485 95.2113C138.545 95.0628 138.603 94.9143 138.665 94.768V94.7658C139.017 93.8948 139.374 93.0407 139.735 92.2037C140.748 89.85 141.79 87.6358 142.805 85.5946L142.807 85.5924C147.02 77.1415 150.85 71.6539 150.85 71.6539L165.232 76.3082C163.516 79.3512 162.189 83.8393 161.462 89.1341C160.902 93.3425 160.717 97.5925 160.91 101.834L160.91 101.836Z" fill="#3F3D56"/>
<path d="M137.007 100.482C136.923 100.284 136.827 100.092 136.73 99.8988C136.224 98.9199 135.573 98.0232 134.799 97.2392C134.684 97.1217 134.564 97.0043 134.44 96.8935C133.105 95.6638 131.482 94.7905 129.72 94.3544C127.958 93.9182 126.115 93.9331 124.36 94.3979L124.352 94.4023L124.285 94.42L124.301 94.4954C124.367 94.8465 124.463 95.1913 124.589 95.526C124.622 95.6168 124.66 95.7033 124.697 95.7897C124.713 95.8296 124.733 95.8651 124.75 95.905C124.75 95.905 124.748 95.9072 124.753 95.9072C124.753 95.9094 124.755 95.9116 124.755 95.9138C124.797 95.9958 124.837 96.0801 124.881 96.1598C124.79 96.0734 124.704 95.9848 124.62 95.8939C124.538 95.8097 124.462 95.721 124.387 95.6324C124.129 95.3311 123.895 95.0094 123.689 94.6705L123.653 94.6106L123.591 94.635C122.755 94.9248 121.957 95.3156 121.215 95.7986L121.136 95.8518C120.569 96.2236 119.931 96.4721 119.263 96.5813C118.594 96.6905 117.91 96.6579 117.255 96.4857C116.222 96.2193 115.145 96.1707 114.092 96.3428C113.04 96.5148 112.034 96.9039 111.14 97.4852C110.548 97.8714 110.012 98.3384 109.549 98.8726C109.509 98.9192 109.469 98.9679 109.429 99.0145C109.345 99.1164 109.265 99.2206 109.187 99.327C108.354 100.441 107.843 101.761 107.709 103.146L107.705 103.197L107.747 103.226C108.497 103.74 109.345 104.093 110.238 104.263C109.677 104.341 109.109 104.355 108.545 104.305H108.542C108.287 104.284 108.032 104.248 107.78 104.198L107.733 104.19H107.731L107.674 104.179L107.683 104.285C107.749 105.639 108.175 106.951 108.917 108.086L108.939 108.117C108.947 108.128 108.955 108.14 108.961 108.152C109.276 108.633 109.537 109.147 109.741 109.684C110.26 111.018 110.374 112.476 110.069 113.875C109.725 115.371 109.84 116.937 110.398 118.367C110.956 119.797 111.932 121.026 113.199 121.894C114.312 122.659 115.608 123.114 116.956 123.212C117.14 123.228 117.326 123.237 117.512 123.237C118.578 123.24 119.632 123.02 120.608 122.592L120.644 122.579L120.652 122.539C120.84 121.933 121.104 121.354 121.437 120.814C121.328 121.239 121.273 121.676 121.273 122.115V122.262L121.399 122.188C121.508 122.124 121.619 122.055 121.719 121.991C122.317 121.6 122.859 121.129 123.33 120.59C123.514 120.378 123.7 120.172 123.895 119.965L123.897 119.963C124.276 119.56 124.677 119.165 125.094 118.789C125.98 117.992 126.929 117.268 127.931 116.623C128.932 115.98 129.979 115.412 131.063 114.921H131.065C131.187 114.863 131.311 114.808 131.433 114.755C131.972 114.52 132.492 114.241 132.986 113.922C133.004 113.91 133.02 113.902 133.035 113.89C135.178 112.488 136.753 110.37 137.48 107.914C138.207 105.459 138.04 102.825 137.007 100.482Z" fill="#A4634D"/>
<path opacity="0.15" d="M110.435 117.022C110.374 117.291 110.328 117.564 110.297 117.838C109.885 116.534 109.825 115.144 110.124 113.81C110.17 113.605 110.205 113.399 110.232 113.191C110.641 114.427 110.711 115.75 110.435 117.022Z" fill="black"/>
<path opacity="0.15" d="M110.602 107.408C109.946 107.499 109.28 107.502 108.623 107.417C108.451 107.093 108.302 106.756 108.178 106.41C108.91 106.904 109.735 107.243 110.602 107.408Z" fill="black"/>
<path opacity="0.15" d="M108.57 104.234C108.328 104.853 108.167 105.502 108.091 106.163C107.889 105.533 107.769 104.88 107.736 104.22L107.731 104.113L107.835 104.133C108.078 104.179 108.324 104.213 108.57 104.234Z" fill="black"/>
<path opacity="0.15" d="M111.197 97.4194C112.09 96.8372 113.095 96.4476 114.147 96.2753C115.2 96.103 116.276 96.1518 117.309 96.4186C117.964 96.5918 118.648 96.625 119.317 96.5159C119.986 96.4069 120.625 96.1581 121.191 95.7857L121.271 95.7329C122.012 95.2488 122.81 94.8571 123.646 94.5666L123.71 94.5445L123.745 94.6023C124.075 95.1488 124.476 95.6499 124.936 96.0928C124.657 95.5719 124.461 95.0101 124.356 94.4282L124.341 94.3515L124.417 94.3315C126.062 93.896 127.787 93.8557 129.451 94.2138C131.116 94.572 132.671 95.3185 133.992 96.3925C135.313 97.4665 136.361 98.8374 137.051 100.394C137.741 101.95 138.053 103.647 137.962 105.347C137.613 103.961 136.992 102.658 136.136 101.514C135.28 100.37 134.205 99.4069 132.974 98.6811C131.743 97.9553 130.38 97.481 128.965 97.2857C127.549 97.0905 126.109 97.1781 124.727 97.5436L124.652 97.5636L124.667 97.6403C124.771 98.2222 124.967 98.7839 125.247 99.3049C124.787 98.862 124.386 98.3609 124.055 97.8143L124.021 97.7566L123.957 97.7787C123.121 98.0692 122.323 98.4609 121.582 98.945L121.502 98.9978C120.936 99.3701 120.297 99.619 119.628 99.728C118.959 99.8371 118.274 99.8039 117.619 99.6306C115.903 99.1854 114.086 99.3491 112.478 100.094C110.869 100.839 109.569 102.118 108.798 103.715C108.455 103.55 108.123 103.364 107.802 103.158L107.759 103.131L107.764 103.08C107.874 101.939 108.24 100.838 108.835 99.8576C109.429 98.8777 110.236 98.0443 111.197 97.4194Z" fill="black"/>
<path d="M193.592 40.7893L193.381 40.6497L193.228 40.8491C192.045 42.3393 191.103 44.0064 190.438 45.7893C190.53 43.7354 190.889 41.7021 191.506 39.741L191.573 39.5349L191.382 39.4263C188.902 38.0221 186.26 36.9265 183.514 36.1638L183.215 36.084C181.111 35.5066 179.151 34.4921 177.465 33.1066C175.779 31.7211 174.404 29.9958 173.43 28.0432C171.166 23.5619 167.588 19.8778 163.176 17.4824C158.763 15.0869 153.725 14.0942 148.733 14.6366H148.731C148.678 14.6411 148.623 14.6477 148.569 14.6544C148.479 14.6632 148.39 14.6743 148.301 14.6854C148.119 14.7098 147.942 14.7342 147.765 14.7608C147.614 14.7829 147.461 14.8073 147.31 14.8339C147.231 14.845 147.153 14.8583 147.076 14.8738C146.998 14.8871 146.918 14.9004 146.841 14.9159H146.838C145.35 15.1974 143.892 15.6166 142.481 16.1681H142.479V16.1703L142.122 16.31C141.754 16.4607 141.389 16.6202 141.027 16.7887C140.945 16.8264 140.865 16.8663 140.783 16.9039C140.761 16.915 140.737 16.9261 140.715 16.9394C140.482 17.0502 140.251 17.1655 140.023 17.2874C139.99 17.3029 139.957 17.3206 139.923 17.3383L139.711 17.4514C139.243 17.704 138.784 17.9722 138.332 18.2559C138.294 18.2781 138.259 18.3002 138.221 18.3246C138.181 18.3512 138.139 18.3778 138.099 18.4044C138.075 18.4177 138.051 18.4354 138.026 18.4509C137.958 18.493 137.891 18.5374 137.825 18.5839C137.692 18.6703 137.559 18.759 137.428 18.8499C137.293 18.9407 137.16 19.036 137.027 19.1313L136.894 19.2266L136.918 19.3906C136.94 19.5258 136.96 19.661 136.985 19.794C137.007 19.927 137.029 20.0578 137.053 20.1885C137.091 20.4079 137.133 20.6251 137.175 20.8357C137.204 20.9753 137.231 21.1127 137.262 21.2479C137.29 21.3876 137.322 21.5272 137.355 21.6668C137.419 21.9549 137.488 22.2342 137.561 22.509C137.596 22.6464 137.634 22.7838 137.674 22.919C137.696 23.001 137.718 23.0831 137.743 23.1628C137.76 23.2182 137.778 23.2737 137.796 23.3291C137.8 23.3468 137.805 23.3667 137.811 23.3867C137.816 23.4055 137.822 23.424 137.829 23.4421C137.853 23.5241 137.878 23.6039 137.902 23.6815C137.915 23.7236 137.929 23.7657 137.944 23.8056C137.975 23.9009 138.009 23.9984 138.042 24.0915C138.077 24.1979 138.115 24.3042 138.153 24.4084C138.161 24.435 138.17 24.4594 138.179 24.486C138.186 24.5059 138.193 24.5259 138.201 24.5458C138.21 24.568 138.219 24.5924 138.228 24.6145C138.266 24.7143 138.303 24.8162 138.343 24.916C138.357 24.9514 138.37 24.9891 138.385 25.0246C138.745 25.9275 139.186 26.7955 139.704 27.6177C139.13 27.1256 138.577 26.6041 138.046 26.0529C137.226 25.2008 136.47 24.2888 135.786 23.3246C135.73 23.2493 135.675 23.1717 135.624 23.0941C135.52 22.9456 135.418 22.7971 135.318 22.6464C135.212 22.4913 135.11 22.3295 135.01 22.1699C134.943 22.0635 134.877 21.9549 134.813 21.8486C134.748 21.7466 134.689 21.6469 134.631 21.5449L134.458 21.2479H134.456V21.2501L134.212 21.4895C134.114 21.5848 134.017 21.6801 133.922 21.7754C130.943 24.7726 128.785 28.4857 127.656 32.5578L127.623 32.6797L127.59 32.8061C127.525 33.0321 127.461 33.2516 127.392 33.4754V33.4776C127.326 33.6993 127.255 33.9209 127.18 34.1381C127.111 34.3442 127.04 34.5481 126.965 34.752C126.94 34.8207 126.914 34.8894 126.885 34.9581C126.838 35.0911 126.787 35.2219 126.736 35.3548C126.712 35.4147 126.688 35.4767 126.663 35.5366C126.603 35.6829 126.544 35.8291 126.484 35.9732C126.475 35.9954 126.464 36.0197 126.453 36.0419C126.435 36.0862 126.415 36.1306 126.397 36.1727C126.351 36.2791 126.302 36.3877 126.255 36.494C126.222 36.5627 126.191 36.6337 126.16 36.7024C126.147 36.7334 126.131 36.7644 126.118 36.7955C126.036 36.9728 125.952 37.1479 125.863 37.3207C125.763 37.5246 125.661 37.7286 125.553 37.928C125.458 38.1142 125.358 38.2959 125.254 38.4777C125.074 38.799 124.886 39.1182 124.691 39.4285C124.615 39.5482 124.54 39.6678 124.462 39.7875C124.445 39.8163 124.427 39.8451 124.409 39.8717C124.345 39.9759 124.278 40.0757 124.21 40.1776C124.163 40.2463 124.117 40.315 124.07 40.3815C123.993 40.5012 123.911 40.6164 123.826 40.7295C123.804 40.7649 123.78 40.7982 123.755 40.8314C123.631 41.0043 123.507 41.1727 123.381 41.3412C123.376 41.3434 123.376 41.3456 123.374 41.3478C123.37 41.3478 123.37 41.35 123.368 41.3522C123.312 41.4254 123.257 41.4985 123.199 41.5694C123.124 41.6736 123.042 41.7756 122.96 41.8753C122.827 42.0437 122.687 42.2144 122.545 42.3806C122.541 42.3851 122.539 42.3895 122.534 42.3917C121.8 43.2545 121.004 44.0634 120.154 44.8119C120.138 44.8252 120.127 44.8385 120.112 44.8496C119.992 44.9538 119.872 45.058 119.748 45.1599C119.697 45.202 119.646 45.2441 119.595 45.2862C119.511 45.3572 119.425 45.4281 119.34 45.4923C119.33 45.5025 119.319 45.5115 119.307 45.5189C119.232 45.581 119.159 45.6386 119.083 45.6963C118.992 45.7694 118.902 45.8381 118.809 45.9068C118.37 46.2393 117.919 46.5532 117.457 46.8487C117.388 46.8953 117.315 46.9418 117.244 46.9862C117.202 47.0128 117.16 47.0393 117.12 47.0615C116.951 47.1657 116.783 47.2676 116.614 47.3651C116.446 47.4649 116.273 47.5602 116.102 47.6533C115.737 47.8527 115.375 48.0611 115.023 48.2783C114.846 48.3891 114.668 48.4999 114.493 48.6129C113.797 49.0651 113.127 49.549 112.483 50.0646C111.839 50.5806 111.221 51.1287 110.632 51.7069C110.559 51.7779 110.486 51.851 110.413 51.9263C110.267 52.0704 110.125 52.2167 109.99 52.363C109.773 52.5868 109.564 52.8173 109.358 53.05C108.271 54.2833 107.309 55.6211 106.486 57.0438C106.072 57.7543 105.697 58.4859 105.36 59.2358C105.105 59.7965 104.872 60.3706 104.662 60.9512C104.522 61.3391 104.391 61.7306 104.269 62.1259C104.21 62.3231 104.152 62.5226 104.097 62.7221C103.908 63.3981 103.751 64.0807 103.622 64.7655C103.518 65.3152 103.434 65.8656 103.37 66.4167C103.336 66.6937 103.31 66.9708 103.285 67.2456C103.228 67.9211 103.199 68.5972 103.198 69.274C103.194 71.3044 103.441 73.3276 103.933 75.2975C104.041 75.7319 104.162 76.1641 104.294 76.5941C104.36 76.8091 104.431 77.0218 104.502 77.2346C104.682 77.7665 104.88 78.2933 105.098 78.8148C105.229 79.1273 105.366 79.4376 105.511 79.7457C106.426 81.7042 107.594 83.5342 108.986 85.189C109.214 85.4616 109.45 85.7298 109.693 85.9935C109.695 85.9935 109.693 85.9957 109.693 85.9957C110.296 86.6535 110.934 87.278 111.605 87.8663H111.608C111.876 88.1035 112.148 88.3332 112.425 88.5556C112.428 88.5534 112.428 88.5556 112.428 88.5556C112.707 88.7817 112.988 88.9989 113.277 89.2094C113.421 89.3136 113.567 89.4177 113.715 89.5219C114.006 89.728 114.302 89.9268 114.604 90.1181H114.606C114.908 90.3131 115.214 90.4993 115.524 90.6766C116.147 91.0334 116.785 91.3681 117.441 91.6718L117.552 91.7227L117.665 91.6718C118.717 91.1984 119.801 90.8007 120.91 90.4816C121.153 90.4107 121.399 90.3464 121.643 90.2843C122.259 90.1314 122.88 90.0029 123.505 89.8987C122.896 90.2042 122.308 90.5499 121.745 90.9337C121.309 91.2285 120.879 91.5499 120.446 91.9045C120.302 92.0219 120.158 92.1438 120.014 92.268L119.655 92.5782L120.105 92.7267C120.269 92.7799 120.433 92.8331 120.597 92.8819C120.821 92.9528 121.043 93.0171 121.26 93.0769C121.734 93.2099 122.211 93.3274 122.692 93.4293C122.809 93.4537 122.924 93.4781 123.042 93.5024C123.27 93.5468 123.5 93.5911 123.731 93.631C123.74 93.6334 123.75 93.6349 123.76 93.6354C123.999 93.6753 124.241 93.713 124.48 93.7462C124.926 93.8105 125.371 93.8615 125.817 93.8992C125.865 93.9058 125.914 93.908 125.965 93.9102C126.074 93.9191 126.18 93.928 126.289 93.9346C126.528 93.9501 126.77 93.9612 127.011 93.9701C127.029 93.9701 127.044 93.9723 127.062 93.9723C127.184 93.9767 127.306 93.9812 127.428 93.9834C127.428 93.9834 127.428 93.9856 127.43 93.9834C127.552 93.9856 127.674 93.9878 127.796 93.9878H128.47C128.596 93.9878 128.722 93.99 128.851 93.99C129.028 93.99 129.208 93.9922 129.385 93.9945C129.431 93.9945 129.48 93.9967 129.529 93.9967C129.813 94.0011 130.096 94.0078 130.38 94.0144C130.398 94.0144 130.415 94.0166 130.433 94.0166C130.717 94.0255 131.001 94.0344 131.284 94.0477C131.346 94.0499 131.408 94.0521 131.473 94.0565C131.745 94.0676 132.018 94.0809 132.29 94.0964C132.368 94.1009 132.448 94.1075 132.528 94.1119C132.734 94.123 132.942 94.1363 133.148 94.1518C133.27 94.1585 133.39 94.1673 133.512 94.1784C134.004 94.2161 134.493 94.2582 134.986 94.307C135.15 94.3203 135.314 94.338 135.478 94.3557C135.916 94.4023 136.357 94.4532 136.798 94.5087C136.996 94.5308 137.193 94.5574 137.39 94.584C137.412 94.5862 137.435 94.5884 137.457 94.5929C137.701 94.6261 137.942 94.6594 138.186 94.6948C138.345 94.717 138.505 94.7414 138.665 94.7657C138.829 94.7901 138.993 94.8145 139.157 94.8433C139.245 94.8566 139.334 94.8721 139.425 94.8876C139.638 94.9209 139.853 94.9564 140.068 94.9962C140.087 94.9981 140.106 95.0011 140.125 95.0051C140.582 95.0849 141.041 95.1691 141.497 95.26C141.765 95.311 142.031 95.3642 142.297 95.4196C142.506 95.4617 142.714 95.506 142.922 95.5503C142.958 95.557 142.993 95.5658 143.029 95.5747C143.037 95.5771 143.045 95.5786 143.053 95.5791C143.368 95.6479 143.685 95.7188 143.999 95.7941C145.092 96.0468 146.183 96.3275 147.273 96.6363C147.523 96.705 147.774 96.7782 148.024 96.8513C148.131 96.8823 148.235 96.9134 148.339 96.9444C148.556 97.0087 148.771 97.0729 148.988 97.1417C149.179 97.1993 149.372 97.2591 149.562 97.3212C149.682 97.3589 149.802 97.3965 149.921 97.4364C150.108 97.494 150.294 97.5539 150.478 97.6182C150.635 97.6669 150.79 97.7179 150.945 97.7733C151.167 97.8464 151.391 97.9218 151.612 98.0016C151.677 98.0238 151.743 98.0459 151.807 98.0703C152.078 98.1634 152.348 98.2587 152.619 98.3584C152.882 98.4537 153.146 98.5512 153.408 98.6488C153.589 98.7175 153.771 98.784 153.951 98.8549C154.152 98.9324 154.354 99.01 154.553 99.0898C154.842 99.2028 155.132 99.3181 155.42 99.4356C155.686 99.5419 155.95 99.6505 156.216 99.7636C156.264 99.7835 156.315 99.8035 156.364 99.8256C156.595 99.9209 156.825 100.021 157.053 100.12C157.202 100.182 157.348 100.247 157.495 100.311C158.133 100.59 158.77 100.879 159.407 101.178H159.409C159.808 101.366 160.214 101.546 160.622 101.716C160.717 101.756 160.812 101.796 160.91 101.834C161.072 101.902 161.236 101.967 161.4 102.033C161.506 102.075 161.612 102.117 161.721 102.157C161.878 102.219 162.038 102.279 162.198 102.337C162.366 102.399 162.532 102.461 162.703 102.518C162.763 102.541 162.823 102.561 162.885 102.583C163.082 102.649 163.279 102.716 163.479 102.78C163.499 102.787 163.519 102.793 163.541 102.8C163.749 102.866 163.957 102.933 164.168 102.995C164.185 103.001 164.202 103.006 164.219 103.01C164.445 103.079 164.675 103.146 164.904 103.21C165.241 103.303 165.58 103.392 165.919 103.474C165.981 103.489 166.043 103.505 166.105 103.518C166.287 103.562 166.466 103.604 166.648 103.644C166.841 103.689 167.036 103.729 167.229 103.768C167.424 103.808 167.619 103.848 167.812 103.884C167.916 103.904 168.02 103.924 168.122 103.941L168.394 103.988C168.583 104.021 168.771 104.05 168.962 104.081C168.967 104.081 168.972 104.082 168.977 104.083C169.192 104.116 169.405 104.147 169.62 104.174C169.826 104.203 170.032 104.227 170.238 104.252C170.281 104.256 170.325 104.261 170.369 104.265C170.54 104.285 170.711 104.305 170.881 104.32C170.93 104.325 170.979 104.329 171.027 104.334C171.196 104.349 171.364 104.365 171.533 104.376C171.567 104.38 171.601 104.382 171.635 104.382C171.785 104.396 171.936 104.407 172.087 104.413C172.193 104.422 172.297 104.427 172.404 104.433C172.459 104.436 172.512 104.438 172.568 104.44C172.714 104.449 172.86 104.453 173.009 104.458C173.188 104.464 173.368 104.469 173.545 104.473C173.76 104.478 173.977 104.48 174.192 104.48H174.197C174.407 104.48 174.62 104.478 174.831 104.473H174.91L175.143 104.467C175.263 104.464 175.383 104.46 175.5 104.456C175.726 104.447 175.95 104.436 176.174 104.422C176.262 104.418 176.353 104.411 176.442 104.407C176.482 104.405 176.524 104.4 176.564 104.398C176.704 104.389 176.841 104.38 176.981 104.369C177.125 104.358 177.271 104.345 177.415 104.329C177.601 104.311 177.787 104.292 177.973 104.272C178.12 104.256 178.266 104.238 178.41 104.221C178.429 104.219 178.449 104.216 178.468 104.212C178.607 104.196 178.747 104.179 178.884 104.159C179.048 104.136 179.21 104.112 179.372 104.088C179.39 104.085 179.405 104.083 179.423 104.081C179.702 104.037 179.984 103.992 180.265 103.941C180.56 103.888 180.855 103.831 181.147 103.771C181.256 103.749 181.362 103.724 181.471 103.702C181.531 103.689 181.593 103.678 181.65 103.664C181.741 103.644 181.83 103.624 181.919 103.602C181.934 103.6 181.952 103.596 181.967 103.593C182.091 103.567 182.213 103.536 182.337 103.505C182.586 103.445 182.829 103.383 183.073 103.316C183.182 103.29 183.29 103.261 183.395 103.232C183.426 103.223 183.457 103.214 183.485 103.206C183.935 103.079 184.382 102.946 184.824 102.804C185.019 102.742 185.212 102.678 185.405 102.609C185.819 102.468 186.23 102.318 186.637 102.162C186.746 102.122 186.854 102.077 186.963 102.035C187.122 101.971 187.282 101.907 187.439 101.843C187.581 101.783 187.723 101.723 187.867 101.661C187.938 101.632 188.009 101.601 188.08 101.57C188.293 101.477 188.505 101.382 188.716 101.286C188.858 101.22 188.997 101.155 189.137 101.089C189.359 100.983 189.578 100.874 189.798 100.765C189.853 100.737 189.906 100.708 189.959 100.681C190.099 100.61 190.239 100.537 190.38 100.466C190.604 100.346 190.828 100.227 191.05 100.103C191.125 100.063 191.198 100.021 191.274 99.9786C191.517 99.8412 191.759 99.7015 191.998 99.5597C192.528 99.2428 193.05 98.9118 193.565 98.5668C193.694 98.4826 193.822 98.3939 193.949 98.3075C194.188 98.1435 194.423 97.975 194.658 97.8066C194.682 97.7888 194.705 97.7711 194.729 97.7556C194.846 97.6692 194.964 97.5827 195.081 97.4941C195.325 97.3101 195.567 97.1239 195.808 96.9333C195.813 96.9311 195.819 96.9245 195.826 96.92C195.935 96.8336 196.043 96.7472 196.15 96.6607C196.48 96.3926 196.806 96.1199 197.125 95.8385C197.282 95.7033 197.437 95.5637 197.59 95.424C197.705 95.3199 197.821 95.2157 197.934 95.1093C198.162 94.8943 198.386 94.6815 198.607 94.4644C198.718 94.358 198.827 94.2472 198.938 94.1363C199.046 94.0255 199.157 93.9147 199.266 93.8017C199.303 93.764 199.341 93.7241 199.379 93.6842C199.49 93.5667 199.6 93.4471 199.711 93.3296C199.807 93.2276 199.9 93.1213 199.995 93.0149C200.154 92.8376 200.316 92.6603 200.474 92.4807C200.482 92.4706 200.491 92.461 200.5 92.4519C200.509 92.4409 200.518 92.432 200.525 92.4231H200.522C203.744 88.6978 206.138 84.3308 207.545 79.6111C208.952 74.8914 209.341 69.9267 208.686 65.0454C208.031 60.1641 206.346 55.4776 203.744 51.2961C201.142 47.1145 197.682 43.5333 193.592 40.7893Z" fill="#A4634D"/>
<g opacity="0.15">
<path d="M148.732 14.6349C149.173 16.2219 149.838 17.7382 150.706 19.1384C149.253 17.8906 147.955 16.4732 146.84 14.9165C147.466 14.798 148.097 14.7041 148.732 14.6349Z" fill="black"/>
<path d="M127.105 39.1778C125.465 40.0731 123.931 41.1512 122.533 42.3916C124.893 39.6007 126.618 36.33 127.588 32.8061C127.6 32.7637 127.612 32.7211 127.623 32.6787L127.656 32.5588C128.822 28.353 131.084 24.5323 134.211 21.4874L134.457 21.2479L134.63 21.5439C135.589 23.1738 136.736 24.6851 138.048 26.0468C136.037 31.7192 132.126 36.4403 127.105 39.1778Z" fill="black"/>
<path d="M138.659 24.0813L138.626 24.2012C138.614 24.2436 138.602 24.2863 138.591 24.3286C138.526 24.5618 138.457 24.7933 138.386 25.0238C137.685 23.2078 137.193 21.3179 136.918 19.3907L136.893 19.2272L137.027 19.1311C138.714 17.9192 140.545 16.9234 142.48 16.1671C140.743 18.5555 139.449 21.236 138.659 24.0813Z" fill="black"/>
<path d="M116.103 47.6553C117.555 46.8607 118.914 45.907 120.154 44.8116C117.676 47.697 115.9 51.117 114.964 54.8038C114.029 58.4905 113.96 62.3437 114.762 66.0616C115.565 69.7794 117.218 73.2609 119.591 76.2331C121.965 79.2054 124.994 81.5877 128.442 83.1934L128.554 83.2451L128.666 83.1946C130.528 82.3532 132.492 81.7569 134.508 81.4207C133.25 82.0616 132.077 82.8578 131.017 83.7907L130.658 84.1007L131.108 84.2492C131.496 84.3776 131.885 84.4957 132.262 84.6005C134.48 85.2183 136.773 85.5252 139.076 85.5122C149.537 85.4452 160.08 87.8638 170.411 92.7006C172.182 93.5289 174.02 94.208 175.905 94.7311C184.117 97.0177 192.885 96.1952 200.529 92.421C196.219 97.4052 190.584 101.064 184.278 102.974C177.972 104.883 171.253 104.965 164.902 103.209C163.018 102.686 161.18 102.006 159.409 101.178C149.078 96.3413 138.535 93.9227 128.074 93.9897C125.771 94.0026 123.478 93.6958 121.26 93.078C120.883 92.9732 120.494 92.8551 120.106 92.7267L119.656 92.5782L120.015 92.2681C121.075 91.3353 122.247 90.539 123.506 89.8981C121.49 90.2344 119.526 90.8307 117.664 91.6721L117.552 91.7226L117.44 91.6708C113.299 89.7435 109.776 86.7036 107.262 82.8903C104.749 79.0769 103.344 74.6402 103.206 70.0751C103.067 65.51 104.2 60.9962 106.477 57.0374C108.754 53.0785 112.087 49.8304 116.103 47.6553Z" fill="black"/>
</g>
</g>
<defs>
<clipPath id="clip0_137_275">
<rect width="209" height="176.338" fill="white"/>
</clipPath>
</defs>
</svg>
