<svg width="137" height="168" viewBox="0 0 137 168" fill="none" xmlns="http://www.w3.org/2000/svg">
<path opacity="0.6" d="M20.385 166.977C16.8263 166.947 13.3043 166.254 10 164.932V164.932L6 162.432L4 160.432L3 158.932L1 155.432L0.25 151.932L0 147.932V143.932V134.932V126.432V117.932V102.432V89.9319V44.9319V22.4319V11.1618V-3.05176e-05C18.0179 12.9895 32.06 32.9859 40.0638 56.4627C43.8027 67.4276 47.5227 80.7357 56.9732 83.9888C64.7516 86.6504 72.5863 80.9404 79.8949 76.7774C87.2223 72.6144 97.2364 70.4987 102.328 78.0968C111.365 91.6096 92.5206 114.176 101.464 127.78C107.1 136.357 118.599 132.83 126.809 137.403C135.715 142.385 138.627 156.899 134.944 167.932L20.385 166.977Z" fill="url(#paint0_radial_371_166)"/>
<defs>
<radialGradient id="paint0_radial_371_166" cx="0" cy="0" r="1" gradientUnits="userSpaceOnUse" gradientTransform="translate(11.0946 151.325) rotate(180) scale(160.078 193.822)">
<stop stop-color="#FF7800"/>
<stop offset="0.0001" stop-color="#FF7800"/>
<stop offset="0.869792" stop-color="#FF9C45"/>
</radialGradient>
</defs>
</svg>
