<svg width="137" height="168" viewBox="0 0 137 168" fill="none" xmlns="http://www.w3.org/2000/svg">
<path opacity="0.6" d="M18.5 168H18C8.05887 168 0 159.941 0 150V148.111V144.133V135.183V126.73V118.277V102.863V90.4329V45.6826V23.3074V12.0999V1C18.0839 13.9175 32.1775 33.8029 40.2106 57.1494C43.9631 68.0535 47.6968 81.2877 57.1819 84.5227C64.9887 87.1695 72.8521 81.4913 80.1875 77.3514C87.5418 73.2114 97.5926 71.1075 102.703 78.6635C111.773 92.1013 92.8595 114.543 101.835 128.071C107.493 136.6 119.033 133.093 127.274 137.641C136.212 142.595 139.135 157.028 135.439 168H18.5Z" fill="url(#paint0_radial_384_171)"/>
<path opacity="0.58" d="M0 149.946C2.62233e-06 139.132 0 0 0 0C3.99958 3.00892 12.4041 10.5223 15.9983 15.0446C23.9681 25.0985 21.76 41.0336 30.6479 50.2195C35.8438 55.5897 43.7746 56.8615 51.1193 57.0028C58.464 57.124 66.0431 56.4376 72.9972 58.9612C86.1044 63.7257 93.41 80.987 87.9015 94.1702C85.3425 100.287 80.6739 105.153 77.1383 110.705C73.6027 116.277 71.1805 123.423 73.7785 129.52C79.0526 141.896 98.9381 139.393 105.931 150.819C109.076 155.947 108.412 162.67 105.443 168H52.9944H18C8.05887 168 -2.41061e-06 159.888 0 149.946V149.946Z" fill="#6E4E3B"/>
<defs>
<radialGradient id="paint0_radial_384_171" cx="0" cy="0" r="1" gradientUnits="userSpaceOnUse" gradientTransform="translate(10.8843 150.491) rotate(180) scale(160.664 192.746)">
<stop stop-color="#FF7800"/>
<stop offset="0.0001" stop-color="#FF7800"/>
<stop offset="0.869792" stop-color="#FF9C45"/>
</radialGradient>
</defs>
</svg>
