<svg width="109" height="161" viewBox="0 0 109 161" fill="none" xmlns="http://www.w3.org/2000/svg">
<path opacity="0.58" d="M0 143.002C2.62261e-06 132.22 0.0114746 0.0020752 0.0114746 0.0020752C5.67688 -0.0985689 13.3618 3.39349 16.9564 7.90234C24.9271 17.9265 21.7623 34.412 30.6511 43.5706C35.8477 48.9249 43.7792 50.193 51.1247 50.3339C58.4702 50.4546 66.0501 49.7703 73.0049 52.2864C86.1135 57.0368 93.4199 74.2469 87.9108 87.391C85.3516 93.4901 80.6825 98.3411 77.1465 103.877C73.6105 109.432 71.1881 116.558 73.7863 122.637C79.061 134.976 98.9486 132.48 105.942 143.872C109.088 148.985 108.423 155.688 105.454 161.002H53H18C8.05887 161.002 -2.41804e-06 152.943 0 143.002V143.002Z" fill="#6E4E3B"/>
</svg>
