<svg width="26" height="27" viewBox="0 0 26 27" fill="none" xmlns="http://www.w3.org/2000/svg">
<path d="M7.12451 18.7398L4.72362 16.9396C5.43551 18.7372 5.97316 19.6285 7.23321 20.9651C8.43752 21.999 9.2017 22.4881 10.6825 23.2418L11.0126 24.0009L10.8918 25.0241L12.7923 26.2667L12.4615 24.0768L11.5506 23.6807C9.04202 18.3644 9.58279 14.4766 9.96546 10.8264C9.40707 17.7332 10.0477 18.5594 11.5401 22.7265C13.9665 19.9662 14.5062 17.9708 14.5212 13.8949L12.9195 15.4966C14.3662 12.3752 14.5647 10.4607 14.4357 6.9163L12.9687 7.82321C13.8845 5.17035 13.6291 3.79428 12.7279 1.4044C11.9307 2.56811 11.6961 2.8839 10.6785 3.91762C9.88903 4.71963 9.10528 5.3614 8.48006 5.99458C7.64236 7.01601 6.94538 7.80635 7.04047 9.67477L6.42151 8.42656C3.80947 13.3069 4.78254 15.323 7.12451 18.7398Z" fill="#D9D9D9" fill-opacity="0.5" stroke="black" stroke-width="0.5"/>
</svg>
