<svg width="20" height="27" viewBox="0 0 20 27" fill="none" xmlns="http://www.w3.org/2000/svg">
<path d="M4.12451 18.7398L1.72362 16.9396C2.43551 18.7372 2.97316 19.6285 4.23321 20.9651C5.43752 21.999 6.2017 22.4881 7.68254 23.2418L8.01262 24.0009L7.89181 25.0241L9.79226 26.2667L9.46149 24.0768L8.55056 23.6807C6.04202 18.3644 6.58279 14.4766 6.96546 10.8264C6.40707 17.7332 7.0477 18.5594 8.54015 22.7265C10.9665 19.9662 11.5062 17.9708 11.5212 13.8949L9.91953 15.4966C11.3662 12.3752 11.5647 10.4607 11.4357 6.9163L9.96868 7.82321C10.8845 5.17035 10.6291 3.79428 9.72792 1.4044C8.93071 2.56811 8.69609 2.8839 7.67852 3.91762C6.88903 4.71963 6.10528 5.3614 5.48006 5.99458C4.64236 7.01601 3.94538 7.80635 4.04047 9.67477L3.42151 8.42656C0.809474 13.3069 1.78254 15.323 4.12451 18.7398Z" fill="#D9D9D9" fill-opacity="0.5" stroke="black" stroke-width="0.5"/>
</svg>
