<svg width="25" height="24" viewBox="0 0 25 24" fill="none" xmlns="http://www.w3.org/2000/svg">
<path d="M8.3335 12H8.3435M12.8335 12H12.8435M17.3335 12H17.3435M12.8335 21C17.8041 21 21.8335 16.9706 21.8335 12C21.8335 7.02944 17.8041 3 12.8335 3C7.86293 3 3.8335 7.02944 3.8335 12C3.8335 13.1971 4.06723 14.3397 4.49156 15.3845C4.57277 15.5845 4.61338 15.6845 4.63149 15.7653C4.64921 15.8443 4.65569 15.9028 4.6557 15.9839C4.65571 16.0667 4.64068 16.1569 4.6106 16.3374L4.01762 19.8952C3.95553 20.2678 3.92448 20.4541 3.98226 20.5888C4.03283 20.7067 4.12678 20.8007 4.24468 20.8512C4.37939 20.909 4.56568 20.878 4.93826 20.8159L8.49615 20.2229C8.67658 20.1928 8.7668 20.1778 8.84963 20.1778C8.93065 20.1778 8.98916 20.1843 9.06822 20.202C9.14904 20.2201 9.24902 20.2607 9.44899 20.3419C10.4938 20.7663 11.6364 21 12.8335 21ZM8.8335 12C8.8335 12.2761 8.60964 12.5 8.3335 12.5C8.05735 12.5 7.8335 12.2761 7.8335 12C7.8335 11.7239 8.05735 11.5 8.3335 11.5C8.60964 11.5 8.8335 11.7239 8.8335 12ZM13.3335 12C13.3335 12.2761 13.1096 12.5 12.8335 12.5C12.5574 12.5 12.3335 12.2761 12.3335 12C12.3335 11.7239 12.5574 11.5 12.8335 11.5C13.1096 11.5 13.3335 11.7239 13.3335 12ZM17.8335 12C17.8335 12.2761 17.6096 12.5 17.3335 12.5C17.0574 12.5 16.8335 12.2761 16.8335 12C16.8335 11.7239 17.0574 11.5 17.3335 11.5C17.6096 11.5 17.8335 11.7239 17.8335 12Z" stroke="#712910" stroke-width="2" stroke-linecap="round" stroke-linejoin="round"/>
</svg>
