<svg width="26" height="27" viewBox="0 0 26 27" fill="none" xmlns="http://www.w3.org/2000/svg">
<path d="M13 25.5001C19.6274 25.5001 25 20.1275 25 13.5001C25 6.87271 19.6274 1.50012 13 1.50012C6.37258 1.50012 1 6.87271 1 13.5001C1 20.1275 6.37258 25.5001 13 25.5001Z" fill="#F0D9D2"/>
<path d="M16.2665 9.01928C16.8528 8.82386 17.1459 8.72615 17.3408 8.79566C17.5105 8.85615 17.644 8.98964 17.7045 9.15928C17.774 9.35421 17.6763 9.64734 17.4808 10.2336L15.6958 15.5888C15.6401 15.7557 15.6123 15.8392 15.5649 15.9085C15.5229 15.9699 15.4698 16.023 15.4084 16.065C15.3391 16.1124 15.2556 16.1403 15.0886 16.1959L9.73347 17.981C9.14722 18.1764 8.85409 18.2741 8.65916 18.2046C8.48952 18.1441 8.35603 18.0106 8.29554 17.841C8.22603 17.646 8.32374 17.3529 8.51916 16.7667L10.3042 11.4115C10.3599 11.2445 10.3877 11.161 10.4351 11.0917C10.4771 11.0303 10.5302 10.9772 10.5916 10.9352C10.6609 10.8878 10.7444 10.86 10.9114 10.8043L16.2665 9.01928Z" fill="#F0D9D2"/>
<path d="M13 25.5001C19.6274 25.5001 25 20.1275 25 13.5001C25 6.87271 19.6274 1.50012 13 1.50012C6.37258 1.50012 1 6.87271 1 13.5001C1 20.1275 6.37258 25.5001 13 25.5001Z" stroke="url(#paint0_linear_471_179)" stroke-width="2" stroke-linecap="round" stroke-linejoin="round"/>
<path d="M16.2665 9.01928C16.8528 8.82386 17.1459 8.72615 17.3408 8.79566C17.5105 8.85615 17.644 8.98964 17.7045 9.15928C17.774 9.35421 17.6763 9.64734 17.4808 10.2336L15.6958 15.5888C15.6401 15.7557 15.6123 15.8392 15.5649 15.9085C15.5229 15.9699 15.4698 16.023 15.4084 16.065C15.3391 16.1124 15.2556 16.1403 15.0886 16.1959L9.73347 17.981C9.14722 18.1764 8.85409 18.2741 8.65916 18.2046C8.48952 18.1441 8.35603 18.0106 8.29554 17.841C8.22603 17.646 8.32374 17.3529 8.51916 16.7667L10.3042 11.4115C10.3599 11.2445 10.3877 11.161 10.4351 11.0917C10.4771 11.0303 10.5302 10.9772 10.5916 10.9352C10.6609 10.8878 10.7444 10.86 10.9114 10.8043L16.2665 9.01928Z" stroke="url(#paint1_linear_471_179)" stroke-width="2" stroke-linecap="round" stroke-linejoin="round"/>
<defs>
<linearGradient id="paint0_linear_471_179" x1="13" y1="1.50012" x2="13" y2="25.5001" gradientUnits="userSpaceOnUse">
<stop offset="1" stop-color="#787878"/>
</linearGradient>
<linearGradient id="paint1_linear_471_179" x1="13" y1="1.50012" x2="13" y2="25.5001" gradientUnits="userSpaceOnUse">
<stop offset="1" stop-color="#787878"/>
</linearGradient>
</defs>
</svg>
