<svg width="24" height="25" viewBox="0 0 24 25" fill="none" xmlns="http://www.w3.org/2000/svg">
<path d="M12 22.5C17.5228 22.5 22 18.0228 22 12.5C22 6.97715 17.5228 2.5 12 2.5C6.47715 2.5 2 6.97715 2 12.5C2 18.0228 6.47715 22.5 12 22.5Z" stroke="url(#paint0_linear_73_775)" stroke-opacity="0.55" stroke-width="2" stroke-linecap="round" stroke-linejoin="round"/>
<path d="M14.7221 8.76596C15.2107 8.60312 15.4549 8.52169 15.6174 8.57962C15.7587 8.63003 15.87 8.74127 15.9204 8.88263C15.9783 9.04507 15.8969 9.28935 15.734 9.77789L14.2465 14.2405C14.2001 14.3797 14.1769 14.4492 14.1374 14.507C14.1024 14.5582 14.0582 14.6024 14.007 14.6374C13.9492 14.6769 13.8797 14.7001 13.7405 14.7465L9.27789 16.234C8.78935 16.3969 8.54507 16.4783 8.38263 16.4204C8.24127 16.37 8.13003 16.2587 8.07962 16.1174C8.02169 15.9549 8.10312 15.7107 8.26596 15.2221L9.75351 10.7595C9.79989 10.6203 9.82308 10.5508 9.8626 10.493C9.8976 10.4418 9.94182 10.3976 9.99299 10.3626C10.0508 10.3231 10.1203 10.2999 10.2595 10.2535L14.7221 8.76596Z" stroke="url(#paint1_linear_73_775)" stroke-opacity="0.55" stroke-width="2" stroke-linecap="round" stroke-linejoin="round"/>
<defs>
<linearGradient id="paint0_linear_73_775" x1="12" y1="2.5" x2="12" y2="22.5" gradientUnits="userSpaceOnUse">
<stop offset="1" stop-color="#787878" stop-opacity="0.77"/>
</linearGradient>
<linearGradient id="paint1_linear_73_775" x1="12" y1="2.5" x2="12" y2="22.5" gradientUnits="userSpaceOnUse">
<stop offset="1" stop-color="#787878" stop-opacity="0.77"/>
</linearGradient>
</defs>
</svg>
