<svg width="26" height="24" viewBox="0 0 26 24" fill="none" xmlns="http://www.w3.org/2000/svg">
<path d="M2.51595 10.7785L1.91555 6.91885C0.830317 9.22436 0.47678 10.5372 0.400264 12.9228C0.570597 14.9791 0.845579 16.1305 1.57247 18.1834L1.14361 19.1841L0 20.0132L0.657577 22.9008L2.51595 20.585L2.00132 19.3842C4.80798 12.1953 9.23467 9.1203 13.2659 6.11832C5.80383 11.9507 5.61832 13.2984 2.9448 18.4979C8.12931 18.1912 10.6633 16.8538 14.7526 13.1229H11.5505C16.1167 11.5843 18.2288 10.0077 21.6429 6.63295L19.2699 6.11832C22.8371 4.52246 23.9573 3.0236 25.4454 0C23.4853 0.336707 22.9351 0.411282 20.8846 0.426114C19.2938 0.437622 17.8688 0.307186 16.611 0.314493C14.7526 0.483295 13.2659 0.569066 11.4933 2.37299L12.1223 0.657577C4.63302 2.7415 3.59039 5.48776 2.51595 10.7785Z" fill="#A4634D"/>
<path d="M0.657593 22.9008L2.23006 20.9281L5.03191 21.3542L7.119 21.6973L7.97671 21.8402C8.36301 21.8613 8.55252 21.8439 8.86301 21.783L8.08419 21.1922C8.05075 21.1668 8.02011 21.138 7.9928 21.1061L7.6248 20.6768C7.5567 20.5973 7.51927 20.4961 7.51927 20.3915C7.51927 20.2037 7.59958 20.0248 7.73996 19.9L7.75627 19.8855C7.93466 19.727 8.16661 19.6421 8.40522 19.648L16.0678 19.8389C16.0678 19.8389 14.4667 18.8382 14.724 18.4951C14.9813 18.1521 25.3777 18.9959 22.472 18.8096C19.5663 18.6233 15.2672 18.5523 15.2101 18.6667C15.1864 18.714 15.5125 18.8788 15.906 19.1205C16.9697 19.7737 16.5062 20.6202 15.2582 20.5972C12.7233 20.5507 8.62084 20.2812 8.86301 20.3821C9.20609 20.5251 11.3106 21.7469 11.5505 23.0124C11.7904 24.2779 0.657593 22.9008 0.657593 22.9008Z" fill="#E0E0E0"/>
</svg>
