<svg width="27" height="37" viewBox="0 0 27 37" fill="none" xmlns="http://www.w3.org/2000/svg">
<path d="M3.5521 21.0564L1.54471 16.9117C1.11585 19.8852 1.16979 21.4872 1.90585 24.2034C2.80672 26.4631 3.51365 27.6665 5.04085 29.7305L4.90225 31.0066L3.89866 32.3356L5.63544 35.3647L6.93244 32.113L5.93829 30.9366C6.62468 21.8637 10.5557 16.8708 14.0661 12.0966C7.66319 21.2447 7.91856 22.8281 6.69653 29.6121C12.4362 27.4791 14.8322 25.0977 18.1568 19.4817L14.5465 20.5855C19.1645 17.2767 21.0023 14.771 23.6883 9.78923L20.8354 10.027C24.3072 6.99804 25.0536 4.92196 25.6891 0.999967C23.5952 2.05526 23.0006 2.32899 20.6939 3.05251C18.9042 3.61386 17.2526 3.95798 15.8369 4.39982C13.7998 5.23073 12.1532 5.8399 10.7764 8.48482L10.8943 6.33391C3.16865 11.2651 2.93975 14.7208 3.5521 21.0564Z" fill="#F0D9D2" stroke="#787878"/>
</svg>
