<svg width="21" height="22" viewBox="0 0 21 22" fill="none" xmlns="http://www.w3.org/2000/svg">
<path fill-rule="evenodd" clip-rule="evenodd" d="M10.5956 0.595459C5.07354 0.595459 0.595703 5.41519 0.595703 11.3613C0.595703 16.1181 3.46098 20.1534 7.43426 21.5771C7.93386 21.677 8.11733 21.3436 8.11733 21.0592C8.11733 20.8025 8.10806 19.9545 8.10375 19.0549C5.32177 19.7061 4.73474 17.7846 4.73474 17.7846C4.27985 16.5403 3.62443 16.2094 3.62443 16.2094C2.71697 15.5412 3.69282 15.5551 3.69282 15.5551C4.69682 15.6309 5.22572 16.6645 5.22572 16.6645C6.11762 18.31 7.56508 17.8344 8.13572 17.5595C8.22547 16.8637 8.48462 16.3885 8.7706 16.1197C6.54949 15.8478 4.21444 14.9245 4.21444 10.7994C4.21444 9.62397 4.60524 8.66359 5.24493 7.90948C5.14094 7.6385 4.79866 6.54351 5.34164 5.0606C5.34164 5.0606 6.1812 4.77126 8.09216 6.16414C8.89 5.92543 9.74562 5.80544 10.5956 5.80134C11.4451 5.80544 12.3012 5.92507 13.1006 6.16378C15.0092 4.7709 15.8478 5.06024 15.8478 5.06024C16.3921 6.54298 16.0498 7.63814 15.946 7.90912C16.5872 8.66323 16.9751 9.62362 16.9751 10.799C16.9751 14.934 14.6358 15.8443 12.409 16.111C12.7679 16.4451 13.0875 17.1004 13.0875 18.1046C13.0875 19.5451 13.0759 20.7045 13.0759 21.0591C13.0759 21.3456 13.2561 21.6812 13.7628 21.5755C17.7337 20.1504 20.5957 16.1163 20.5957 11.3613C20.5955 5.41555 16.1182 0.595459 10.5956 0.595459Z" fill="#181616" fill-opacity="0.9"/>
<path d="M4.38322 16.0528C4.3612 16.1063 4.28304 16.1224 4.21183 16.0858C4.13897 16.0509 4.0984 15.978 4.12192 15.9243C4.14344 15.869 4.22177 15.8539 4.29413 15.8908C4.367 15.9259 4.40839 15.9995 4.38306 16.053L4.38322 16.0528ZM4.78827 16.5394C4.74074 16.587 4.64751 16.5649 4.58426 16.4894C4.51868 16.4146 4.50643 16.3142 4.55495 16.2659C4.60429 16.2185 4.69471 16.2409 4.76028 16.3158C4.82553 16.3918 4.83844 16.4912 4.78843 16.5395L4.78827 16.5394ZM5.18271 17.1592C5.12144 17.2052 5.02109 17.1623 4.95916 17.0665C4.89789 16.9706 4.89789 16.8556 4.96082 16.8098C5.02258 16.7638 5.12144 16.8054 5.18437 16.9002C5.24531 16.9974 5.24531 17.1125 5.18271 17.1592ZM5.72272 17.7584C5.66807 17.8235 5.55116 17.806 5.46572 17.7174C5.37845 17.6306 5.3541 17.5071 5.40892 17.4422C5.46456 17.3769 5.58196 17.3951 5.66791 17.4832C5.75517 17.5698 5.7815 17.6935 5.72305 17.7583L5.72272 17.7584ZM6.46789 18.1062C6.44355 18.1906 6.33128 18.2289 6.21785 18.1929C6.10474 18.156 6.03072 18.0574 6.05391 17.9722C6.07709 17.8871 6.19019 17.8474 6.30429 17.8857C6.41739 17.9224 6.49141 18.0205 6.46789 18.1062ZM7.28643 18.1706C7.28924 18.2594 7.1932 18.3328 7.07447 18.3346C6.95474 18.3377 6.85787 18.2656 6.85671 18.1783C6.85671 18.0886 6.95077 18.016 7.07033 18.0135C7.18906 18.0112 7.28659 18.0825 7.28659 18.1704L7.28643 18.1706ZM8.04783 18.0312C8.06207 18.1177 7.97944 18.2066 7.86137 18.2303C7.74545 18.2535 7.63782 18.1997 7.62291 18.1139C7.60867 18.0251 7.69279 17.9362 7.80871 17.9132C7.92695 17.8912 8.03293 17.9433 8.04783 18.0312Z" fill="#181616"/>
</svg>
