<svg width="20" height="21" viewBox="0 0 20 21" fill="none" xmlns="http://www.w3.org/2000/svg">
<path fill-rule="evenodd" clip-rule="evenodd" d="M9.99992 0.404297C4.47784 0.404297 0 4.99452 0 10.6575C0 15.1878 2.86528 19.0309 6.83855 20.3868C7.33815 20.4819 7.52163 20.1644 7.52163 19.8936C7.52163 19.6491 7.51236 18.8414 7.50805 17.9847C4.72607 18.6049 4.13903 16.7749 4.13903 16.7749C3.68415 15.5898 3.02872 15.2747 3.02872 15.2747C2.12126 14.6383 3.09711 14.6516 3.09711 14.6516C4.10111 14.7237 4.63002 15.7082 4.63002 15.7082C5.52191 17.2753 6.96937 16.8223 7.54001 16.5605C7.62976 15.8978 7.88892 15.4453 8.1749 15.1893C5.95378 14.9304 3.61874 14.051 3.61874 10.1223C3.61874 9.00288 4.00954 8.08823 4.64923 7.37003C4.54524 7.11195 4.20295 6.06911 4.74594 4.65681C4.74594 4.65681 5.5855 4.38125 7.49646 5.7078C8.29429 5.48046 9.14992 5.36619 9.99992 5.36228C10.8494 5.36619 11.7055 5.48012 12.5049 5.70746C14.4135 4.38091 15.2521 4.65647 15.2521 4.65647C15.7964 6.0686 15.4541 7.11161 15.3503 7.36969C15.9915 8.08789 16.3794 9.00254 16.3794 10.122C16.3794 14.06 14.0401 14.927 11.8133 15.181C12.1722 15.4992 12.4918 16.1233 12.4918 17.0797C12.4918 18.4516 12.4802 19.5557 12.4802 19.8934C12.4802 20.1663 12.6604 20.486 13.1671 20.3853C17.138 19.028 20 15.1861 20 10.6575C19.9998 4.99486 15.5225 0.404297 9.99992 0.404297Z" fill="#181616" fill-opacity="0.9"/>
<path d="M3.78752 15.1252C3.7655 15.1762 3.68734 15.1914 3.61613 15.1566C3.54327 15.1234 3.5027 15.0539 3.52621 15.0028C3.54774 14.9502 3.62607 14.9357 3.69843 14.9709C3.77129 15.0043 3.81269 15.0745 3.78736 15.1254L3.78752 15.1252ZM4.19257 15.5886C4.14504 15.6339 4.05181 15.6129 3.98855 15.541C3.92298 15.4697 3.91072 15.3741 3.95924 15.3281C4.00859 15.283 4.099 15.3044 4.16458 15.3757C4.22982 15.448 4.24274 15.5427 4.19273 15.5887L4.19257 15.5886ZM4.58701 16.1789C4.52574 16.2227 4.42539 16.1818 4.36346 16.0906C4.30219 15.9993 4.30219 15.8898 4.36511 15.8461C4.42688 15.8023 4.52574 15.8419 4.58867 15.9322C4.64961 16.0248 4.64961 16.1344 4.58701 16.1789ZM5.12702 16.7496C5.07237 16.8116 4.95546 16.7949 4.87001 16.7105C4.78274 16.6278 4.7584 16.5102 4.81321 16.4484C4.86885 16.3862 4.98626 16.4036 5.0722 16.4874C5.15947 16.57 5.1858 16.6878 5.12735 16.7494L5.12702 16.7496ZM5.87219 17.0808C5.84785 17.1612 5.73557 17.1977 5.62214 17.1634C5.50904 17.1282 5.43502 17.0343 5.4582 16.9532C5.48139 16.8722 5.59449 16.8343 5.70858 16.8708C5.82168 16.9058 5.8957 16.9992 5.87219 17.0808ZM6.69072 17.1421C6.69354 17.2267 6.59749 17.2966 6.47876 17.2983C6.35904 17.3012 6.26216 17.2326 6.26101 17.1494C6.26101 17.064 6.35506 16.9949 6.47462 16.9926C6.59335 16.9903 6.69089 17.0583 6.69089 17.142L6.69072 17.1421ZM7.45213 17.0094C7.46637 17.0917 7.38374 17.1764 7.26567 17.199C7.14975 17.2211 7.04211 17.1698 7.02721 17.0881C7.01297 17.0036 7.09709 16.9189 7.21301 16.897C7.33124 16.8761 7.43722 16.9257 7.45213 17.0094Z" fill="#181616"/>
</svg>
