<svg width="26" height="27" viewBox="0 0 26 27" fill="none" xmlns="http://www.w3.org/2000/svg">
<path d="M14.3097 2.4039C13.8413 2.05382 13.6071 1.87878 13.3485 1.81149C13.1203 1.75213 12.8797 1.75213 12.6515 1.81149C12.3929 1.87878 12.1587 2.05382 11.6903 2.4039L2.64719 9.16214C2.04269 9.6139 1.74045 9.83978 1.5227 10.1227C1.32982 10.3732 1.18614 10.6555 1.0987 10.9557C1 11.2945 1 11.6624 1 12.3982V21.6673C1 23.1023 1 23.8198 1.29065 24.3679C1.54631 24.8501 1.95426 25.242 2.45603 25.4877C3.02646 25.767 3.77319 25.767 5.26667 25.767H7.93333C8.3067 25.767 8.49339 25.767 8.63599 25.6972C8.76144 25.6357 8.86342 25.5377 8.92734 25.4172C9 25.2802 9 25.1008 9 24.742V16.2864C9 15.5689 9 15.2102 9.14532 14.9361C9.27316 14.6951 9.47713 14.4991 9.72801 14.3762C10.0132 14.2366 10.3866 14.2366 11.1333 14.2366H14.8667C15.6134 14.2366 15.9868 14.2366 16.272 14.3762C16.5229 14.4991 16.7268 14.6951 16.8547 14.9361C17 15.2102 17 15.5689 17 16.2864V24.742C17 25.1008 17 25.2802 17.0727 25.4172C17.1366 25.5377 17.2386 25.6357 17.364 25.6972C17.5066 25.767 17.6933 25.767 18.0667 25.767H20.7333C22.2268 25.767 22.9735 25.767 23.544 25.4877C24.0457 25.242 24.4537 24.8501 24.7094 24.3679C25 23.8198 25 23.1023 25 21.6673V12.3982C25 11.6624 25 11.2945 24.9013 10.9557C24.8139 10.6555 24.6702 10.3732 24.4773 10.1227C24.2596 9.83978 23.9573 9.6139 23.3528 9.16214L14.3097 2.4039Z" fill="#F0D9D2" stroke="#787878" stroke-width="2" stroke-linecap="round" stroke-linejoin="round"/>
</svg>
