<svg width="45" height="45" viewBox="0 0 45 45" fill="none" xmlns="http://www.w3.org/2000/svg">
<circle cx="22.5" cy="22.5" r="22.5" fill="#FD696B"/>
<path d="M23.5416 17.2917L22.3796 14.9676C22.0451 14.2988 21.8779 13.9643 21.6284 13.72C21.4078 13.5039 21.1419 13.3396 20.85 13.2389C20.5199 13.125 20.146 13.125 19.3981 13.125H15.4166C14.2498 13.125 13.6664 13.125 13.2208 13.3521C12.8288 13.5518 12.5101 13.8705 12.3103 14.2625C12.0833 14.7082 12.0833 15.2916 12.0833 16.4583V17.2917M12.0833 17.2917H27.9166C29.6667 17.2917 30.5418 17.2917 31.2103 17.6323C31.7983 17.9319 32.2764 18.4099 32.576 18.9979C32.9166 19.6664 32.9166 20.5415 32.9166 22.2917V26.875C32.9166 28.6252 32.9166 29.5002 32.576 30.1687C32.2764 30.7567 31.7983 31.2348 31.2103 31.5344C30.5418 31.875 29.6667 31.875 27.9166 31.875H17.0833C15.3331 31.875 14.458 31.875 13.7895 31.5344C13.2015 31.2348 12.7235 30.7567 12.4239 30.1687C12.0833 29.5002 12.0833 28.6252 12.0833 26.875V17.2917ZM19.3749 24.5833H25.6249" stroke="white" stroke-width="2" stroke-linecap="round" stroke-linejoin="round"/>
</svg>
