<svg width="22" height="26" viewBox="0 0 22 26" fill="none" xmlns="http://www.w3.org/2000/svg">
<path d="M1 6.76C1 4.74381 1 3.73572 1.39238 2.96563C1.73752 2.28825 2.28825 1.73752 2.96563 1.39238C3.73572 1 4.74381 1 6.76 1H13L20.2 8.2V19.24C20.2 21.2562 20.2 22.2643 19.8076 23.0344C19.4625 23.7117 18.9118 24.2625 18.2344 24.6076C17.4643 25 16.4562 25 14.44 25H6.76C4.74381 25 3.73572 25 2.96563 24.6076C2.28825 24.2625 1.73752 23.7117 1.39238 23.0344C1 22.2643 1 21.2562 1 19.24V6.76Z" fill="#F0D9D2"/>
<path d="M8.2 9.4H5.8Z" fill="#F0D9D2"/>
<path d="M13 1.32344V6.28009C13 6.95215 13 7.28818 13.1308 7.54487C13.2458 7.77067 13.4294 7.95425 13.6552 8.06929C13.9119 8.20009 14.2479 8.20009 14.92 8.20009H19.8766M15.4 14.2H5.8M15.4 19H5.8M8.2 9.4H5.8M13 1H6.76C4.74381 1 3.73572 1 2.96563 1.39238C2.28825 1.73752 1.73752 2.28825 1.39238 2.96563C1 3.73572 1 4.74381 1 6.76V19.24C1 21.2562 1 22.2643 1.39238 23.0344C1.73752 23.7117 2.28825 24.2625 2.96563 24.6076C3.73572 25 4.74381 25 6.76 25H14.44C16.4562 25 17.4643 25 18.2344 24.6076C18.9118 24.2625 19.4625 23.7117 19.8076 23.0344C20.2 22.2643 20.2 21.2562 20.2 19.24V8.2L13 1Z" stroke="#787878" stroke-width="2" stroke-linecap="round" stroke-linejoin="round"/>
</svg>
