<svg width="25" height="26" viewBox="0 0 25 26" fill="none" xmlns="http://www.w3.org/2000/svg">
<path d="M12.143 17C7.91626 17 4.15743 19.0408 1.76436 22.208C1.2493 22.8896 0.991776 23.2304 1.0002 23.691C1.00671 24.0469 1.23018 24.4959 1.51019 24.7156C1.87261 25 2.37486 25 3.37934 25H20.9067C21.9112 25 22.4135 25 22.7759 24.7156C23.0559 24.4959 23.2794 24.0469 23.2859 23.691C23.2943 23.2304 23.0368 22.8896 22.5217 22.208C20.1286 19.0408 16.3698 17 12.143 17Z" fill="#F0D9D2"/>
<path d="M12.143 13C15.4567 13 18.143 10.3137 18.143 7C18.143 3.68629 15.4567 1 12.143 1C8.82932 1 6.14303 3.68629 6.14303 7C6.14303 10.3137 8.82932 13 12.143 13Z" fill="#F0D9D2"/>
<path d="M12.143 17C7.91626 17 4.15743 19.0408 1.76436 22.208C1.2493 22.8896 0.991776 23.2304 1.0002 23.691C1.00671 24.0469 1.23018 24.4959 1.51019 24.7156C1.87261 25 2.37486 25 3.37934 25H20.9067C21.9112 25 22.4135 25 22.7759 24.7156C23.0559 24.4959 23.2794 24.0469 23.2859 23.691C23.2943 23.2304 23.0368 22.8896 22.5217 22.208C20.1286 19.0408 16.3698 17 12.143 17Z" stroke="#787878" stroke-width="2" stroke-linecap="round" stroke-linejoin="round"/>
<path d="M12.143 13C15.4567 13 18.143 10.3137 18.143 7C18.143 3.68629 15.4567 1 12.143 1C8.82932 1 6.14303 3.68629 6.14303 7C6.14303 10.3137 8.82932 13 12.143 13Z" stroke="#787878" stroke-width="2" stroke-linecap="round" stroke-linejoin="round"/>
</svg>
