<svg width="45" height="45" viewBox="0 0 45 45" fill="none" xmlns="http://www.w3.org/2000/svg">
<circle cx="22.5" cy="22.5" r="22.5" fill="#3577FE"/>
<path d="M22.4999 25.625C19.1978 25.625 16.2612 27.2194 14.3916 29.6937C13.9892 30.2263 13.788 30.4925 13.7946 30.8524C13.7997 31.1304 13.9743 31.4811 14.193 31.6528C14.4762 31.875 14.8685 31.875 15.6533 31.875H29.3466C30.1313 31.875 30.5237 31.875 30.8068 31.6528C31.0256 31.4811 31.2002 31.1304 31.2053 30.8524C31.2118 30.4925 31.0107 30.2263 30.6083 29.6937C28.7387 27.2194 25.8021 25.625 22.4999 25.625Z" stroke="white" stroke-width="2" stroke-linecap="round" stroke-linejoin="round"/>
<path d="M22.4999 22.5C25.0888 22.5 27.1874 20.4013 27.1874 17.8125C27.1874 15.2237 25.0888 13.125 22.4999 13.125C19.9111 13.125 17.8124 15.2237 17.8124 17.8125C17.8124 20.4013 19.9111 22.5 22.4999 22.5Z" stroke="white" stroke-width="2" stroke-linecap="round" stroke-linejoin="round"/>
</svg>
