<svg width="22" height="22" viewBox="0 0 22 22" fill="none" xmlns="http://www.w3.org/2000/svg">
<path d="M8.08221 13.2099H6.5646C5.15264 13.2099 4.44667 13.2098 3.8722 13.3725C2.57878 13.7388 1.56662 14.6836 1.17426 15.891C1 16.4272 1 17.0863 1 18.4043M13.6468 5.6543C13.6468 8.00151 11.6084 9.90429 9.09396 9.90429C6.57949 9.90429 4.54111 8.00151 4.54111 5.6543C4.54111 3.30709 6.57949 1.4043 9.09396 1.4043C11.6084 1.4043 13.6468 3.30709 13.6468 5.6543ZM10.1057 18.4043L13.2435 17.5674C13.3937 17.5273 13.4689 17.5073 13.5389 17.4773C13.6012 17.4506 13.6603 17.4181 13.7155 17.3803C13.7777 17.3377 13.8329 17.2861 13.9434 17.183L20.4761 11.0849C21.1746 10.4329 21.1746 9.37573 20.4761 8.72371C19.7776 8.07172 18.6452 8.07173 17.9467 8.72373L11.4141 14.8219C11.3036 14.925 11.2483 14.9766 11.2027 15.0346C11.1622 15.0861 11.1274 15.1413 11.0988 15.1994C11.0666 15.2648 11.0451 15.335 11.0022 15.4752L10.1057 18.4043Z" stroke="black" stroke-linecap="round" stroke-linejoin="round"/>
</svg>
