<svg width="22" height="19" viewBox="0 0 22 19" fill="none" xmlns="http://www.w3.org/2000/svg">
<path d="M7.67792 13.2098H6.1603C4.74835 13.2098 4.04237 13.2098 3.4679 13.3725C2.17449 13.7388 1.16232 14.6836 0.769966 15.891C0.595703 16.4272 0.595703 17.0863 0.595703 18.4043M13.2425 5.6543C13.2425 8.00151 11.2041 9.9043 8.68966 9.9043C6.17519 9.9043 4.13681 8.00151 4.13681 5.6543C4.13681 3.30709 6.17519 1.4043 8.68966 1.4043C11.2041 1.4043 13.2425 3.30709 13.2425 5.6543ZM9.70141 18.4043L12.8392 17.5674C12.9894 17.5273 13.0646 17.5073 13.1346 17.4773C13.1969 17.4506 13.256 17.4181 13.3112 17.3803C13.3734 17.3377 13.4286 17.2861 13.5391 17.183L20.0718 11.0849C20.7703 10.4329 20.7703 9.37573 20.0718 8.72371C19.3733 8.07172 18.2409 8.07173 17.5424 8.72373L11.0098 14.8219C10.8993 14.925 10.844 14.9766 10.7984 15.0346C10.7579 15.0861 10.7231 15.1413 10.6945 15.1994C10.6623 15.2648 10.6408 15.335 10.5979 15.4752L9.70141 18.4043Z" stroke="black" stroke-linecap="round" stroke-linejoin="round"/>
</svg>
