<svg width="45" height="45" viewBox="0 0 45 45" fill="none" xmlns="http://www.w3.org/2000/svg">
<circle cx="22.5" cy="22.5" r="22.5" fill="#32D79D"/>
<path d="M19.3751 21.9792L21.4584 24.0625L26.1459 19.375M30.8334 22.5C30.8334 27.613 25.2564 31.3317 23.2272 32.5155C22.9965 32.65 22.8812 32.7173 22.7185 32.7522C22.5922 32.7793 22.408 32.7793 22.2817 32.7522C22.1189 32.7173 22.0036 32.65 21.773 32.5155C19.7438 31.3317 14.1667 27.613 14.1667 22.5V17.5183C14.1667 16.6855 14.1667 16.2691 14.303 15.9112C14.4233 15.5949 14.6188 15.3128 14.8726 15.0891C15.16 14.8359 15.5499 14.6897 16.3297 14.3972L21.9149 12.3028C22.1314 12.2216 22.2397 12.181 22.3511 12.1649C22.4499 12.1506 22.5503 12.1506 22.6491 12.1649C22.7605 12.181 22.8687 12.2216 23.0853 12.3028L28.6705 14.3972C29.4503 14.6897 29.8402 14.8359 30.1275 15.0891C30.3814 15.3128 30.5769 15.5949 30.6972 15.9112C30.8334 16.2691 30.8334 16.6855 30.8334 17.5183V22.5Z" stroke="white" stroke-width="2" stroke-linecap="round" stroke-linejoin="round"/>
</svg>
