<svg width="17" height="19" viewBox="0 0 17 19" fill="none" xmlns="http://www.w3.org/2000/svg">
<path d="M5.75404 10.8539L11.4457 14.1705M11.4374 5.02054L5.75404 8.33721M16.0957 3.76221C16.0957 5.14292 14.9764 6.26221 13.5957 6.26221C12.215 6.26221 11.0957 5.14292 11.0957 3.76221C11.0957 2.3815 12.215 1.26221 13.5957 1.26221C14.9764 1.26221 16.0957 2.3815 16.0957 3.76221ZM6.0957 9.59554C6.0957 10.9763 4.97641 12.0955 3.5957 12.0955C2.21499 12.0955 1.0957 10.9763 1.0957 9.59554C1.0957 8.21483 2.21499 7.09554 3.5957 7.09554C4.97641 7.09554 6.0957 8.21483 6.0957 9.59554ZM16.0957 15.4289C16.0957 16.8096 14.9764 17.9289 13.5957 17.9289C12.215 17.9289 11.0957 16.8096 11.0957 15.4289C11.0957 14.0482 12.215 12.9289 13.5957 12.9289C14.9764 12.9289 16.0957 14.0482 16.0957 15.4289Z" stroke="black" stroke-linecap="round" stroke-linejoin="round"/>
</svg>
