<svg width="20" height="21" viewBox="0 0 20 21" fill="none" xmlns="http://www.w3.org/2000/svg">
<path d="M7.15833 11.6627L12.85 14.9794M12.8417 5.82938L7.15833 9.14605M17.5 4.57105C17.5 5.95176 16.3807 7.07105 15 7.07105C13.6193 7.07105 12.5 5.95176 12.5 4.57105C12.5 3.19033 13.6193 2.07104 15 2.07104C16.3807 2.07104 17.5 3.19033 17.5 4.57105ZM7.5 10.4044C7.5 11.7851 6.38071 12.9044 5 12.9044C3.61929 12.9044 2.5 11.7851 2.5 10.4044C2.5 9.02367 3.61929 7.90438 5 7.90438C6.38071 7.90438 7.5 9.02367 7.5 10.4044ZM17.5 16.2377C17.5 17.6184 16.3807 18.7377 15 18.7377C13.6193 18.7377 12.5 17.6184 12.5 16.2377C12.5 14.857 13.6193 13.7377 15 13.7377C16.3807 13.7377 17.5 14.857 17.5 16.2377Z" stroke="black" stroke-linecap="round" stroke-linejoin="round"/>
</svg>
