<svg width="27" height="37" viewBox="0 0 27 37" fill="none" xmlns="http://www.w3.org/2000/svg">
<path d="M3.5521 21.0568L1.54471 16.912C1.11585 19.8856 1.16979 21.4876 1.90585 24.2037C2.80672 26.4635 3.51365 27.6669 5.04085 29.7309L4.90225 31.0069L3.89866 32.336L5.63544 35.365L6.93244 32.1134L5.93829 30.9369C6.62468 21.8641 10.5557 16.8712 14.0661 12.0969C7.66319 21.2451 7.91856 22.8285 6.69653 29.6124C12.4362 27.4795 14.8322 25.0981 18.1568 19.482L14.5465 20.5858C19.1645 17.277 21.0023 14.7714 23.6883 9.78959L20.8354 10.0273C24.3072 6.99841 25.0536 4.92233 25.6891 1.00033C23.5952 2.05563 23.0006 2.32936 20.6939 3.05288C18.9042 3.61423 17.2526 3.95835 15.8369 4.40018C13.7998 5.23109 12.1532 5.84027 10.7764 8.48519L10.8943 6.33427C3.16865 11.2654 2.93975 14.7212 3.5521 21.0568Z" fill="#712910" stroke="#F0D9D2"/>
</svg>
