<svg width="150" height="150" viewBox="0 0 150 150" fill="none" xmlns="http://www.w3.org/2000/svg">
<path d="M33.2268 121.49C37.0289 112.533 45.9058 106.25 56.25 106.25H93.75C104.094 106.25 112.971 112.533 116.773 121.49M100 59.375C100 73.1821 88.8071 84.375 75 84.375C61.1929 84.375 50 73.1821 50 59.375C50 45.5679 61.1929 34.375 75 34.375C88.8071 34.375 100 45.5679 100 59.375ZM137.5 75C137.5 109.518 109.518 137.5 75 137.5C40.4822 137.5 12.5 109.518 12.5 75C12.5 40.4822 40.4822 12.5 75 12.5C109.518 12.5 137.5 40.4822 137.5 75Z" stroke="#985555" stroke-width="6" stroke-linecap="round" stroke-linejoin="round"/>
<circle cx="74.5" cy="59.5" r="22.5" fill="#985555"/>
<path d="M36 120.5L37 121L55.5 135.5L90.5 134.5L116.5 120.5L101 109L54.5 108.5L49 110L43.5 112.5L36 120.5Z" fill="#985555"/>
</svg>
