<svg width="100" height="100" viewBox="0 0 100 100" fill="none" xmlns="http://www.w3.org/2000/svg">
<path d="M27.1007 68.7143L18.0089 62.0703C20.4964 68.9823 22.4519 72.3792 27.159 77.3982C31.698 81.2428 34.6057 83.0293 40.2722 85.7324L41.4379 88.6465L40.7968 92.6679L48.0236 97.2138L47.0911 88.7047L43.5942 87.306C34.661 66.93 37.4165 51.638 39.5146 37.3008C36.1926 64.4015 38.5615 67.5268 43.7108 83.576C53.6541 72.3822 56.0934 64.4904 56.8241 48.5491L50.2966 55.0765C56.4684 42.6318 57.5599 35.1124 57.64 21.2735L51.7536 25.0618C55.7722 14.5369 55.0003 9.19792 51.8702 0.000918273C48.5609 4.68298 47.5914 5.95652 43.4418 10.1666C40.2223 13.433 37.0517 16.0718 34.5024 18.6509C31.0582 22.7832 28.2025 25.9887 28.2663 33.2794L26.0517 28.5004C15.0329 48.0152 18.5057 55.7389 27.1007 68.7143Z" fill="#A4634D" fill-opacity="0.25"/>
<path d="M48.6946 96.8005L47.8786 89.5737L54.4587 84.7306L59.4126 81.1755L61.4524 79.7184C62.2829 78.9739 62.6336 78.5521 63.1426 77.7952L60.3506 78.1784C60.2307 78.1948 60.1094 78.1985 59.9887 78.1892L58.3634 78.0642C58.0626 78.041 57.78 77.911 57.5667 77.6977C57.1838 77.3149 56.983 76.7865 57.0148 76.246L57.0185 76.1832C57.0589 75.4963 57.3586 74.8504 57.8571 74.3761L73.8663 59.1452C73.8663 59.1452 68.5627 60.3691 68.3879 59.1452C68.213 57.9213 91.1261 38.4487 84.8232 43.9921C78.5202 49.5355 69.6118 58.1544 69.7283 58.5041C69.8185 58.7745 73.2398 57.39 75.6869 57.5698C76.9317 57.6613 77.1841 58.8418 76.3353 59.7569C72.3612 64.0406 59.4504 75.2838 60.2868 74.9394C61.2776 74.5314 68.0583 72.7322 71.1271 74.8228C74.1959 76.9135 48.6946 96.8005 48.6946 96.8005Z" fill="#E0E0E0" fill-opacity="0.25"/>
</svg>
