<svg width="290" height="283" viewBox="0 0 290 283" fill="none" xmlns="http://www.w3.org/2000/svg">
<g clip-path="url(#clip0_82_199)">
<path d="M184.104 63.6456H105.961C104.181 63.6477 102.474 64.3559 101.214 65.6147C99.9552 66.8735 99.2469 68.5803 99.2447 70.3605V243.986L98.3491 244.259L79.1796 250.128C78.2711 250.405 77.2898 250.31 76.4511 249.865C75.6125 249.419 74.9849 248.659 74.7063 247.751L17.6856 61.546C17.4081 60.6378 17.5027 59.6565 17.9486 58.8179C18.3944 57.9794 19.1551 57.3521 20.0634 57.0739L49.6036 48.0311L135.242 21.825L164.782 12.7823C165.232 12.6439 165.704 12.5956 166.172 12.64C166.641 12.6844 167.095 12.8207 167.511 13.0411C167.926 13.2615 168.294 13.5616 168.594 13.9243C168.893 14.287 169.118 14.7052 169.256 15.1549L183.831 62.7503L184.104 63.6456Z" fill="#F2F2F2"/>
<path d="M201.156 62.7507L183.589 5.38735C183.297 4.43157 182.819 3.54273 182.183 2.77162C181.547 2.00051 180.766 1.36225 179.883 0.893305C179 0.42436 178.033 0.133919 177.038 0.0385902C176.043 -0.0567388 175.039 0.044912 174.083 0.337723L132.551 13.0468L46.9174 39.2574L5.38556 51.971C3.45621 52.5633 1.84074 53.8967 0.893741 55.6785C-0.0532565 57.4603 -0.254412 59.545 0.334436 61.4749L60.3731 257.519C60.8515 259.077 61.8167 260.441 63.1271 261.41C64.4375 262.379 66.0241 262.903 67.6542 262.905C68.4086 262.905 69.1588 262.792 69.8795 262.569L98.3495 253.857L99.2451 253.58V252.644L98.3495 252.917L69.6154 261.714C67.9124 262.233 66.073 262.055 64.5007 261.22C62.9285 260.385 61.7516 258.961 61.2284 257.26L1.19436 61.2108C0.935136 60.3678 0.844789 59.482 0.928491 58.604C1.01219 57.7261 1.26829 56.8733 1.68214 56.0944C2.09599 55.3156 2.65946 54.626 3.34027 54.0651C4.02107 53.5043 4.80585 53.0832 5.64966 52.8261L47.1815 40.1125L132.815 13.9064L174.347 1.19277C174.987 0.997495 175.653 0.897931 176.322 0.897307C177.758 0.900531 179.155 1.36339 180.309 2.2181C181.463 3.0728 182.313 4.27444 182.734 5.647L200.22 62.7507L200.498 63.6461H201.429L201.156 62.7507Z" fill="#3F3D56"/>
<path d="M54.9345 57.2205C54.0715 57.2199 53.2313 56.9428 52.5374 56.4299C51.8434 55.9169 51.3321 55.1951 51.0785 54.3704L45.3109 35.5365C45.1559 35.0306 45.1022 34.4991 45.1527 33.9724C45.2032 33.4457 45.3569 32.9341 45.6052 32.4669C45.8535 31.9996 46.1915 31.5858 46.5998 31.2491C47.008 30.9124 47.4786 30.6595 47.9847 30.5047L126.767 6.39191C127.789 6.08012 128.893 6.18646 129.837 6.68757C130.78 7.18868 131.487 8.04362 131.8 9.06476L137.568 27.8989C137.88 28.9206 137.773 30.0242 137.272 30.9676C136.771 31.911 135.916 32.617 134.895 32.9309L56.1119 57.0437C55.7304 57.1607 55.3336 57.2203 54.9345 57.2205Z" fill="#A4634D"/>
<path d="M85.1475 20.1242C90.0936 20.1242 94.1032 16.1157 94.1032 11.171C94.1032 6.22627 90.0936 2.21777 85.1475 2.21777C80.2015 2.21777 76.1919 6.22627 76.1919 11.171C76.1919 16.1157 80.2015 20.1242 85.1475 20.1242Z" fill="#A4634D"/>
<path d="M85.1476 16.8409C88.2796 16.8409 90.8185 14.3026 90.8185 11.1714C90.8185 8.04026 88.2796 5.50195 85.1476 5.50195C82.0155 5.50195 79.4766 8.04026 79.4766 11.1714C79.4766 14.3026 82.0155 16.8409 85.1476 16.8409Z" fill="white"/>
<path d="M269.85 260.617H118.5C117.49 260.616 116.523 260.214 115.809 259.501C115.096 258.788 114.695 257.821 114.693 256.812V75.5087C114.694 74.4999 115.096 73.5327 115.809 72.8194C116.523 72.106 117.49 71.7047 118.5 71.7036H269.85C270.859 71.7048 271.826 72.106 272.54 72.8194C273.253 73.5327 273.655 74.4999 273.656 75.5087V256.812C273.655 257.821 273.253 258.788 272.54 259.501C271.826 260.214 270.859 260.616 269.85 260.617Z" fill="#E6E6E6"/>
<path d="M200.22 62.7505H105.961C103.943 62.7533 102.009 63.5561 100.582 64.9826C99.1549 66.4092 98.352 68.3433 98.3491 70.3607V252.917L99.2447 252.644V70.3607C99.2469 68.5805 99.9552 66.8738 101.214 65.615C102.474 64.3561 104.181 63.648 105.961 63.6458H200.497L200.22 62.7505ZM282.388 62.7505H105.961C103.943 62.7533 102.009 63.5561 100.582 64.9826C99.1549 66.4092 98.352 68.3433 98.3491 70.3607V275.39C98.352 277.407 99.1549 279.341 100.582 280.768C102.009 282.194 103.943 282.997 105.961 283H282.388C284.406 282.997 286.34 282.194 287.767 280.768C289.194 279.341 289.997 277.407 290 275.39V70.3607C289.997 68.3433 289.194 66.4092 287.767 64.9826C286.34 63.5561 284.406 62.7533 282.388 62.7505ZM289.104 275.39C289.102 277.17 288.394 278.877 287.135 280.136C285.876 281.394 284.168 282.103 282.388 282.105H105.961C104.181 282.103 102.474 281.394 101.214 280.136C99.9552 278.877 99.2469 277.17 99.2447 275.39V70.3607C99.2469 68.5805 99.9552 66.8738 101.214 65.615C102.474 64.3561 104.181 63.648 105.961 63.6458H282.388C284.168 63.648 285.876 64.3561 287.135 65.615C288.394 66.8738 289.102 68.5805 289.104 70.3607V275.39Z" fill="#3F3D56"/>
<path d="M235.371 82.4474H152.979C151.91 82.4462 150.886 82.0213 150.13 81.266C149.375 80.5107 148.95 79.4866 148.949 78.4185V58.7213C148.95 57.6532 149.375 56.6291 150.13 55.8738C150.886 55.1185 151.91 54.6936 152.979 54.6924H235.371C236.439 54.6936 237.464 55.1185 238.219 55.8738C238.975 56.6291 239.4 57.6532 239.401 58.7213V78.4185C239.4 79.4866 238.975 80.5107 238.219 81.266C237.464 82.0213 236.439 82.4462 235.371 82.4474Z" fill="#A4634D"/>
<path d="M194.174 56.0354C199.12 56.0354 203.13 52.0269 203.13 47.0821C203.13 42.1374 199.12 38.1289 194.174 38.1289C189.228 38.1289 185.219 42.1374 185.219 47.0821C185.219 52.0269 189.228 56.0354 194.174 56.0354Z" fill="#A4634D"/>
<path d="M194.175 52.5356C197.187 52.5356 199.629 50.0941 199.629 47.0823C199.629 44.0705 197.187 41.6289 194.175 41.6289C191.162 41.6289 188.72 44.0705 188.72 47.0823C188.72 50.0941 191.162 52.5356 194.175 52.5356Z" fill="white"/>
</g>
<defs>
<clipPath id="clip0_82_199">
<rect width="290" height="283" fill="white"/>
</clipPath>
</defs>
</svg>
