<svg width="261" height="136" viewBox="0 0 261 136" fill="none" xmlns="http://www.w3.org/2000/svg">
<g clip-path="url(#clip0_137_249)">
<path d="M243.208 132.861C242.872 133.732 242.452 134.568 241.956 135.358C241.818 135.576 241.674 135.791 241.52 136H228.73C228.64 135.933 228.553 135.862 228.463 135.795C228.014 135.759 227.568 135.714 227.131 135.666C227.176 135.628 227.224 135.589 227.269 135.551C227.038 135.57 226.807 135.589 226.576 135.599C226.759 135.621 226.945 135.644 227.131 135.666C226.993 135.779 226.852 135.891 226.707 136H226.149L226.524 135.599C226.226 135.608 225.93 135.615 225.632 135.608L226.566 135.358L227.574 135.089C227.613 135.121 227.654 135.153 227.693 135.185C229.413 133.674 230.812 131.832 231.806 129.769C232.801 127.706 233.37 125.465 233.48 123.178C233.59 120.891 233.239 118.606 232.448 116.457C231.657 114.308 230.441 112.341 228.874 110.671C231.397 112.363 233.557 114.54 235.23 117.075C236.903 119.61 238.054 122.452 238.618 125.436C238.907 126.895 238.951 128.391 238.746 129.864C238.858 129.739 238.971 129.614 239.08 129.486C240.706 127.517 241.878 125.214 242.513 122.741C243.148 120.267 243.229 117.685 242.753 115.177C243.998 117.947 244.679 120.937 244.757 123.973C244.836 127.009 244.309 130.031 243.208 132.861Z" fill="#E6E6E6"/>
<path d="M179.407 25.5326C184.386 25.5326 188.422 21.498 188.422 16.5211C188.422 11.5442 184.386 7.50958 179.407 7.50958C174.428 7.50958 170.392 11.5442 170.392 16.5211C170.392 21.498 174.428 25.5326 179.407 25.5326Z" fill="#2F2E41"/>
<path d="M208.642 132.244L204.706 132.243L202.833 117.069L208.642 117.069L208.642 132.244Z" fill="#FFB8B8"/>
<path d="M201.894 131.119H209.485V135.897H197.115C197.115 135.269 197.239 134.648 197.479 134.068C197.719 133.489 198.071 132.962 198.515 132.519C198.959 132.075 199.486 131.723 200.066 131.483C200.645 131.243 201.267 131.119 201.894 131.119Z" fill="#2F2E41"/>
<path d="M168.493 131.729L164.693 130.704L166.836 115.565L172.445 117.077L168.493 131.729Z" fill="#FFB8B8"/>
<path d="M162.271 128.888L169.6 130.863L168.356 135.475L156.412 132.256C156.742 131.033 157.545 129.991 158.644 129.359C159.742 128.727 161.047 128.558 162.271 128.888Z" fill="#2F2E41"/>
<path d="M175.951 62.0292L164.231 128.414L170.241 129.616L189.173 82.7557L203.297 129.315L210.509 128.414C210.509 128.414 207.204 61.7288 196.686 56.0215L175.951 62.0292Z" fill="#2F2E41"/>
<path d="M157.365 85.7771C157.787 85.5669 158.158 85.2667 158.452 84.8975C158.746 84.5284 158.956 84.0994 159.066 83.6406C159.176 83.1819 159.184 82.7046 159.089 82.2424C158.995 81.7802 158.8 81.3443 158.519 80.9654L164.982 71.4913L159.022 71.3988L153.798 80.4098C153.192 80.9242 152.797 81.6427 152.686 82.4292C152.575 83.2156 152.757 84.0155 153.196 84.6771C153.636 85.3387 154.303 85.816 155.071 86.0188C155.84 86.2215 156.656 86.1355 157.365 85.7771Z" fill="#FFB8B8"/>
<path d="M200.036 74.0621C200.459 73.8519 200.83 73.5517 201.124 73.1826C201.418 72.8135 201.627 72.3844 201.737 71.9257C201.847 71.4669 201.856 70.9896 201.761 70.5274C201.667 70.0652 201.472 69.6293 201.191 69.2504L207.654 59.7763L201.694 59.6838L196.47 68.6948C195.864 69.2092 195.468 69.9277 195.358 70.7142C195.247 71.5007 195.428 72.3005 195.868 72.9621C196.308 73.6237 196.975 74.1011 197.743 74.3038C198.511 74.5066 199.327 74.4206 200.036 74.0621Z" fill="#FFB8B8"/>
<path d="M179.636 27.3168C183.991 27.3168 187.521 23.788 187.521 19.4351C187.521 15.0821 183.991 11.5533 179.636 11.5533C175.282 11.5533 171.751 15.0821 171.751 19.4351C171.751 23.788 175.282 27.3168 179.636 27.3168Z" fill="#FFB8B8"/>
<path d="M196.686 31.6905C196.385 30.4889 191.277 30.7893 191.277 30.7893C191.277 30.7893 185.524 29.4673 185.579 29.6326C180.731 29.2597 174.818 31.0788 173.957 31.3547C172.195 31.8406 168.828 33.3271 166.4 34.4204C166.062 34.5726 165.798 34.852 165.665 35.1979C165.532 35.5437 165.541 35.9281 165.69 36.2673L173.096 53.1679L174.148 64.1319L198.489 56.6223C192.479 54.2192 196.986 32.892 196.686 31.6905Z" fill="#A4634D"/>
<path d="M194.582 31.9908L196.58 31.4893L207.504 53.0177L208.105 65.3336L201.193 59.9267V55.1205L193.981 45.8086L194.582 31.9908Z" fill="#A4634D"/>
<path d="M168.288 33.6429L165.975 34.6706C165.854 34.7241 165.749 34.8064 165.668 34.9103C165.587 35.0141 165.532 35.1363 165.51 35.2661L160.926 61.4284L156.418 74.6453L162.428 77.6491L169.34 61.128L171.744 49.1127L168.288 33.6429Z" fill="#A4634D"/>
<path d="M171.367 15.7195C172.968 15.1943 174.656 16.0177 176.219 16.6446C177.76 17.2624 179.406 17.7076 181.063 17.6103C182.721 17.513 184.397 16.8134 185.399 15.4903C186.4 14.1672 186.577 12.1843 185.585 10.8536C184.932 9.97755 183.89 9.47773 182.847 9.15227C180.618 8.45687 178.124 8.43285 176.005 9.41391C173.886 10.395 172.225 12.4675 172.05 14.795" fill="#2F2E41"/>
<path d="M179.167 9.44143C178.629 5.80365 180.623 2.02664 183.343 0.671725C186.064 -0.683194 189.256 0.116084 191.707 2.13373C194.158 4.15137 195.945 7.25189 197.275 10.5478C198.605 13.8436 199.525 17.3738 200.609 20.8111C201.571 23.8639 202.701 26.9185 204.529 29.2533C206.356 31.5881 209.014 33.1074 211.561 32.4659C209.469 35.2779 205.62 34.791 203.232 32.3857C200.844 29.9805 199.602 26.2211 198.625 22.5617C197.648 18.9023 196.798 15.0734 194.907 12.0409C191.545 6.64609 184.945 5.0253 180.233 8.43673" fill="#2F2E41"/>
<path d="M261 135.358H0V136H261V135.358Z" fill="#3F3D56"/>
<path d="M136.933 73.7794H23.0233C22.1112 73.7784 21.2367 73.4158 20.5918 72.7711C19.9468 72.1264 19.584 71.2523 19.583 70.3405V43.2119C19.584 42.3001 19.9468 41.426 20.5918 40.7813C21.2367 40.1366 22.1112 39.774 23.0233 39.773H136.933C137.846 39.774 138.72 40.1366 139.365 40.7813C140.01 41.426 140.373 42.3001 140.374 43.2119V70.3405C140.373 71.2523 140.01 72.1264 139.365 72.7711C138.72 73.4158 137.846 73.7784 136.933 73.7794ZM23.0233 40.5372C22.3139 40.5381 21.6338 40.8201 21.1322 41.3215C20.6306 41.8229 20.3484 42.5028 20.3475 43.2119V70.3405C20.3484 71.0496 20.6306 71.7294 21.1322 72.2309C21.6338 72.7323 22.3139 73.0143 23.0233 73.0152H136.933C137.643 73.0143 138.323 72.7323 138.825 72.2309C139.326 71.7294 139.608 71.0496 139.609 70.3405V43.2119C139.608 42.5028 139.326 41.8229 138.825 41.3215C138.323 40.8201 137.643 40.5381 136.933 40.5372H23.0233Z" fill="#3F3D56"/>
<path d="M131.391 68.048H28.5659C28.5156 68.0482 28.4658 68.0384 28.4193 68.0192C28.3728 68.0001 28.3305 67.972 28.2949 67.9365C28.2593 67.901 28.231 67.8588 28.2117 67.8124C28.1925 67.766 28.1825 67.7162 28.1825 67.6659C28.1825 67.6156 28.1925 67.5659 28.2117 67.5194C28.231 67.473 28.2593 67.4308 28.2949 67.3953C28.3305 67.3598 28.3728 67.3317 28.4193 67.3126C28.4658 67.2934 28.5156 67.2837 28.5659 67.2838H131.391C131.441 67.2837 131.491 67.2934 131.538 67.3126C131.584 67.3317 131.626 67.3598 131.662 67.3953C131.698 67.4308 131.726 67.473 131.745 67.5194C131.764 67.5659 131.774 67.6156 131.774 67.6659C131.774 67.7162 131.764 67.766 131.745 67.8124C131.726 67.8588 131.698 67.901 131.662 67.9365C131.626 67.972 131.584 68.0001 131.538 68.0192C131.491 68.0384 131.441 68.0482 131.391 68.048Z" fill="#E6E6E6"/>
<path d="M68.1287 88.6811C69.8176 88.6811 71.1867 87.3125 71.1867 85.6243C71.1867 83.9361 69.8176 82.5676 68.1287 82.5676C66.4398 82.5676 65.0707 83.9361 65.0707 85.6243C65.0707 87.3125 66.4398 88.6811 68.1287 88.6811Z" fill="#E6E6E6"/>
<path d="M79.9784 88.6811C81.6673 88.6811 83.0364 87.3125 83.0364 85.6243C83.0364 83.9361 81.6673 82.5676 79.9784 82.5676C78.2895 82.5676 76.9204 83.9361 76.9204 85.6243C76.9204 87.3125 78.2895 88.6811 79.9784 88.6811Z" fill="#A4634D"/>
<path d="M91.8281 88.6811C93.517 88.6811 94.8861 87.3125 94.8861 85.6243C94.8861 83.9361 93.517 82.5676 91.8281 82.5676C90.1392 82.5676 88.7701 83.9361 88.7701 85.6243C88.7701 87.3125 90.1392 88.6811 91.8281 88.6811Z" fill="#E6E6E6"/>
<path d="M41.2448 64.6212C41.3696 64.6168 41.4879 64.5642 41.5747 64.4744C41.6615 64.3846 41.71 64.2647 41.71 64.1398C41.71 64.0149 41.6615 63.895 41.5747 63.8052C41.4879 63.7154 41.3696 63.6628 41.2448 63.6584C41.12 63.6628 41.0017 63.7154 40.9149 63.8052C40.8282 63.895 40.7797 64.0149 40.7797 64.1398C40.7797 64.2647 40.8282 64.3846 40.9149 64.4744C41.0017 64.5642 41.12 64.6168 41.2448 64.6212Z" fill="#3F3D56"/>
<path d="M44.3028 64.6212C44.4276 64.6168 44.5459 64.5642 44.6327 64.4744C44.7195 64.3846 44.768 64.2647 44.768 64.1398C44.768 64.0149 44.7195 63.895 44.6327 63.8052C44.5459 63.7154 44.4276 63.6628 44.3028 63.6584C44.178 63.6628 44.0597 63.7154 43.9729 63.8052C43.8861 63.895 43.8376 64.0149 43.8376 64.1398C43.8376 64.2647 43.8861 64.3846 43.9729 64.4744C44.0597 64.5642 44.178 64.6168 44.3028 64.6212Z" fill="#3F3D56"/>
<path d="M47.3608 64.6212C47.4856 64.6168 47.6039 64.5642 47.6907 64.4744C47.7775 64.3846 47.826 64.2647 47.826 64.1398C47.826 64.0149 47.7775 63.895 47.6907 63.8052C47.6039 63.7154 47.4856 63.6628 47.3608 63.6584C47.236 63.6628 47.1177 63.7154 47.0309 63.8052C46.9441 63.895 46.8956 64.0149 46.8956 64.1398C46.8956 64.2647 46.9441 64.3846 47.0309 64.4744C47.1177 64.5642 47.236 64.6168 47.3608 64.6212Z" fill="#3F3D56"/>
<path d="M37.3934 66.1029C36.6195 66.1029 35.9909 65.8498 35.5077 65.3437C35.0244 64.8376 34.7828 64.16 34.7828 63.311V63.1347C34.7828 62.5698 34.8905 62.0653 35.106 61.6212C35.3215 61.1771 35.6219 60.8294 36.0073 60.578C36.3958 60.3265 36.8171 60.2008 37.2709 60.2008C38.0122 60.2008 38.5868 60.4457 38.995 60.9355C39.4064 61.422 39.6122 62.1192 39.6122 63.0269V63.4335H35.7575C35.7705 63.9951 35.9338 64.449 36.2473 64.7951C36.5607 65.138 36.9591 65.3094 37.4424 65.3094C37.7885 65.3094 38.0807 65.2392 38.3191 65.0988C38.5575 64.9584 38.7664 64.7722 38.946 64.5404L39.5387 65.0057C39.0619 65.7371 38.3468 66.1029 37.3934 66.1029ZM37.2709 60.9992C36.8791 60.9992 36.5493 61.1429 36.2815 61.4302C36.0138 61.7176 35.8489 62.1176 35.7868 62.6302H38.6375V62.5567C38.6113 62.0637 38.4791 61.6816 38.2407 61.4106C38.0024 61.1363 37.6791 60.9992 37.2709 60.9992Z" fill="#A4634D"/>
</g>
<defs>
<clipPath id="clip0_137_249">
<rect width="261" height="136" fill="white"/>
</clipPath>
</defs>
</svg>
