<svg width="257" height="258" viewBox="0 0 257 258" fill="none" xmlns="http://www.w3.org/2000/svg">
<g clip-path="url(#clip0_137_362)">
<path d="M24.7146 217.342L22.4512 208.408C18.438 206.705 14.3321 205.231 10.1531 203.991L9.86737 208.144L8.70873 203.569C3.52593 202.086 0 201.434 0 201.434C0 201.434 4.7615 219.561 14.7517 233.419L26.3912 235.465L17.3488 236.77C18.6055 238.284 19.9559 239.716 21.3923 241.06C35.9235 254.56 52.1088 260.754 57.5428 254.895C62.9768 249.035 55.602 233.341 41.0708 219.842C36.566 215.657 30.907 212.298 25.2422 209.654L24.7146 217.342Z" fill="#F2F2F2"/>
<path d="M46.2401 207.637L48.9169 198.818C46.3608 195.285 43.6077 191.898 40.6705 188.675L38.2815 192.082L39.652 187.566C35.9804 183.617 33.2992 181.234 33.2992 181.234C33.2992 181.234 28.0149 199.215 29.4089 216.247L38.316 224.02L29.8999 220.459C30.1943 222.405 30.6108 224.331 31.1468 226.224C36.6143 245.299 47.2707 258.975 54.9485 256.771C62.6263 254.566 64.4184 237.315 58.9509 218.241C57.2561 212.327 54.1459 206.524 50.6621 201.331L46.2401 207.637Z" fill="#F2F2F2"/>
<path d="M179.333 61.1203H177.921V22.4071C177.921 19.4645 177.342 16.5508 176.217 13.8323C175.092 11.1137 173.443 8.64357 171.364 6.56288C169.285 4.48219 166.818 2.8317 164.101 1.70564C161.385 0.579574 158.474 0 155.534 0H73.5856C67.6482 0 61.954 2.36074 57.7556 6.56288C53.5572 10.765 51.1986 16.4643 51.1986 22.4071V234.795C51.1986 237.737 51.7777 240.651 52.9027 243.37C54.0278 246.088 55.6768 248.558 57.7556 250.639C59.8344 252.72 62.3024 254.37 65.0185 255.496C67.7346 256.622 70.6457 257.202 73.5856 257.202H155.534C161.472 257.202 167.166 254.841 171.364 250.639C175.562 246.437 177.921 240.737 177.921 234.795V88.6772H179.333L179.333 61.1203Z" fill="#E6E6E6"/>
<path d="M156.438 5.82736H145.742C146.233 7.03455 146.421 8.34431 146.288 9.64124C146.155 10.9382 145.706 12.1825 144.979 13.2645C144.252 14.3466 143.271 15.2331 142.122 15.8461C140.972 16.4591 139.689 16.7797 138.387 16.7797H91.4393C90.1368 16.7796 88.8542 16.4589 87.7047 15.8459C86.5552 15.2328 85.5739 14.3463 84.8474 13.2642C84.1208 12.1822 83.6713 10.938 83.5384 9.64107C83.4055 8.34419 83.5932 7.0345 84.0852 5.82736H74.0943C69.6603 5.82736 65.4079 7.59034 62.2726 10.7285C59.1373 13.8666 57.3759 18.1228 57.3759 22.5608V234.64C57.3759 239.078 59.1373 243.334 62.2726 246.472C65.4079 249.611 69.6603 251.373 74.0943 251.373H156.438C160.872 251.373 165.124 249.611 168.259 246.472C171.395 243.334 173.156 239.078 173.156 234.64V22.5604C173.156 18.1225 171.395 13.8664 168.259 10.7283C165.124 7.59029 160.872 5.82736 156.438 5.82736Z" fill="white"/>
<path d="M104.773 90.309C104.773 88.8266 105.163 87.3702 105.904 86.0866C106.644 84.8029 107.71 83.7372 108.993 82.9966C107.711 82.2553 106.256 81.8649 104.775 81.8648C103.294 81.8646 101.839 82.2547 100.556 82.9957C99.2737 83.7368 98.2086 84.8027 97.468 86.0864C96.7275 87.37 96.3376 88.8262 96.3376 90.3085C96.3376 91.7908 96.7275 93.2469 97.468 94.5306C98.2086 95.8143 99.2737 96.8802 100.556 97.6213C101.839 98.3623 103.294 98.7524 104.775 98.7522C106.256 98.752 107.711 98.3617 108.993 97.6203C107.71 96.88 106.644 95.8144 105.904 94.5309C105.163 93.2474 104.773 91.7913 104.773 90.309Z" fill="#CCCCCC"/>
<path d="M115.379 90.309C115.378 88.8266 115.768 87.3702 116.509 86.0865C117.25 84.8029 118.315 83.7371 119.598 82.9966C118.316 82.2553 116.861 81.8649 115.38 81.8648C113.899 81.8646 112.444 82.2547 111.162 82.9957C109.879 83.7368 108.814 84.8027 108.073 86.0864C107.333 87.37 106.943 88.8262 106.943 90.3085C106.943 91.7908 107.333 93.2469 108.073 94.5306C108.814 95.8143 109.879 96.8802 111.162 97.6213C112.444 98.3623 113.899 98.7524 115.38 98.7522C116.861 98.752 118.316 98.3617 119.598 97.6203C118.315 96.88 117.25 95.8144 116.509 94.5309C115.768 93.2474 115.378 91.7913 115.379 90.309Z" fill="#CCCCCC"/>
<path d="M125.743 98.7523C130.402 98.7523 134.179 94.972 134.179 90.3086C134.179 85.6453 130.402 81.8649 125.743 81.8649C121.084 81.8649 117.307 85.6453 117.307 90.3086C117.307 94.972 121.084 98.7523 125.743 98.7523Z" fill="#A4634D"/>
<path d="M139.842 116.682H90.6742C90.2062 116.681 89.7574 116.495 89.4264 116.163C89.0954 115.832 88.9092 115.383 88.9087 114.915V65.7027C88.9092 65.2342 89.0954 64.7851 89.4264 64.4538C89.7574 64.1225 90.2062 63.9362 90.6742 63.9356H139.842C140.31 63.9362 140.759 64.1225 141.09 64.4538C141.421 64.7851 141.607 65.2342 141.608 65.7027V114.915C141.607 115.383 141.421 115.832 141.09 116.163C140.759 116.495 140.31 116.681 139.842 116.682ZM90.6742 64.6429C90.3934 64.6432 90.1241 64.7549 89.9255 64.9537C89.7269 65.1525 89.6153 65.422 89.615 65.7031V114.915C89.6153 115.196 89.7269 115.465 89.9255 115.664C90.1241 115.863 90.3934 115.975 90.6742 115.975H139.842C140.123 115.975 140.392 115.863 140.591 115.664C140.789 115.465 140.901 115.196 140.901 114.915V65.7031C140.901 65.422 140.789 65.1525 140.591 64.9537C140.392 64.7549 140.123 64.6432 139.842 64.6429H90.6742Z" fill="#CCCCCC"/>
<path d="M150.82 154.405H75.412V155.112H150.82V154.405Z" fill="#CCCCCC"/>
<path d="M77.7934 149.991C79.1087 149.991 80.1749 148.924 80.1749 147.608C80.1749 146.291 79.1087 145.224 77.7934 145.224C76.4782 145.224 75.412 146.291 75.412 147.608C75.412 148.924 76.4782 149.991 77.7934 149.991Z" fill="#A4634D"/>
<path d="M150.82 178.239H75.412V178.946H150.82V178.239Z" fill="#CCCCCC"/>
<path d="M77.7934 173.826C79.1087 173.826 80.1749 172.759 80.1749 171.442C80.1749 170.126 79.1087 169.059 77.7934 169.059C76.4782 169.059 75.412 170.126 75.412 171.442C75.412 172.759 76.4782 173.826 77.7934 173.826Z" fill="#A4634D"/>
<path d="M149.44 205.381H125.609C125.198 205.38 124.803 205.216 124.512 204.925C124.221 204.634 124.057 204.239 124.057 203.827V195.467C124.057 195.055 124.221 194.66 124.512 194.368C124.803 194.077 125.198 193.913 125.609 193.913H149.44C149.852 193.913 150.247 194.077 150.538 194.368C150.829 194.66 150.993 195.055 150.993 195.467V203.827C150.993 204.239 150.829 204.634 150.538 204.925C150.247 205.216 149.852 205.38 149.44 205.381Z" fill="#A4634D"/>
<path d="M85.5615 149.991C86.8767 149.991 87.9429 148.924 87.9429 147.608C87.9429 146.291 86.8767 145.224 85.5615 145.224C84.2463 145.224 83.1801 146.291 83.1801 147.608C83.1801 148.924 84.2463 149.991 85.5615 149.991Z" fill="#A4634D"/>
<path d="M93.3297 149.991C94.6449 149.991 95.7111 148.924 95.7111 147.608C95.7111 146.291 94.6449 145.224 93.3297 145.224C92.0145 145.224 90.9482 146.291 90.9482 147.608C90.9482 148.924 92.0145 149.991 93.3297 149.991Z" fill="#A4634D"/>
<path d="M85.5615 173.826C86.8767 173.826 87.9429 172.759 87.9429 171.442C87.9429 170.126 86.8767 169.059 85.5615 169.059C84.2463 169.059 83.1801 170.126 83.1801 171.442C83.1801 172.759 84.2463 173.826 85.5615 173.826Z" fill="#A4634D"/>
<path d="M93.3297 173.826C94.6449 173.826 95.7111 172.759 95.7111 171.442C95.7111 170.126 94.6449 169.059 93.3297 169.059C92.0145 169.059 90.9482 170.126 90.9482 171.442C90.9482 172.759 92.0145 173.826 93.3297 173.826Z" fill="#A4634D"/>
<path d="M256.04 258H8.30853C7.77821 258 7.34863 257.811 7.34863 257.579C7.34863 257.347 7.77821 257.158 8.30853 257.158H256.04C256.57 257.158 257 257.347 257 257.579C257 257.812 256.57 258 256.04 258Z" fill="#3F3D56"/>
<path d="M194.834 169.033C195.003 169.111 195.166 169.202 195.321 169.305L210.797 162.694L211.349 158.614L217.533 158.576L217.167 167.934L196.741 173.341C196.698 173.483 196.647 173.623 196.587 173.758C196.291 174.389 195.817 174.918 195.222 175.28C194.627 175.641 193.938 175.819 193.243 175.79C192.548 175.761 191.876 175.527 191.313 175.118C190.75 174.708 190.321 174.142 190.079 173.489C189.836 172.836 189.792 172.126 189.952 171.448C190.112 170.77 190.468 170.154 190.976 169.678C191.484 169.202 192.121 168.887 192.808 168.772C193.494 168.658 194.199 168.748 194.834 169.033Z" fill="#FFB8B8"/>
<path d="M219.782 253.836H215.551L213.539 237.506L219.782 237.506L219.782 253.836Z" fill="#FFB8B8"/>
<path d="M212.53 252.627H220.688V257.768H207.393C207.393 256.404 207.934 255.097 208.898 254.132C209.861 253.168 211.168 252.627 212.53 252.627Z" fill="#2F2E41"/>
<path d="M236.233 252.64L232.023 253.055L228.421 237.001L234.634 236.388L236.233 252.64Z" fill="#FFB8B8"/>
<path d="M228.898 252.148L237.017 251.347L237.52 256.464L224.29 257.768C224.224 257.096 224.29 256.418 224.486 255.772C224.682 255.126 225.003 254.525 225.431 254.003C225.859 253.481 226.385 253.048 226.98 252.73C227.575 252.412 228.227 252.214 228.898 252.148Z" fill="#2F2E41"/>
<path d="M220.959 141.293C225.639 141.293 229.434 137.495 229.434 132.811C229.434 128.126 225.639 124.329 220.959 124.329C216.279 124.329 212.485 128.126 212.485 132.811C212.485 137.495 216.279 141.293 220.959 141.293Z" fill="#FFB8B8"/>
<path d="M214.606 250.534C214.243 250.535 213.89 250.407 213.612 250.174C213.333 249.94 213.146 249.615 213.083 249.257C210.893 237.092 203.737 197.315 203.565 196.213C203.562 196.188 203.56 196.162 203.56 196.137V193.171C203.56 193.063 203.593 192.958 203.656 192.87L204.602 191.545C204.647 191.481 204.706 191.428 204.774 191.391C204.842 191.353 204.918 191.332 204.996 191.329C210.387 191.076 228.039 190.334 228.892 191.401C229.749 192.473 229.446 195.72 229.377 196.36L229.38 196.427L237.311 247.191C237.373 247.596 237.273 248.009 237.033 248.341C236.794 248.673 236.433 248.897 236.029 248.964L231.076 249.781C230.707 249.84 230.329 249.765 230.011 249.569C229.692 249.373 229.455 249.069 229.342 248.713C227.81 243.813 222.672 227.33 220.892 220.952C220.881 220.911 220.855 220.877 220.82 220.854C220.785 220.831 220.743 220.821 220.702 220.827C220.66 220.833 220.622 220.854 220.595 220.885C220.568 220.917 220.553 220.958 220.554 221C220.643 227.08 220.858 242.592 220.932 247.95L220.94 248.527C220.943 248.917 220.8 249.295 220.538 249.585C220.277 249.875 219.916 250.056 219.528 250.093L214.751 250.528C214.703 250.532 214.654 250.534 214.606 250.534Z" fill="#2F2E41"/>
<path d="M215.581 144.628C214.102 145.508 213.217 147.125 212.709 148.771C211.769 151.817 211.203 154.967 211.024 158.15L210.487 167.682L203.843 192.951C209.601 197.827 212.923 196.719 220.674 192.73C228.426 188.741 229.311 194.06 229.311 194.06L230.861 172.559L233.076 149.065C232.579 148.466 232.016 147.924 231.399 147.45C229.352 145.857 226.97 144.75 224.433 144.212C221.897 143.674 219.271 143.719 216.754 144.344L215.581 144.628Z" fill="#A4634D"/>
<path d="M213.423 174.137C213.602 174.204 213.775 174.285 213.941 174.38L229.242 166.714L229.496 162.561L235.808 162.126L236.147 171.593L215.698 178.361C215.531 179.078 215.15 179.727 214.605 180.222C214.061 180.716 213.379 181.034 212.65 181.131C211.921 181.228 211.18 181.101 210.525 180.767C209.87 180.432 209.332 179.906 208.983 179.258C208.634 178.61 208.491 177.871 208.571 177.14C208.652 176.408 208.954 175.718 209.436 175.162C209.918 174.607 210.557 174.211 211.269 174.027C211.982 173.844 212.733 173.882 213.423 174.137Z" fill="#FFB8B8"/>
<path d="M232.965 149.172C236.73 150.502 237.393 164.911 237.393 164.911C232.964 162.473 227.649 166.463 227.649 166.463C227.649 166.463 226.542 162.694 225.213 157.818C224.812 156.446 224.764 154.995 225.073 153.6C225.383 152.205 226.041 150.911 226.984 149.838C226.984 149.838 229.2 147.841 232.965 149.172Z" fill="#A4634D"/>
<path d="M228.558 135.054C227.502 134.209 226.061 135.745 226.061 135.745L225.216 128.136C225.216 128.136 219.937 128.769 216.558 127.925C213.179 127.081 212.652 130.99 212.652 130.99C212.477 129.411 212.442 127.82 212.546 126.234C212.757 124.332 215.502 122.43 220.359 121.161C225.216 119.893 227.75 125.389 227.75 125.389C231.13 127.079 229.613 135.9 228.558 135.054Z" fill="#2F2E41"/>
</g>
<defs>
<clipPath id="clip0_137_362">
<rect width="257" height="258" fill="white"/>
</clipPath>
</defs>
</svg>
