<svg width="290" height="217" viewBox="0 0 290 217" fill="none" xmlns="http://www.w3.org/2000/svg">
<g clip-path="url(#clip0_226_344)">
<path d="M211.757 205.942H205.987L203.241 183.686H211.757V205.942Z" fill="#9E616A"/>
<path d="M214.802 215.939H210.664L209.926 212.033L208.034 215.939H197.059C196.533 215.939 196.021 215.771 195.597 215.46C195.173 215.148 194.86 214.709 194.704 214.207C194.547 213.704 194.555 213.165 194.727 212.668C194.898 212.171 195.224 211.741 195.657 211.442L204.421 205.389V201.44L213.64 201.99L214.802 215.939Z" fill="#2F2E41"/>
<path d="M246.038 198.66L241.408 202.103L225.923 185.882L232.757 180.8L246.038 198.66Z" fill="#9E616A"/>
<path d="M254.447 204.865L251.127 207.334L248.203 204.64L249.016 208.904L240.209 215.453C239.787 215.767 239.275 215.938 238.749 215.94C238.223 215.943 237.71 215.777 237.285 215.468C236.859 215.158 236.544 214.721 236.385 214.219C236.226 213.718 236.231 213.179 236.4 212.681L239.821 202.594L237.465 199.424L245.19 194.365L254.447 204.865Z" fill="#2F2E41"/>
<path d="M218.475 91.1108C218.475 91.1108 229.423 100.569 224.372 127.534L218.205 153.954L238.317 187.319L231.904 195.121L205.758 159.007L196.284 136.782L193.625 97.2274L218.475 91.1108Z" fill="#2F2E41"/>
<path d="M201.506 143.116L200.847 153.314L202.862 196.772L212.345 195.121L214.157 164.179L201.506 143.116Z" fill="#2F2E41"/>
<path d="M79.8176 211.175L84.9779 211.175L87.4324 191.271L79.8169 191.272L79.8176 211.175Z" fill="#FFB6B6"/>
<path d="M78.5015 209.49L79.9539 209.49L85.6244 207.184L88.6636 209.49H88.664C90.3816 209.49 92.0287 210.172 93.2432 211.386C94.4577 212.601 95.14 214.248 95.1402 215.966V216.176L78.5018 216.177L78.5015 209.49Z" fill="#2F2E41"/>
<path d="M99.8145 207.923L104.848 209.059L111.627 190.186L104.198 188.508L99.8145 207.923Z" fill="#FFB6B6"/>
<path d="M98.9013 205.99L100.318 206.31L106.357 205.309L108.814 208.228L108.814 208.228C110.49 208.606 111.946 209.635 112.863 211.087C113.78 212.539 114.083 214.296 113.705 215.971L113.659 216.177L97.4287 212.512L98.9013 205.99Z" fill="#2F2E41"/>
<path d="M73.2821 89.496C70.8628 96.7926 71.1186 104.713 73.8636 113.214L75.0371 161.074C75.0371 161.074 73.2887 192.461 78.9304 203.505H87.1124L91.1634 158.208L91.6721 127.804L109.213 153.455L98.0408 202.765L108.111 203.665L126.241 150.152L103.872 98.2359L73.2821 89.496Z" fill="#2F2E41"/>
<path d="M167.638 68.7123C173.897 63.0728 183.205 60.2371 191.013 63.3994C183.004 67.8462 176.825 74.9829 173.571 83.5466C172.328 86.8538 171.29 90.6617 168.232 92.4323C166.33 93.5341 163.963 93.5879 161.83 93.0561C159.697 92.5241 157.742 91.4579 155.813 90.4024L155.265 90.39C157.728 82.3338 161.38 74.3517 167.638 68.7123Z" fill="#E6E6E6"/>
<path d="M190.97 63.5706C184.054 64.4643 177.596 67.5142 172.513 72.2872C171.4 73.2953 170.454 74.4725 169.708 75.7754C169.022 77.0681 168.695 78.5208 168.761 79.9826C168.794 81.3468 168.987 82.7383 168.689 84.087C168.526 84.7751 168.219 85.4209 167.789 85.9822C167.359 86.5435 166.815 87.0075 166.193 87.3439C164.665 88.2222 162.912 88.4991 161.189 88.7103C159.275 88.9449 157.284 89.1582 155.628 90.2314C155.427 90.3614 155.237 90.0424 155.438 89.9126C158.319 88.0454 161.966 88.7248 165.064 87.4786C166.51 86.8971 167.789 85.8764 168.242 84.3332C168.638 82.9837 168.441 81.5485 168.395 80.1675C168.31 78.7424 168.575 77.3182 169.167 76.0193C169.845 74.6826 170.745 73.471 171.828 72.4362C174.231 70.0676 176.991 68.0916 180.008 66.5805C183.441 64.8368 187.148 63.6932 190.966 63.1993C191.203 63.1688 191.205 63.5404 190.97 63.5706Z" fill="white"/>
<path d="M174.059 70.654C173.374 69.6924 173.053 68.5187 173.154 67.3423C173.254 66.166 173.77 65.0636 174.608 64.2322C174.778 64.0646 175.047 64.3211 174.876 64.489C174.094 65.2618 173.614 66.2887 173.523 67.3843C173.432 68.4799 173.735 69.5721 174.378 70.4637C174.518 70.6576 174.198 70.8469 174.059 70.654Z" fill="white"/>
<path d="M168.652 79.2931C171.029 79.7141 173.477 79.224 175.508 77.9204C175.709 77.7911 175.899 78.11 175.698 78.2392C173.582 79.5918 171.034 80.0967 168.562 79.6531C168.326 79.6106 168.418 79.2509 168.652 79.2931Z" fill="white"/>
<path d="M183.472 65.3282C183.659 65.7555 183.95 66.1295 184.318 66.4166C184.686 66.7038 185.119 66.8951 185.579 66.9734C185.815 67.0129 185.723 67.3726 185.488 67.3335C184.98 67.2446 184.502 67.0327 184.095 66.7163C183.688 66.4 183.364 65.9887 183.153 65.5185C183.129 65.4759 183.123 65.4258 183.135 65.3785C183.147 65.3312 183.176 65.2903 183.217 65.2639C183.26 65.239 183.31 65.2317 183.358 65.2437C183.405 65.2557 183.446 65.2861 183.472 65.3282Z" fill="white"/>
<path d="M199.612 90.5956C199.464 90.5752 199.316 90.5548 199.165 90.5366C197.173 90.2722 195.163 90.1701 193.154 90.2313C192.999 90.2335 192.841 90.2381 192.686 90.2449C187.849 90.4438 183.09 91.5392 178.652 93.4753C176.887 94.2474 175.183 95.1526 173.555 96.1832C171.307 97.6066 168.983 99.3288 166.469 99.9093C166.208 99.9728 165.943 100.02 165.675 100.051L155.292 91.0602C155.279 91.028 155.263 90.998 155.25 90.9656L154.819 90.6256C154.899 90.5666 154.984 90.5071 155.064 90.4481C155.11 90.4136 155.159 90.3812 155.205 90.3468C155.237 90.3245 155.269 90.3022 155.296 90.2803C155.307 90.2728 155.317 90.2654 155.326 90.2603C155.353 90.2384 155.381 90.2209 155.406 90.2013C155.877 89.8675 156.352 89.5365 156.83 89.2081C156.832 89.2058 156.832 89.2058 156.836 89.2054C160.452 86.6687 164.357 84.57 168.467 82.9531C168.591 82.9065 168.716 82.8575 168.844 82.815C170.695 82.1267 172.6 81.5908 174.538 81.2127C175.6 81.0091 176.672 80.8594 177.749 80.7642C180.533 80.5235 183.338 80.7222 186.06 81.353C191.487 82.6113 196.45 85.5912 199.39 90.2384C199.466 90.3573 199.539 90.4743 199.612 90.5956Z" fill="#E6E6E6"/>
<path d="M199.474 90.7072C193.414 87.2571 186.422 85.8041 179.489 86.5546C177.994 86.6896 176.529 87.0595 175.149 87.6507C173.824 88.27 172.688 89.233 171.86 90.4397C171.066 91.5492 170.382 92.7762 169.331 93.6734C168.787 94.1247 168.153 94.4558 167.472 94.645C166.791 94.8342 166.077 94.8772 165.378 94.7712C163.629 94.5525 162.063 93.7184 160.56 92.8496C158.891 91.8848 157.173 90.8563 155.204 90.7161C154.965 90.6991 155.006 90.3299 155.244 90.3469C158.669 90.591 161.171 93.3288 164.396 94.1993C165.9 94.6055 167.536 94.5608 168.827 93.6012C169.955 92.7622 170.662 91.4975 171.457 90.367C172.247 89.178 173.316 88.2006 174.571 87.5202C175.917 86.8607 177.365 86.435 178.853 86.2613C182.197 85.8168 185.591 85.9009 188.909 86.5106C192.701 87.1854 196.348 88.5038 199.695 90.4086C199.902 90.5266 199.68 90.8244 199.474 90.7072Z" fill="white"/>
<path d="M181.708 86.1816C181.74 85.0014 182.19 83.8709 182.979 82.9922C183.767 82.1135 184.842 81.5436 186.012 81.3845C186.249 81.3531 186.309 81.7196 186.072 81.751C184.982 81.8973 183.981 82.4282 183.248 83.2479C182.515 84.0677 182.1 85.1224 182.077 86.2215C182.071 86.4604 181.702 86.4191 181.708 86.1816Z" fill="white"/>
<path d="M172.189 89.824C173.833 91.591 176.083 92.6734 178.489 92.8555C178.728 92.8733 178.688 93.2424 178.449 93.2246C175.945 93.0305 173.607 91.8993 171.9 90.0568C171.737 89.8811 172.028 89.6493 172.189 89.824Z" fill="white"/>
<path d="M192.429 87.596C192.322 88.05 192.328 88.5237 192.449 88.9744C192.57 89.4252 192.801 89.8388 193.121 90.1783C193.286 90.3519 192.995 90.5835 192.832 90.4111C192.48 90.0344 192.225 89.5772 192.091 89.0795C191.956 88.5818 191.946 88.0587 192.06 87.556C192.067 87.5077 192.092 87.4638 192.13 87.4333C192.168 87.4027 192.216 87.3877 192.264 87.3914C192.313 87.397 192.358 87.4216 192.389 87.4599C192.42 87.4982 192.434 87.5471 192.429 87.596Z" fill="white"/>
<path d="M17.2356 210.813C16.7482 212.642 15.4675 214.165 13.9212 215.274C13.669 215.456 13.4102 215.624 13.148 215.782C13.0673 215.829 12.9867 215.879 12.9026 215.923C12.8119 215.977 12.7211 216.027 12.6303 216.074H5.35935C5.22825 215.809 5.10052 215.54 4.97278 215.274C1.85664 208.726 -0.33171 201.66 0.0414194 194.463C0.189453 191.671 0.775932 188.92 1.77933 186.311C3.77608 181.111 7.41997 176.61 12.432 174.344C12.5564 174.287 12.6875 174.23 12.8152 174.176C12.7749 174.321 12.7345 174.462 12.6942 174.606C12.1565 176.544 11.7765 178.521 11.558 180.519C11.5378 180.674 11.521 180.829 11.5076 180.987C11.03 185.806 11.4541 190.673 12.7581 195.337C12.7614 195.347 12.7648 195.36 12.7682 195.371C13.0539 196.403 13.3856 197.419 13.7632 198.419C14.059 199.209 14.3783 199.989 14.7279 200.756C16.1868 203.973 18.1432 207.401 17.2356 210.813Z" fill="#E6E6E6"/>
<path d="M12.9059 174.327C12.8354 174.422 12.7647 174.512 12.6942 174.606C11.2177 176.563 9.96398 178.678 8.95615 180.913C8.90237 181.024 8.85194 181.135 8.80824 181.249C7.42732 184.369 6.54046 187.685 6.17953 191.078C6.17562 191.101 6.17338 191.125 6.17281 191.148C6.08877 191.942 6.03834 192.742 6.01818 193.542C5.94343 195.041 6.10565 196.544 6.49887 197.993C6.85742 199.176 7.4857 200.26 8.33427 201.159C8.4183 201.25 8.50234 201.341 8.59311 201.428C8.66034 201.499 8.73429 201.569 8.80488 201.636C9.48391 202.285 10.2268 202.887 10.8655 203.583C11.1582 203.895 11.4226 204.232 11.6555 204.591C12.0271 205.193 12.2671 205.866 12.3598 206.567C12.4525 207.268 12.3958 207.981 12.1933 208.659C11.7361 210.36 10.6907 211.795 9.62173 213.163C9.08725 213.849 8.53596 214.541 8.05862 215.274C7.88384 215.536 7.72247 215.802 7.57458 216.074H7.15103C7.29221 215.802 7.44684 215.536 7.61492 215.274C8.84188 213.341 10.5865 211.681 11.4908 209.553C12.1026 208.117 12.2874 206.49 11.5143 205.082C11.2877 204.672 11.0135 204.291 10.6974 203.946C10.0823 203.25 9.34611 202.655 8.67716 202.026C8.50909 201.868 8.34437 201.707 8.18638 201.539C7.34876 200.688 6.70239 199.668 6.29048 198.547C5.824 197.124 5.60346 195.631 5.63834 194.134C5.63834 193.179 5.68877 192.217 5.78289 191.263C5.79297 191.142 5.80642 191.017 5.81987 190.893C6.50731 184.885 8.79037 179.171 12.432 174.344C12.4992 174.25 12.5698 174.159 12.6404 174.069C12.7849 173.88 13.0505 174.143 12.9059 174.327Z" fill="white"/>
<path d="M5.95567 191.295C4.79134 191.099 3.73444 190.496 2.97371 189.593C2.21298 188.69 1.79797 187.546 1.80278 186.366C1.80342 186.318 1.82272 186.272 1.85662 186.237C1.89052 186.203 1.93637 186.183 1.98451 186.182C2.03264 186.181 2.07931 186.199 2.11467 186.232C2.15003 186.264 2.17133 186.31 2.17407 186.358C2.16757 187.457 2.55426 188.522 3.26436 189.362C3.97447 190.201 4.96122 190.759 6.0465 190.935C6.2823 190.973 6.19013 191.333 5.95567 191.295Z" fill="white"/>
<path d="M8.24096 201.227C10.2191 199.844 11.6034 197.767 12.1179 195.409C12.1686 195.175 12.5286 195.266 12.4779 195.499C11.9379 197.952 10.493 200.111 8.43131 201.545C8.23471 201.682 8.04543 201.363 8.24096 201.227Z" fill="white"/>
<path d="M8.84509 180.873C9.27982 181.043 9.74986 181.102 10.213 181.045C10.6761 180.988 11.1178 180.817 11.4985 180.547C11.6933 180.408 11.8823 180.727 11.6888 180.866C11.2669 181.162 10.7788 181.35 10.2673 181.414C9.75572 181.478 9.23625 181.416 8.75425 181.233C8.70737 181.22 8.66737 181.189 8.64237 181.147C8.61737 181.105 8.60925 181.056 8.61966 181.008C8.63193 180.96 8.66249 180.919 8.7047 180.894C8.74691 180.869 8.79736 180.862 8.84509 180.873Z" fill="white"/>
<path d="M38.1243 187.326C38.0067 187.417 37.8857 187.508 37.768 187.602C36.172 188.823 34.678 190.172 33.3005 191.636C33.193 191.747 33.0854 191.861 32.9812 191.975L32.9778 191.979C29.7118 195.524 27.1293 199.643 25.3606 204.127L25.3505 204.158C25.3472 204.168 25.3438 204.174 25.3404 204.184C24.6394 205.979 24.0742 207.824 23.6496 209.704C23.2395 211.539 22.9033 213.506 22.2613 215.274C22.1638 215.546 22.0562 215.815 21.9419 216.074H6.99658C7.047 215.809 7.10079 215.54 7.15457 215.274C7.91483 211.379 9.10306 207.58 10.6976 203.946C10.7514 203.825 10.8052 203.704 10.8657 203.583C11.6889 201.787 12.6568 200.061 13.76 198.423L13.7602 198.422L13.7609 198.42L13.762 198.42L13.7633 198.419C14.3691 197.525 15.0198 196.663 15.713 195.834C17.5108 193.695 19.6345 191.853 22.0058 190.375C22.0192 190.365 22.0361 190.358 22.0495 190.348C26.7691 187.421 32.3627 186.026 37.7108 187.232H37.7142C37.852 187.263 37.9865 187.293 38.1243 187.326Z" fill="#E6E6E6"/>
<path d="M38.1074 187.505C37.9931 187.535 37.8788 187.568 37.7679 187.602C35.412 188.275 33.1381 189.208 30.9877 190.382C30.8802 190.439 30.7726 190.5 30.665 190.56C27.6933 192.219 24.9958 194.327 22.6679 196.809C22.6661 196.811 22.6649 196.813 22.6646 196.816C22.6377 196.843 22.6074 196.873 22.5839 196.9C22.0461 197.478 21.5284 198.08 21.0376 198.698C20.0776 199.852 19.304 201.148 18.745 202.541C18.3179 203.701 18.1671 204.945 18.3047 206.174C18.3148 206.299 18.3316 206.42 18.3484 206.544C18.3618 206.642 18.3753 206.739 18.3921 206.84C18.6139 208.188 18.9972 209.539 18.8896 210.914C18.8241 211.619 18.6103 212.301 18.2621 212.917C17.9139 213.533 17.4392 214.068 16.8693 214.488C16.4819 214.787 16.0678 215.05 15.6323 215.274C15.0095 215.595 14.3607 215.863 13.6927 216.074H12.3716C12.5497 216.024 12.7245 215.973 12.9027 215.923C13.5349 215.745 14.1557 215.528 14.7616 215.274C15.1078 215.129 15.4446 214.963 15.7701 214.777C17.1214 214 18.2476 212.81 18.4828 211.22C18.6879 209.828 18.2912 208.437 18.0559 207.075C18.0156 206.84 17.9786 206.608 17.9584 206.376C17.7979 205.197 17.8954 203.998 18.2442 202.86C18.7278 201.441 19.4509 200.115 20.3821 198.94C20.9581 198.176 21.573 197.441 22.2242 196.739C22.3049 196.648 22.3889 196.557 22.4763 196.466C24.8531 193.966 27.5974 191.843 30.6146 190.17H30.618C32.8613 188.921 35.2414 187.936 37.7108 187.232H37.7141C37.8251 187.199 37.9394 187.165 38.0503 187.135C38.2822 187.074 38.336 187.441 38.1074 187.505Z" fill="white"/>
<path d="M22.3433 196.866C21.5314 196.009 21.0506 194.891 20.9868 193.712C20.923 192.533 21.2803 191.37 21.995 190.43C22.1402 190.241 22.4418 190.458 22.2963 190.648C21.6292 191.521 21.2965 192.605 21.3581 193.703C21.4198 194.8 21.8718 195.84 22.6325 196.633C22.7977 196.806 22.5074 197.038 22.3433 196.866Z" fill="white"/>
<path d="M18.1885 206.172C20.6004 206.259 22.9564 205.434 24.7869 203.861C24.9681 203.705 25.2006 203.995 25.0196 204.15C23.1118 205.784 20.6582 206.638 18.1485 206.542C17.9093 206.532 17.9506 206.163 18.1885 206.172Z" fill="white"/>
<path d="M30.9246 190.285C31.1696 190.682 31.5094 191.012 31.9136 191.246C32.3177 191.479 32.7734 191.608 33.2398 191.622C33.479 191.628 33.4375 191.997 33.1999 191.991C32.6846 191.973 32.1815 191.83 31.7344 191.573C31.2874 191.316 30.91 190.954 30.6353 190.518C30.606 190.479 30.5925 190.43 30.5978 190.382C30.603 190.333 30.6266 190.289 30.6636 190.257C30.702 190.226 30.751 190.212 30.7999 190.217C30.8488 190.223 30.8936 190.247 30.9246 190.285Z" fill="white"/>
<path d="M153.414 58.198C153.069 58.6518 152.629 59.0244 152.125 59.2896C151.62 59.5548 151.063 59.7062 150.494 59.733C149.925 59.7599 149.356 59.6616 148.829 59.445C148.302 59.2284 147.828 58.8988 147.442 58.4795L134.735 64.0059L135.973 56.9125L147.85 52.7521C148.597 52.1501 149.54 51.8431 150.498 51.8895C151.457 51.9358 152.365 52.3321 153.051 53.0034C153.737 53.6747 154.153 54.5743 154.22 55.5316C154.287 56.489 154 57.4377 153.414 58.198Z" fill="#FFB8B8"/>
<path d="M144.935 60.4127L115.421 73.5591L115.358 73.5364L81.7201 61.5496C79.2146 60.2401 77.3044 58.0224 76.3806 55.3505C75.4568 52.6785 75.5894 49.7545 76.7512 47.1772C77.3952 45.7532 78.3335 44.4817 79.5043 43.4464C80.6751 42.4112 82.0519 41.6356 83.544 41.1708C85.0362 40.706 86.6098 40.5625 88.1614 40.7497C89.713 40.937 91.2074 41.4507 92.5461 42.2571L117.579 57.3366L141.853 54.1906L144.935 60.4127Z" fill="#E6E6E6"/>
<path d="M290 216.347C290 216.399 289.99 216.451 289.97 216.5C289.95 216.548 289.92 216.593 289.883 216.63C289.846 216.667 289.802 216.696 289.753 216.716C289.705 216.736 289.653 216.747 289.6 216.747H0.411248C0.305155 216.747 0.203412 216.704 0.128394 216.629C0.0533749 216.554 0.0112305 216.453 0.0112305 216.347C0.0112305 216.24 0.0533749 216.139 0.128394 216.064C0.203412 215.989 0.305155 215.947 0.411248 215.947H289.6C289.653 215.946 289.705 215.957 289.753 215.977C289.802 215.997 289.846 216.026 289.883 216.063C289.92 216.101 289.95 216.145 289.97 216.193C289.99 216.242 290 216.294 290 216.347Z" fill="#CCCCCC"/>
<path d="M105.331 99.7689L75.5799 95.0101C74.7996 94.7602 74.0826 94.3444 73.4782 93.7912C72.8738 93.238 72.3962 92.5606 72.0783 91.8055C71.7603 91.0504 71.6096 90.2354 71.6363 89.4165C71.6631 88.5976 71.8667 87.7942 72.2333 87.0614L73.5825 84.3627L73.0584 56.0093C72.9952 52.3212 73.9045 48.6815 75.6946 45.4564C77.4848 42.2313 80.0927 39.5345 83.2561 37.6373L86.1574 35.9025L87.6236 32.1791L101.144 32.5088L101.183 37.3922L106.025 45.1131L106.025 45.1451L105.721 87.1688L104.387 91.5056L106.404 96.5499L105.331 99.7689Z" fill="#E6E6E6"/>
<path d="M95.6218 27.549C102.406 27.549 107.906 22.0491 107.906 15.2646C107.906 8.48014 102.406 2.98022 95.6218 2.98022C88.8373 2.98022 83.3374 8.48014 83.3374 15.2646C83.3374 22.0491 88.8373 27.549 95.6218 27.549Z" fill="#FFB8B8"/>
<path d="M82.8298 17.9427C82.4634 16.3991 82.6316 14.227 82.8387 12.6728C83.3815 8.59821 85.6443 4.72458 89.0821 2.43009C89.734 1.93499 90.5086 1.62717 91.3224 1.5398C92.1357 1.50585 93.0173 1.94123 93.267 2.716C93.4719 2.20464 93.7794 1.74071 94.1705 1.35282C94.5617 0.964938 95.0282 0.661332 95.5412 0.460749C96.5718 0.0658893 97.6803 -0.0834372 98.7786 0.024606C100.908 0.200091 102.949 0.948677 104.687 2.19092C106.425 3.43316 107.794 5.12271 108.649 7.08027C108.977 7.85974 109.894 4.98059 110.309 5.71708C110.691 6.48262 111.358 7.06822 112.166 7.34857C112.981 7.57587 113.312 10.9321 113.632 10.1495C113.881 10.7278 113.979 11.3597 113.918 11.9863C113.857 12.6129 113.638 13.2138 113.282 13.7331C112.926 14.2523 112.444 14.673 111.882 14.956C111.32 15.239 110.695 15.3751 110.066 15.3515C109.236 15.3205 108.444 15.0155 107.624 14.8843C104.695 14.4149 101.587 16.5392 100.961 19.4393C100.737 18.6006 100.378 17.8037 99.9 17.0792C99.6572 16.7189 99.3319 16.4217 98.951 16.2125C98.5702 16.0033 98.1449 15.888 97.7106 15.8762C96.8771 15.9074 96.1444 16.4524 95.6036 17.0874C95.0628 17.7224 94.6566 18.4632 94.1118 19.0948C92.5132 20.948 90.3511 25.2698 88.073 24.9546C86.2752 24.7059 83.3301 20.0502 82.8298 17.9427Z" fill="#2F2E41"/>
<path d="M169.879 72.1184C169.965 71.5584 169.85 70.986 169.555 70.5027C169.259 70.0194 168.801 69.6565 168.264 69.4784L135.182 58.4603C134.865 58.3542 134.529 58.3156 134.196 58.347L125.904 59.1312L121.146 59.5825L112.366 60.4122C111.836 60.4629 111.338 60.6881 110.949 61.0525C110.561 61.4169 110.305 61.8999 110.22 62.4257L105.763 90.2718C105.678 90.8149 105.782 91.3706 106.056 91.847C106.33 92.3235 106.758 92.6922 107.27 92.8924L140.697 105.795C140.854 105.856 141.017 105.9 141.183 105.926C141.425 105.965 141.672 105.967 141.915 105.931L163.514 102.73C164.024 102.656 164.496 102.42 164.861 102.057C165.225 101.694 165.463 101.223 165.539 100.714L169.879 72.1184Z" fill="white"/>
<path d="M108.028 90.9304L141.455 103.833C141.504 103.852 141.557 103.858 141.609 103.851L163.205 100.65C163.269 100.641 163.329 100.612 163.375 100.566C163.42 100.52 163.45 100.461 163.459 100.397L167.802 71.8017C167.812 71.7319 167.797 71.6608 167.761 71.6006C167.724 71.5404 167.667 71.4949 167.601 71.4718L167.378 71.3965L134.517 60.4561C134.502 60.4508 134.486 60.4471 134.47 60.445C134.445 60.4403 134.419 60.439 134.393 60.441L114.169 62.3548L112.564 62.5053C112.498 62.5124 112.436 62.5407 112.388 62.5861C112.34 62.6315 112.308 62.6914 112.297 62.7567L107.84 90.6017C107.829 90.6697 107.842 90.7394 107.876 90.7992C107.91 90.859 107.964 90.9053 108.028 90.9304Z" fill="#A4634D"/>
<path d="M114.169 62.3548L134.393 60.441C134.419 60.439 134.445 60.4403 134.471 60.445C134.486 60.4471 134.502 60.4508 134.517 60.4561L167.378 71.3965L158.71 72.3141L155.466 72.6559L146.235 73.6311C146.208 73.6325 146.181 73.6321 146.154 73.6301C146.138 73.6252 146.121 73.6202 146.102 73.615L114.169 62.3548Z" fill="#2F2E41"/>
<path d="M107.269 92.8942L140.696 105.797C140.854 105.857 141.017 105.9 141.184 105.924C141.426 105.964 141.673 105.967 141.916 105.933L163.513 102.732C164.022 102.658 164.495 102.422 164.86 102.058C165.224 101.695 165.463 101.224 165.539 100.714L169.879 72.1184C169.943 71.6968 169.894 71.2658 169.738 70.869C169.716 70.8163 169.694 70.7635 169.668 70.7138C169.496 70.3516 169.234 70.0394 168.908 69.807C168.711 69.6657 168.494 69.555 168.264 69.4787L168.224 69.4648L135.183 58.46C135.048 58.417 134.91 58.3835 134.771 58.3598C134.58 58.3328 134.386 58.329 134.194 58.3487L125.904 59.1301L121.146 59.5839L112.365 60.413C112.006 60.4466 111.659 60.5612 111.35 60.7483C111.327 60.7599 111.304 60.7735 111.282 60.7891C111.267 60.7991 111.252 60.8101 111.239 60.8221C110.969 61.006 110.74 61.2428 110.565 61.5181C110.39 61.7934 110.273 62.1014 110.221 62.4234L105.761 90.2714C105.676 90.815 105.78 91.3711 106.054 91.8479C106.328 92.3247 106.757 92.6938 107.269 92.8942ZM110.813 62.5205C110.867 62.1867 111.015 61.8752 111.24 61.6225C111.308 61.5412 111.384 61.467 111.467 61.4011C111.694 61.2177 111.962 61.0926 112.248 61.0367C112.305 61.025 112.362 61.017 112.419 61.0125L127.205 59.6157L134.252 58.9451C134.3 58.9395 134.344 58.9404 134.388 58.9378C134.495 58.9356 134.601 58.9435 134.707 58.9615C134.803 58.9741 134.898 58.9967 134.99 59.0292L168.071 70.0478C168.097 70.0571 168.12 70.066 168.146 70.0753C168.446 70.1872 168.711 70.3795 168.91 70.6312C169.067 70.8239 169.182 71.0476 169.247 71.2877C169.312 71.5278 169.325 71.779 169.287 72.0247L164.943 100.623C164.886 101.005 164.708 101.358 164.435 101.63C164.162 101.903 163.809 102.08 163.428 102.137L141.827 105.337C141.519 105.382 141.203 105.346 140.912 105.233L107.485 92.334C107.102 92.183 106.781 91.9062 106.576 91.5492C106.371 91.1921 106.293 90.7759 106.356 90.3688L110.813 62.5205Z" fill="#3F3D56"/>
<path d="M111.167 60.9738C111.185 60.9231 111.216 60.8783 111.257 60.844C111.271 60.833 111.285 60.8231 111.3 60.8143C111.314 60.8089 111.329 60.8002 111.343 60.7948C111.41 60.7678 111.485 60.7665 111.553 60.7912L112.248 61.0366L146.239 73.027L154.194 72.1865L158.645 71.717L168.068 70.7195L168.91 70.6311L169.074 70.613C169.144 70.6066 169.215 70.625 169.274 70.6651C169.332 70.7052 169.375 70.7645 169.394 70.8327C169.398 70.8484 169.401 70.8645 169.403 70.8808C169.41 70.9455 169.395 71.0107 169.362 71.0666C169.329 71.1225 169.278 71.1661 169.218 71.1907C169.191 71.2017 169.163 71.2093 169.135 71.2131L167.989 71.3333L158.71 72.3141L155.466 72.6558L146.235 73.6311C146.208 73.6324 146.181 73.6321 146.154 73.6301C146.138 73.6252 146.121 73.6202 146.101 73.6149L111.467 61.401L111.35 61.3594C111.323 61.3505 111.298 61.3367 111.276 61.3185C111.223 61.2801 111.185 61.226 111.165 61.164C111.146 61.102 111.146 61.0354 111.167 60.9738Z" fill="#3F3D56"/>
<path d="M141.275 106.012C141.197 105.999 141.127 105.956 141.08 105.892C141.033 105.828 141.014 105.749 141.025 105.67L145.905 73.2873C145.917 73.2085 145.96 73.1377 146.024 73.0903C146.088 73.043 146.168 73.0231 146.247 73.035L146.25 73.0354C146.328 73.0479 146.398 73.0908 146.445 73.1548C146.492 73.2187 146.511 73.2985 146.499 73.3768L141.619 105.76C141.608 105.839 141.565 105.909 141.501 105.957C141.437 106.004 141.356 106.024 141.278 106.012L141.275 106.012Z" fill="#3F3D56"/>
<path d="M153.644 103.957L150.399 104.3L154.195 72.1857C154.195 72.1857 158.53 71.4009 158.646 71.7156C158.717 71.9035 153.675 103.751 153.644 103.957Z" fill="#3F3D56"/>
<path d="M111.351 61.359L111.263 76.0042L137.189 85.883L146.5 73.3768L111.351 61.359Z" fill="#3F3D56"/>
<path d="M168.911 70.6316C168.694 70.3592 168.403 70.1562 168.072 70.0478L134.992 59.0295C134.899 58.9983 134.804 58.975 134.707 58.96C134.602 58.9419 134.495 58.9339 134.388 58.9361L134.441 58.6009L134.773 58.3611L142.628 52.6738L168.861 60.7136L168.907 69.807L168.911 70.6316Z" fill="#3F3D56"/>
<path d="M112.672 84.8693C112.709 84.8729 112.746 84.8806 112.781 84.8923L122.931 88.2259C123.058 88.2676 123.164 88.3581 123.224 88.4774C123.284 88.5968 123.295 88.7352 123.253 88.8623C123.211 88.9893 123.121 89.0946 123.002 89.155C122.882 89.2154 122.744 89.2259 122.617 89.1842L112.467 85.8506C112.349 85.8118 112.25 85.7311 112.188 85.6237C112.126 85.5163 112.105 85.3898 112.131 85.2683C112.156 85.1469 112.225 85.0391 112.325 84.9655C112.425 84.8919 112.548 84.8576 112.672 84.8693Z" fill="white"/>
<path d="M153.623 146.306C155.851 146.306 157.657 144.5 157.657 142.272C157.657 140.044 155.851 138.238 153.623 138.238C151.395 138.238 149.589 140.044 149.589 142.272C149.589 144.5 151.395 146.306 153.623 146.306Z" fill="#F2F2F2"/>
<path d="M50.7599 161.096C52.9877 161.096 54.7937 159.29 54.7937 157.063C54.7937 154.835 52.9877 153.029 50.7599 153.029C48.5321 153.029 46.7261 154.835 46.7261 157.063C46.7261 159.29 48.5321 161.096 50.7599 161.096Z" fill="#F2F2F2"/>
<path d="M134.798 27.6438C137.026 27.6438 138.832 25.8378 138.832 23.61C138.832 21.3822 137.026 19.5762 134.798 19.5762C132.571 19.5762 130.765 21.3822 130.765 23.61C130.765 25.8378 132.571 27.6438 134.798 27.6438Z" fill="#F2F2F2"/>
<path d="M141.417 90.802C140.894 91.0291 140.328 91.1389 139.758 91.1235C139.188 91.1081 138.628 90.968 138.119 90.713C137.609 90.4579 137.161 90.0943 136.807 89.6475C136.453 89.2007 136.201 88.6818 136.069 88.1272L122.283 86.7343L126.831 81.1521L139.226 83.3306C140.172 83.1709 141.144 83.364 141.958 83.8732C142.771 84.3823 143.37 85.1722 143.64 86.0931C143.91 87.0141 143.833 88.0021 143.423 88.87C143.013 89.7378 142.299 90.4253 141.417 90.802Z" fill="#FFB8B8"/>
<path d="M132.937 88.5876L100.765 85.6233L100.72 85.5726L77.24 58.6681C75.6948 56.3006 75.1129 53.432 75.6137 50.6496C76.1145 47.8672 77.6599 45.3815 79.9337 43.7014C81.1917 42.7741 82.6319 42.1238 84.1594 41.7933C85.6869 41.4628 87.2671 41.4595 88.796 41.7837C90.3248 42.1079 91.7677 42.7522 93.0296 43.6743C94.2915 44.5963 95.3438 45.7751 96.1173 47.1332L110.579 72.5276L133.292 81.6532L132.937 88.5876Z" fill="#E6E6E6"/>
<path d="M213.689 36.8479C212.89 30.9875 211.888 24.6955 207.755 20.4649C206.443 19.1226 204.873 18.0597 203.14 17.3404C201.406 16.6212 199.545 16.2604 197.669 16.2798C195.792 16.2992 193.939 16.6985 192.221 17.4535C190.503 18.2085 188.955 19.3036 187.672 20.6728C184.663 23.8826 183.334 28.3897 183.212 32.7877C183.091 37.1856 184.07 41.5346 185.157 45.7979C190.907 45.9128 196.615 44.7894 201.892 42.5039C203.212 41.931 204.511 41.2834 205.905 40.9285C207.299 40.5736 208.293 41.4667 209.59 42.0894L210.302 40.7261C210.885 41.8108 212.69 41.4893 213.344 40.4464C213.999 39.4035 213.855 38.0679 213.689 36.8479Z" fill="#2F2E41"/>
<path d="M190.896 69.5586L167.407 70.0609C167.046 69.4374 166.512 68.9321 165.869 68.6066C165.227 68.2811 164.503 68.1494 163.787 68.2275C163.071 68.3056 162.393 68.5901 161.836 69.0465C161.278 69.5029 160.866 70.1114 160.648 70.7981C160.43 71.4847 160.417 72.2199 160.609 72.914C160.801 73.6082 161.192 74.2315 161.732 74.7081C162.272 75.1847 162.939 75.494 163.652 75.5984C164.364 75.7028 165.092 75.5977 165.746 75.2961C168.862 75.4732 193.234 78.9324 194.688 76.703C196.164 74.4404 204.041 66.4551 204.041 66.4551L197.986 57.8348L190.896 69.5586Z" fill="#9E616A"/>
<path d="M196.619 42.6461C202.714 42.6461 207.655 37.7051 207.655 31.6102C207.655 25.5152 202.714 20.5742 196.619 20.5742C190.524 20.5742 185.583 25.5152 185.583 31.6102C185.583 37.7051 190.524 42.6461 196.619 42.6461Z" fill="#9E616A"/>
<path d="M214.295 52.8445C212.995 50.2561 212.363 47.0586 209.59 46.2195C207.718 45.6528 200.145 46.502 198.439 47.4585C195.601 49.0496 198.173 52.031 196.498 54.821C194.678 57.854 189.731 63.9407 187.91 66.9737C186.659 69.0588 190.874 75.179 190.198 77.5148C189.521 79.8505 189.488 82.4721 190.641 84.6134C191.673 86.5299 190.18 88.2253 191.218 90.1387C192.297 92.1286 193.621 99.5687 192.617 101.597L191.944 103.614C198.616 104.006 204.225 96.036 210.856 95.1965C212.502 94.9879 214.212 94.7155 215.569 93.7596C217.568 92.3516 218.358 89.7966 218.852 87.402C221.229 75.697 219.625 63.5333 214.295 52.8445Z" fill="#3F3D56"/>
<path d="M224.298 80.1743C223.368 77.6378 221.686 66.5478 221.686 66.5478L211.156 66.239L216.304 78.9362L202.256 98.6021C202.256 98.6021 202.282 98.6453 202.33 98.7223C201.591 98.6038 200.834 98.711 200.157 99.0299C199.481 99.3488 198.916 99.8645 198.537 100.51C198.158 101.155 197.983 101.899 198.035 102.645C198.086 103.392 198.361 104.105 198.825 104.692C199.288 105.279 199.918 105.713 200.632 105.936C201.346 106.16 202.111 106.162 202.826 105.944C203.542 105.725 204.174 105.296 204.642 104.712C205.109 104.128 205.389 103.416 205.446 102.67C205.497 102.7 205.558 102.711 205.617 102.701C205.675 102.691 205.729 102.66 205.768 102.615C207.331 100.654 225.227 82.7108 224.298 80.1743Z" fill="#9E616A"/>
<path d="M225.368 73.1704C224.402 69.0913 223.428 64.99 221.799 61.1275C220.169 57.2651 217.837 53.6169 214.556 51.0075C213.507 50.1733 212.334 49.4369 211.019 49.1776C209.704 48.9182 208.222 49.2084 207.299 50.1797C205.821 51.734 206.266 54.2287 206.808 56.3037C208.406 62.4218 210.004 68.5399 211.602 74.6581C216.217 74.1689 220.833 73.6797 225.448 73.1905L225.368 73.1704Z" fill="#3F3D56"/>
<path d="M210.142 33.1409C209.736 30.4712 209.311 27.7792 208.357 25.2654C207.402 22.7515 205.863 20.397 203.655 18.973C200.159 16.7184 195.634 17.1532 191.715 18.4501C188.684 19.4531 185.725 20.9775 183.588 23.4283C181.45 25.8791 180.25 29.3761 181.045 32.5806C185.226 31.5929 189.406 30.6052 193.587 29.6175L193.129 29.9409C194.502 30.6253 195.7 31.6135 196.634 32.8304C197.568 34.0473 198.212 35.4609 198.518 36.964C198.817 38.4853 198.774 40.0541 198.392 41.5568C198.01 43.0595 197.299 44.4585 196.311 45.6528C199.162 44.6413 202.013 43.6299 204.864 42.6186C206.624 41.9943 208.507 41.275 209.551 39.6737C210.761 37.8172 210.48 35.3565 210.142 33.1409Z" fill="#2F2E41"/>
</g>
<defs>
<clipPath id="clip0_226_344">
<rect width="290" height="216.747" fill="white"/>
</clipPath>
</defs>
</svg>
