<svg width="261" height="170" viewBox="0 0 261 170" fill="none" xmlns="http://www.w3.org/2000/svg">
<g clip-path="url(#clip0_221_243)">
<path d="M236.236 162.646H24.764C21.0611 162.646 17.4054 161.946 14.0661 160.597C10.7268 159.249 7.78894 157.287 5.46888 154.855C3.14882 152.423 1.50567 149.583 0.660443 146.545C-0.184788 143.507 -0.210568 140.348 0.584996 137.301L10.0308 101.121H250.969L260.415 137.301C261.21 140.348 261.185 143.507 260.339 146.545C259.494 149.583 257.851 152.423 255.531 154.855C253.211 157.287 250.273 159.249 246.934 160.597C243.594 161.946 239.939 162.646 236.236 162.646ZM10.6117 101.73L1.29092 137.432C0.518608 140.39 0.543654 143.457 1.36422 146.406C2.18478 149.355 3.77996 152.112 6.03228 154.473C8.28459 156.834 11.1367 158.739 14.3785 160.048C17.6203 161.357 21.1693 162.036 24.764 162.036H236.236C239.831 162.036 243.379 161.357 246.621 160.048C249.863 158.739 252.715 156.834 254.967 154.473C257.22 152.112 258.815 149.355 259.636 146.406C260.456 143.457 260.481 140.39 259.709 137.432L250.388 101.73H10.6117Z" fill="#F2F2F2"/>
<path d="M209.384 23.8723L220.477 22.4792L218.725 15.9767L212.074 18.7991L198.353 14.4416C198.158 14.0163 197.82 13.6481 197.38 13.3819C196.941 13.1157 196.419 12.963 195.878 12.9425C195.337 12.9219 194.801 13.0344 194.335 13.2661C193.869 13.4979 193.493 13.839 193.253 14.2478C193.013 14.6565 192.919 15.1153 192.983 15.5682C193.047 16.0211 193.266 16.4486 193.613 16.7984C193.96 17.1483 194.421 17.4054 194.939 17.5385C195.456 17.6716 196.009 17.6749 196.529 17.548L209.384 23.8723Z" fill="#FFB6B6"/>
<path d="M231.93 19.0113C231.072 21.7509 211.31 24.8412 211.32 24.2485C211.348 22.564 212.619 19.0295 211.893 18.1126C211.478 17.5882 217.067 16.2483 217.067 16.2483C217.067 16.2483 220.151 15.2479 224.149 14.0269C225.272 13.6641 226.486 13.5466 227.677 13.6852C228.868 13.8239 229.999 14.2144 230.963 14.8202C230.963 14.8202 232.787 16.2717 231.93 19.0113Z" fill="#A4634D"/>
<path d="M40.7583 133.1H33.8909C32.3572 133.1 30.8863 133.614 29.8017 134.528C28.7172 135.441 28.1079 136.681 28.1079 137.973C28.1079 139.266 28.7172 140.505 29.8017 141.419C30.8863 142.333 32.3572 142.847 33.8909 142.847H40.7583C42.292 142.847 43.763 142.333 44.8475 141.419C45.932 140.505 46.5413 139.266 46.5413 137.973C46.5413 136.681 45.932 135.441 44.8475 134.528C43.763 133.614 42.292 133.1 40.7583 133.1Z" fill="#E6E6E6"/>
<path d="M62.8061 133.1H55.9388C54.405 133.1 52.9341 133.614 51.8496 134.528C50.7651 135.441 50.1558 136.681 50.1558 137.973C50.1558 139.266 50.7651 140.505 51.8496 141.419C52.9341 142.333 54.405 142.847 55.9388 142.847H62.8061C64.3399 142.847 65.8108 142.333 66.8954 141.419C67.9799 140.505 68.5892 139.266 68.5892 137.973C68.5892 136.681 67.9799 135.441 66.8954 134.528C65.8108 133.614 64.3399 133.1 62.8061 133.1Z" fill="#E6E6E6"/>
<path d="M84.854 133.1H77.9866C76.4529 133.1 74.982 133.614 73.8974 134.528C72.8129 135.441 72.2036 136.681 72.2036 137.973C72.2036 139.266 72.8129 140.505 73.8974 141.419C74.982 142.333 76.4529 142.847 77.9866 142.847H84.854C86.3877 142.847 87.8587 142.333 88.9432 141.419C90.0277 140.505 90.637 139.266 90.637 137.973C90.637 136.681 90.0277 135.441 88.9432 134.528C87.8587 133.614 86.3877 133.1 84.854 133.1Z" fill="#E6E6E6"/>
<path d="M106.902 133.1H100.034C98.5007 133.1 97.0298 133.614 95.9453 134.528C94.8608 135.441 94.2515 136.681 94.2515 137.973C94.2515 139.266 94.8608 140.505 95.9453 141.419C97.0298 142.333 98.5007 142.847 100.034 142.847H106.902C108.436 142.847 109.907 142.333 110.991 141.419C112.076 140.505 112.685 139.266 112.685 137.973C112.685 136.681 112.076 135.441 110.991 134.528C109.907 133.614 108.436 133.1 106.902 133.1Z" fill="#E6E6E6"/>
<path d="M128.95 133.1H122.082C120.549 133.1 119.078 133.614 117.993 134.528C116.909 135.441 116.299 136.681 116.299 137.973C116.299 139.266 116.909 140.505 117.993 141.419C119.078 142.333 120.549 142.847 122.082 142.847H128.95C130.483 142.847 131.954 142.333 133.039 141.419C134.123 140.505 134.733 139.266 134.733 137.973C134.733 136.681 134.123 135.441 133.039 134.528C131.954 133.614 130.483 133.1 128.95 133.1Z" fill="#E6E6E6"/>
<path d="M150.998 133.1H144.13C142.596 133.1 141.126 133.614 140.041 134.528C138.956 135.441 138.347 136.681 138.347 137.973C138.347 139.266 138.956 140.505 140.041 141.419C141.126 142.333 142.596 142.847 144.13 142.847H150.998C152.531 142.847 154.002 142.333 155.087 141.419C156.171 140.505 156.781 139.266 156.781 137.973C156.781 136.681 156.171 135.441 155.087 134.528C154.002 133.614 152.531 133.1 150.998 133.1Z" fill="#E6E6E6"/>
<path d="M173.045 133.1H166.178C164.644 133.1 163.173 133.614 162.089 134.528C161.004 135.441 160.395 136.681 160.395 137.973C160.395 139.266 161.004 140.505 162.089 141.419C163.173 142.333 164.644 142.847 166.178 142.847H173.045C174.579 142.847 176.05 142.333 177.135 141.419C178.219 140.505 178.828 139.266 178.828 137.973C178.828 136.681 178.219 135.441 177.135 134.528C176.05 133.614 174.579 133.1 173.045 133.1Z" fill="#E6E6E6"/>
<path d="M195.093 133.1H188.226C186.692 133.1 185.221 133.614 184.137 134.528C183.052 135.441 182.443 136.681 182.443 137.973C182.443 139.266 183.052 140.505 184.137 141.419C185.221 142.333 186.692 142.847 188.226 142.847H195.093C196.627 142.847 198.098 142.333 199.182 141.419C200.267 140.505 200.876 139.266 200.876 137.973C200.876 136.681 200.267 135.441 199.182 134.528C198.098 133.614 196.627 133.1 195.093 133.1Z" fill="#E6E6E6"/>
<path d="M217.141 133.1H210.274C208.74 133.1 207.269 133.614 206.185 134.528C205.1 135.441 204.491 136.681 204.491 137.973C204.491 139.266 205.1 140.505 206.185 141.419C207.269 142.333 208.74 142.847 210.274 142.847H217.141C218.675 142.847 220.146 142.333 221.23 141.419C222.315 140.505 222.924 139.266 222.924 137.973C222.924 136.681 222.315 135.441 221.23 134.528C220.146 133.614 218.675 133.1 217.141 133.1Z" fill="#E6E6E6"/>
<path d="M40.7583 112.694H33.8909C32.3572 112.694 30.8863 113.207 29.8017 114.121C28.7172 115.035 28.1079 116.274 28.1079 117.567C28.1079 118.859 28.7172 120.099 29.8017 121.013C30.8863 121.927 32.3572 122.44 33.8909 122.44H40.7583C42.292 122.44 43.763 121.927 44.8475 121.013C45.932 120.099 46.5413 118.859 46.5413 117.567C46.5413 116.274 45.932 115.035 44.8475 114.121C43.763 113.207 42.292 112.694 40.7583 112.694Z" fill="#E6E6E6"/>
<path d="M62.8061 112.694H55.9388C54.405 112.694 52.9341 113.207 51.8496 114.121C50.7651 115.035 50.1558 116.274 50.1558 117.567C50.1558 118.859 50.7651 120.099 51.8496 121.013C52.9341 121.927 54.405 122.44 55.9388 122.44H62.8061C64.3399 122.44 65.8108 121.927 66.8954 121.013C67.9799 120.099 68.5892 118.859 68.5892 117.567C68.5892 116.274 67.9799 115.035 66.8954 114.121C65.8108 113.207 64.3399 112.694 62.8061 112.694Z" fill="#E6E6E6"/>
<path d="M84.854 112.694H77.9866C76.4529 112.694 74.982 113.207 73.8974 114.121C72.8129 115.035 72.2036 116.274 72.2036 117.567C72.2036 118.859 72.8129 120.099 73.8974 121.013C74.982 121.927 76.4529 122.44 77.9866 122.44H84.854C86.3877 122.44 87.8587 121.927 88.9432 121.013C90.0277 120.099 90.637 118.859 90.637 117.567C90.637 116.274 90.0277 115.035 88.9432 114.121C87.8587 113.207 86.3877 112.694 84.854 112.694Z" fill="#A4634D"/>
<path d="M106.902 112.694H100.034C98.5007 112.694 97.0298 113.207 95.9453 114.121C94.8608 115.035 94.2515 116.274 94.2515 117.567C94.2515 118.859 94.8608 120.099 95.9453 121.013C97.0298 121.927 98.5007 122.44 100.034 122.44H106.902C108.436 122.44 109.907 121.927 110.991 121.013C112.076 120.099 112.685 118.859 112.685 117.567C112.685 116.274 112.076 115.035 110.991 114.121C109.907 113.207 108.436 112.694 106.902 112.694Z" fill="#E6E6E6"/>
<path d="M128.95 112.694H122.082C120.549 112.694 119.078 113.207 117.993 114.121C116.909 115.035 116.299 116.274 116.299 117.567C116.299 118.859 116.909 120.099 117.993 121.013C119.078 121.927 120.549 122.44 122.082 122.44H128.95C130.483 122.44 131.954 121.927 133.039 121.013C134.123 120.099 134.733 118.859 134.733 117.567C134.733 116.274 134.123 115.035 133.039 114.121C131.954 113.207 130.483 112.694 128.95 112.694Z" fill="#E6E6E6"/>
<path d="M150.998 112.694H144.13C142.596 112.694 141.126 113.207 140.041 114.121C138.956 115.035 138.347 116.274 138.347 117.567C138.347 118.859 138.956 120.099 140.041 121.013C141.126 121.927 142.596 122.44 144.13 122.44H150.998C152.531 122.44 154.002 121.927 155.087 121.013C156.171 120.099 156.781 118.859 156.781 117.567C156.781 116.274 156.171 115.035 155.087 114.121C154.002 113.207 152.531 112.694 150.998 112.694Z" fill="#E6E6E6"/>
<path d="M173.045 112.694H166.178C164.644 112.694 163.173 113.207 162.089 114.121C161.004 115.035 160.395 116.274 160.395 117.567C160.395 118.859 161.004 120.099 162.089 121.013C163.173 121.927 164.644 122.44 166.178 122.44H173.045C174.579 122.44 176.05 121.927 177.135 121.013C178.219 120.099 178.828 118.859 178.828 117.567C178.828 116.274 178.219 115.035 177.135 114.121C176.05 113.207 174.579 112.694 173.045 112.694Z" fill="#E6E6E6"/>
<path d="M195.093 112.694H188.226C186.692 112.694 185.221 113.207 184.137 114.121C183.052 115.035 182.443 116.274 182.443 117.567C182.443 118.859 183.052 120.099 184.137 121.013C185.221 121.927 186.692 122.44 188.226 122.44H195.093C196.627 122.44 198.098 121.927 199.182 121.013C200.267 120.099 200.876 118.859 200.876 117.567C200.876 116.274 200.267 115.035 199.182 114.121C198.098 113.207 196.627 112.694 195.093 112.694Z" fill="#E6E6E6"/>
<path d="M217.141 112.694H210.274C208.74 112.694 207.269 113.207 206.185 114.121C205.1 115.035 204.491 116.274 204.491 117.567C204.491 118.859 205.1 120.099 206.185 121.013C207.269 121.927 208.74 122.44 210.274 122.44H217.141C218.675 122.44 220.146 121.927 221.23 121.013C222.315 120.099 222.924 118.859 222.924 117.567C222.924 116.274 222.315 115.035 221.23 114.121C220.146 113.207 218.675 112.694 217.141 112.694Z" fill="#E6E6E6"/>
<path d="M51.0596 123.201H44.1922C42.6585 123.201 41.1875 123.715 40.103 124.629C39.0185 125.543 38.4092 126.782 38.4092 128.075C38.4092 129.367 39.0185 130.607 40.103 131.521C41.1875 132.435 42.6585 132.948 44.1922 132.948H51.0596C52.5933 132.948 54.0643 132.435 55.1488 131.521C56.2333 130.607 56.8426 129.367 56.8426 128.075C56.8426 126.782 56.2333 125.543 55.1488 124.629C54.0643 123.715 52.5933 123.201 51.0596 123.201Z" fill="#E6E6E6"/>
<path d="M73.1074 123.201H66.2401C64.7063 123.201 63.2354 123.715 62.1508 124.629C61.0663 125.543 60.457 126.782 60.457 128.075C60.457 129.367 61.0663 130.607 62.1508 131.521C63.2354 132.435 64.7063 132.948 66.2401 132.948H73.1074C74.6412 132.948 76.1121 132.435 77.1966 131.521C78.2812 130.607 78.8904 129.367 78.8904 128.075C78.8904 126.782 78.2812 125.543 77.1966 124.629C76.1121 123.715 74.6412 123.201 73.1074 123.201Z" fill="#E6E6E6"/>
<path d="M95.1553 123.201H88.2879C86.7542 123.201 85.2832 123.715 84.1987 124.629C83.1142 125.543 82.5049 126.782 82.5049 128.075C82.5049 129.367 83.1142 130.607 84.1987 131.521C85.2832 132.435 86.7542 132.948 88.2879 132.948H95.1553C96.689 132.948 98.16 132.435 99.2445 131.521C100.329 130.607 100.938 129.367 100.938 128.075C100.938 126.782 100.329 125.543 99.2445 124.629C98.16 123.715 96.689 123.201 95.1553 123.201Z" fill="#E6E6E6"/>
<path d="M117.203 123.201H110.336C108.802 123.201 107.331 123.715 106.247 124.629C105.162 125.543 104.553 126.782 104.553 128.075C104.553 129.367 105.162 130.607 106.247 131.521C107.331 132.435 108.802 132.948 110.336 132.948H117.203C118.737 132.948 120.208 132.435 121.292 131.521C122.377 130.607 122.986 129.367 122.986 128.075C122.986 126.782 122.377 125.543 121.292 124.629C120.208 123.715 118.737 123.201 117.203 123.201Z" fill="#E6E6E6"/>
<path d="M139.25 123.201H132.383C130.849 123.201 129.378 123.715 128.294 124.629C127.209 125.543 126.6 126.782 126.6 128.075C126.6 129.367 127.209 130.607 128.294 131.521C129.378 132.435 130.849 132.948 132.383 132.948H139.25C140.784 132.948 142.255 132.435 143.34 131.521C144.424 130.607 145.034 129.367 145.034 128.075C145.034 126.782 144.424 125.543 143.34 124.629C142.255 123.715 140.784 123.201 139.25 123.201Z" fill="#E6E6E6"/>
<path d="M161.298 123.201H154.431C152.897 123.201 151.426 123.715 150.342 124.629C149.257 125.543 148.648 126.782 148.648 128.075C148.648 129.367 149.257 130.607 150.342 131.521C151.426 132.435 152.897 132.948 154.431 132.948H161.298C162.832 132.948 164.303 132.435 165.388 131.521C166.472 130.607 167.081 129.367 167.081 128.075C167.081 126.782 166.472 125.543 165.388 124.629C164.303 123.715 162.832 123.201 161.298 123.201Z" fill="#E6E6E6"/>
<path d="M183.346 123.201H176.479C174.945 123.201 173.474 123.715 172.39 124.629C171.305 125.543 170.696 126.782 170.696 128.075C170.696 129.367 171.305 130.607 172.39 131.521C173.474 132.435 174.945 132.948 176.479 132.948H183.346C184.88 132.948 186.351 132.435 187.435 131.521C188.52 130.607 189.129 129.367 189.129 128.075C189.129 126.782 188.52 125.543 187.435 124.629C186.351 123.715 184.88 123.201 183.346 123.201Z" fill="#E6E6E6"/>
<path d="M205.394 123.201H198.527C196.993 123.201 195.522 123.715 194.437 124.629C193.353 125.543 192.744 126.782 192.744 128.075C192.744 129.367 193.353 130.607 194.437 131.521C195.522 132.435 196.993 132.948 198.527 132.948H205.394C206.928 132.948 208.399 132.435 209.483 131.521C210.568 130.607 211.177 129.367 211.177 128.075C211.177 126.782 210.568 125.543 209.483 124.629C208.399 123.715 206.928 123.201 205.394 123.201Z" fill="#E6E6E6"/>
<path d="M227.442 123.201H220.575C219.041 123.201 217.57 123.715 216.485 124.629C215.401 125.543 214.792 126.782 214.792 128.075C214.792 129.367 215.401 130.607 216.485 131.521C217.57 132.435 219.041 132.948 220.575 132.948H227.442C228.976 132.948 230.447 132.435 231.531 131.521C232.616 130.607 233.225 129.367 233.225 128.075C233.225 126.782 232.616 125.543 231.531 124.629C230.447 123.715 228.976 123.201 227.442 123.201Z" fill="#E6E6E6"/>
<path d="M202.008 101.424H59.3251C57.0619 101.422 54.892 100.663 53.2917 99.3149C51.6913 97.9663 50.7911 96.1378 50.7886 94.2306L50.7979 94.1619C55.8457 75.757 55.8438 52.6841 50.7919 21.55L50.7886 21.5087C50.7912 19.6015 51.6914 17.7731 53.2917 16.4245C54.8921 15.0759 57.0619 14.3173 59.3251 14.3151H202.008C204.272 14.3173 206.441 15.0759 208.042 16.4245C209.642 17.7731 210.542 19.6015 210.545 21.5087L210.537 21.5724C204.432 45.4971 204.432 70.2422 210.537 94.167L210.545 94.2307C210.542 96.1378 209.642 97.9663 208.042 99.3149C206.441 100.663 204.272 101.422 202.008 101.424Z" fill="white"/>
<path d="M202.008 101.424H59.3251C57.0619 101.422 54.892 100.663 53.2917 99.3149C51.6913 97.9663 50.7911 96.1378 50.7886 94.2306L50.7979 94.1619C55.8457 75.757 55.8438 52.6841 50.7919 21.55L50.7886 21.5087C50.7912 19.6015 51.6914 17.7731 53.2917 16.4245C54.8921 15.0759 57.0619 14.3173 59.3251 14.3151H202.008C204.272 14.3173 206.441 15.0759 208.042 16.4245C209.642 17.7731 210.542 19.6015 210.545 21.5087L210.537 21.5724C204.432 45.4971 204.432 70.2422 210.537 94.167L210.545 94.2307C210.542 96.1378 209.642 97.9663 208.042 99.3149C206.441 100.663 204.272 101.422 202.008 101.424ZM51.5116 94.2648C51.5247 96.0046 52.3534 97.6694 53.817 98.8964C55.2807 100.123 57.2606 100.813 59.3251 100.815H202.008C204.073 100.813 206.054 100.123 207.517 98.8955C208.981 97.668 209.809 96.0026 209.822 94.2625C203.706 70.2743 203.706 45.465 209.822 21.4769C209.809 19.7367 208.981 18.0713 207.517 16.8438C206.054 15.6163 204.073 14.9263 202.008 14.9243H59.3251C57.2577 14.9263 55.2754 15.6178 53.8112 16.8478C52.3471 18.0777 51.5203 19.746 51.5115 21.4882C56.569 52.6673 56.5693 75.7958 51.5116 94.2648Z" fill="#E6E6E6"/>
<path d="M187.051 35.7878H71.7517C71.1286 35.7878 70.531 35.5792 70.0905 35.208C69.6499 34.8367 69.4023 34.3331 69.4023 33.8081C69.4023 33.283 69.6499 32.7794 70.0905 32.4082C70.531 32.0369 71.1286 31.8283 71.7517 31.8283H187.051C187.674 31.8283 188.272 32.0369 188.712 32.4082C189.153 32.7794 189.4 33.283 189.4 33.8081C189.4 34.3331 189.153 34.8367 188.712 35.208C188.272 35.5792 187.674 35.7878 187.051 35.7878Z" fill="#E6E6E6"/>
<path d="M187.051 45.382H71.7517C71.1286 45.382 70.531 45.1734 70.0905 44.8021C69.6499 44.4309 69.4023 43.9273 69.4023 43.4022C69.4023 42.8772 69.6499 42.3736 70.0905 42.0023C70.531 41.6311 71.1286 41.4225 71.7517 41.4225H187.051C187.674 41.4225 188.272 41.6311 188.712 42.0023C189.153 42.3736 189.4 42.8772 189.4 43.4022C189.4 43.9273 189.153 44.4309 188.712 44.8021C188.272 45.1734 187.674 45.382 187.051 45.382Z" fill="#E6E6E6"/>
<path d="M187.051 54.9762H71.7517C71.1286 54.9762 70.531 54.7676 70.0905 54.3963C69.6499 54.025 69.4023 53.5215 69.4023 52.9964C69.4023 52.4714 69.6499 51.9678 70.0905 51.5965C70.531 51.2252 71.1286 51.0167 71.7517 51.0167H187.051C187.674 51.0167 188.272 51.2252 188.712 51.5965C189.153 51.9678 189.4 52.4714 189.4 52.9964C189.4 53.5215 189.153 54.025 188.712 54.3963C188.272 54.7676 187.674 54.9762 187.051 54.9762Z" fill="#E6E6E6"/>
<path d="M187.051 64.5703H71.7517C71.1286 64.5703 70.531 64.3618 70.0905 63.9905C69.6499 63.6192 69.4023 63.1157 69.4023 62.5906C69.4023 62.0655 69.6499 61.562 70.0905 61.1907C70.531 60.8194 71.1286 60.6108 71.7517 60.6108H187.051C187.674 60.6108 188.272 60.8194 188.712 61.1907C189.153 61.562 189.4 62.0655 189.4 62.5906C189.4 63.1157 189.153 63.6192 188.712 63.9905C188.272 64.3618 187.674 64.5703 187.051 64.5703Z" fill="#E6E6E6"/>
<path d="M187.051 74.1645H71.7517C71.1286 74.1645 70.531 73.9559 70.0905 73.5847C69.6499 73.2134 69.4023 72.7098 69.4023 72.1848C69.4023 71.6597 69.6499 71.1561 70.0905 70.7849C70.531 70.4136 71.1286 70.205 71.7517 70.205H187.051C187.674 70.205 188.272 70.4136 188.712 70.7849C189.153 71.1561 189.4 71.6597 189.4 72.1848C189.4 72.7098 189.153 73.2134 188.712 73.5847C188.272 73.9559 187.674 74.1645 187.051 74.1645Z" fill="#E6E6E6"/>
<path d="M123.438 83.7587H71.7517C71.1286 83.7587 70.531 83.5501 70.0905 83.1788C69.6499 82.8076 69.4023 82.304 69.4023 81.7789C69.4023 81.2539 69.6499 80.7503 70.0905 80.3791C70.531 80.0078 71.1286 79.7992 71.7517 79.7992H123.438C124.061 79.7992 124.658 80.0078 125.099 80.3791C125.539 80.7503 125.787 81.2539 125.787 81.7789C125.787 82.304 125.539 82.8076 125.099 83.1788C124.658 83.5501 124.061 83.7587 123.438 83.7587Z" fill="#A4634D"/>
<path d="M130.009 98.8353H120.495C120.351 98.8342 120.208 98.8057 120.079 98.7519C119.95 98.6982 119.836 98.6205 119.747 98.5248C119.642 98.4121 119.568 98.2811 119.531 98.1414C119.493 98.0017 119.493 97.8567 119.53 97.7169L124.007 80.6466C124.043 80.455 124.158 80.2802 124.331 80.153C124.505 80.0259 124.726 79.9545 124.956 79.9515C125.187 79.9486 125.41 80.0142 125.589 80.1369C125.767 80.2596 125.888 80.4314 125.93 80.6219L130.967 97.6919C131.009 97.8331 131.013 97.9806 130.978 98.1232C130.943 98.2658 130.871 98.3999 130.766 98.5155C130.677 98.614 130.563 98.694 130.432 98.7494C130.3 98.8049 130.156 98.8342 130.009 98.8353Z" fill="#E6E6E6"/>
<path d="M249.58 105.231H11.753C10.4589 105.231 9.21776 104.798 8.30269 104.027C7.38762 103.256 6.87354 102.21 6.87354 101.12C6.87354 100.029 7.38762 98.9832 8.30269 98.2121C9.21776 97.441 10.4589 97.0078 11.753 97.0078H249.58C250.874 97.0078 252.115 97.441 253.03 98.2121C253.945 98.9832 254.46 100.029 254.46 101.12C254.46 102.21 253.945 103.256 253.03 104.027C252.115 104.798 250.874 105.231 249.58 105.231Z" fill="#F2F2F2"/>
<path d="M219.464 94.9345L215.993 94.9342L214.342 83.6542L219.464 83.6545L219.464 94.9345Z" fill="#FFB6B6"/>
<path d="M220.348 97.7693L209.158 97.7689V97.6497C209.158 96.6763 209.617 95.7428 210.434 95.0545C211.251 94.3662 212.359 93.9795 213.514 93.9794L215.558 92.6727L219.372 93.9796L220.348 93.9797L220.348 97.7693Z" fill="#2F2E41"/>
<path d="M250.821 91.1322L247.715 92.4367L240.266 82.9619L244.85 81.0367L250.821 91.1322Z" fill="#FFB6B6"/>
<path d="M253.114 93.3367L243.099 97.5429L243.035 97.4362C242.52 96.565 242.437 95.557 242.803 94.6339C243.17 93.7109 243.957 92.9483 244.991 92.5141L246.128 90.5761L250.233 90.3122L251.108 89.945L253.114 93.3367Z" fill="#2F2E41"/>
<path d="M217.926 43.7045L237.062 44.2689L238.493 46.5082C238.493 46.5082 239.992 55.6697 239.224 56.3164C238.457 56.9632 238.073 56.9632 238.457 58.095C238.841 59.2269 239.833 70.0412 239.833 70.0412C239.833 70.0412 247.738 83.8587 248.122 84.6672C248.506 85.4756 248.889 85.1522 248.506 85.4756C248.166 85.7845 247.845 86.1083 247.546 86.4458H241.292C241.292 86.4458 237.924 79.2874 234.841 76.5185C232.119 74.0738 230.396 70.9601 229.921 67.6316L227.328 57.2866L221.764 73.1323C221.764 73.1323 220.804 88.8163 220.996 89.6248L221.188 90.4332L213.816 90.5026C213.816 90.5026 213.049 89.1397 213.432 88.6546C213.816 88.1695 213.793 88.3019 213.325 87.5081C212.857 86.7143 213.049 85.3692 213.049 85.3692C213.049 85.3692 215.815 53.5677 215.815 53.0826C215.83 52.833 215.775 52.584 215.656 52.3552V51.6968L216.391 49.3637L217.926 43.7045Z" fill="#2F2E41"/>
<path d="M226.177 14.4461C224.931 15.0701 224.186 16.2167 223.758 17.3834C222.967 19.5434 222.49 21.7766 222.339 24.0338L221.887 30.7913C221.662 35.1524 220.223 39.4076 217.685 43.2131C217.497 43.5028 217.389 43.8249 217.371 44.1548C217.353 44.4847 217.424 44.8139 217.579 45.1171C217.735 45.4203 217.97 45.6897 218.268 45.9046C218.565 46.1196 218.917 46.2746 219.297 46.3577C226.232 47.8913 239.369 45.9658 239.369 45.9658C239.369 45.9658 239.928 45.8086 239.369 45.3371C238.809 44.8657 237.554 42.5082 237.554 42.5082L239.046 34.2489L240.911 17.5894C238.673 15.232 234.172 13.8422 234.172 13.8422L233.009 12.0782L227.194 12.4702L226.177 14.4461Z" fill="#A4634D"/>
<path d="M229.868 11.053C232.953 11.053 235.454 8.94541 235.454 6.34561C235.454 3.7458 232.953 1.63824 229.868 1.63824C226.783 1.63824 224.282 3.7458 224.282 6.34561C224.282 8.94541 226.783 11.053 229.868 11.053Z" fill="#FFB8B8"/>
<path d="M236.751 6.06627C236.502 7.02004 236.052 7.92849 235.423 8.74868C235.256 9.02835 235.006 9.26712 234.698 9.44207C234.542 9.52642 234.356 9.56201 234.172 9.54264C233.988 9.52326 233.818 9.45016 233.691 9.33604L233.556 9.24274C233.822 9.10436 234.06 8.93032 234.26 8.72747C234.359 8.62567 234.428 8.50541 234.461 8.3767C234.494 8.24799 234.49 8.11453 234.449 7.98742C234.401 7.86207 234.297 7.75735 234.159 7.69527C234.021 7.6332 233.86 7.61859 233.709 7.65452C233.382 7.76267 233.183 8.16131 232.841 8.09982C232.564 8.04892 232.506 7.74146 232.506 7.49973C232.516 6.23591 231.792 4.43987 231.23 4.49501C230.664 4.52112 230.096 4.4571 229.557 4.30628C229.018 4.1552 228.448 4.09399 227.881 4.12603C227.841 4.13028 227.801 4.13665 227.758 4.143C227.667 3.90289 227.542 3.67291 227.385 3.45809C227.403 3.71741 227.388 3.97757 227.34 4.23418C226.889 4.39094 226.422 4.51508 225.946 4.60526C225.428 4.66676 224.288 5.97298 224.235 5.83938C224.144 5.59927 224.019 5.3693 223.863 5.15447C223.88 5.41379 223.865 5.67396 223.817 5.93057C223.815 5.94117 223.815 5.94965 223.812 5.96025C223.561 5.67822 223.407 5.33471 223.493 5.59765C222.65 3.99033 222.977 2.83892 224.303 1.48392C224.561 1.19257 224.903 0.961284 225.297 0.811722C225.494 0.738778 225.71 0.709826 225.924 0.727654C226.138 0.745483 226.344 0.809493 226.52 0.913516C227.061 0.495639 227.724 0.207252 228.442 0.0782481C229.16 -0.050756 229.905 -0.0156864 230.601 0.179823C231.983 0.584841 233.047 0.822335 233.259 2.04373C233.835 1.99062 234.418 2.07591 234.939 2.28976C235.46 2.50362 235.899 2.83733 236.205 3.2524C236.801 4.09913 236.996 5.10382 236.751 6.06627Z" fill="#2F2E41"/>
<path d="M242.713 36.6554L242.722 27.2046L234.831 27.701L237.158 33.6616L230.01 44.4502C229.482 44.5501 229 44.7773 228.623 45.1041C228.245 45.4309 227.989 45.8433 227.884 46.2908C227.78 46.7384 227.833 47.2018 228.035 47.6247C228.238 48.0475 228.583 48.4115 229.027 48.6722C229.471 48.9329 229.996 49.079 230.537 49.0928C231.078 49.1066 231.612 48.9875 232.074 48.7499C232.536 48.5124 232.906 48.1667 233.139 47.755C233.372 47.3432 233.458 46.8833 233.386 46.4313L242.713 36.6554Z" fill="#FFB6B6"/>
<path d="M240.349 17.1457C243.437 18.2665 244.135 35.1933 243.441 35.0973C241.468 34.8243 237.509 33.2414 236.325 33.7103C235.648 33.9785 234.904 29.1229 234.904 29.1229C234.904 29.1229 234.187 26.4042 233.347 22.8909C233.087 21.9014 233.129 20.8726 233.468 19.9004C233.808 18.9282 234.433 18.0441 235.287 17.3305C235.287 17.3305 237.261 16.025 240.349 17.1457Z" fill="#A4634D"/>
<path d="M49.6395 121.584C49.435 121.427 49.2739 121.234 49.1676 121.019C49.0613 120.803 49.0123 120.571 49.0241 120.338C49.0359 120.105 49.1082 119.877 49.2359 119.67C49.3635 119.463 49.5435 119.282 49.7631 119.14L47.6431 113.758L51.02 114.523L52.5155 119.516C52.7742 119.843 52.8816 120.238 52.8175 120.627C52.7534 121.016 52.5222 121.372 52.1677 121.627C51.8132 121.882 51.36 122.018 50.894 122.01C50.4281 122.002 49.9817 121.851 49.6395 121.584Z" fill="#FFB6B6"/>
<path d="M55.7597 92.346C56.32 92.6167 59.6352 91.946 60.2826 92.1368C59.9252 93.9744 61.8663 93.2848 59.7584 95.698C57.6505 98.1112 53.4048 105.347 52.4404 108.051C51.4759 110.755 52.4305 114.566 52.286 115.848C52.2162 116.59 52.2206 117.337 52.299 118.079C51.1602 118.066 50.0376 118.266 48.8809 118.138C47.6474 115.197 46.818 111.01 46.2548 108.697C45.6916 106.383 45.671 107.361 45.9293 106.204C46.1876 105.047 46.2502 105.888 45.9789 104.781C45.7075 103.674 46.8049 102.284 47.8188 101.491C48.256 100.431 48.821 99.4431 49.2537 98.3946C52.4253 96.0631 52.6339 94.7163 55.7597 92.346Z" fill="#3F3D56"/>
<path d="M85.4455 118.173C85.1715 118.206 84.8922 118.188 84.6273 118.12C84.3624 118.053 84.1184 117.937 83.9123 117.781C83.7063 117.625 83.5433 117.433 83.4349 117.219C83.3264 117.004 83.2751 116.772 83.2846 116.539L77.0068 114.498L79.8536 112.787L85.3786 114.987C85.8423 115.027 86.2728 115.208 86.5884 115.497C86.904 115.786 87.0829 116.162 87.0912 116.555C87.0994 116.948 86.9364 117.329 86.6331 117.627C86.3298 117.926 85.9073 118.12 85.4455 118.173Z" fill="#FFB6B6"/>
<path d="M62.5488 95.6078C63.1529 95.4153 64.6456 92.8322 65.2319 92.5323C66.6882 93.9327 67.2902 92.2316 68.1614 95.1368C69.0325 98.042 72.9629 105.403 74.8274 107.749C76.6919 110.095 80.7901 111.896 81.8725 112.805C82.5085 113.322 83.1949 113.794 83.9245 114.214C83.1895 114.948 82.6585 115.805 81.8068 116.476C78.3281 115.409 73.9652 113.288 71.4874 112.184C69.0096 111.079 69.893 111.715 68.9972 110.811C68.1014 109.908 68.9114 110.402 67.7249 109.875C66.5384 109.348 65.9618 107.75 65.8797 106.586C65.1868 105.628 64.6408 104.633 63.9552 103.685C63.835 100.14 62.7337 99.1479 62.5488 95.6078Z" fill="#3F3D56"/>
<path d="M67.2724 111.594L70.4054 123.375L50.3296 122.323L55.7888 110.752L67.2724 111.594Z" fill="#FFB6B6"/>
<path d="M63.9291 165.969L66.1841 165.969L67.2568 158.639H63.9287L63.9291 165.969Z" fill="#FFB6B6"/>
<path d="M63.1653 165.032L66.7302 164.852V166.139L70.1194 168.112C70.2868 168.209 70.4129 168.349 70.4792 168.511C70.5456 168.673 70.5487 168.849 70.4881 169.013C70.4276 169.176 70.3066 169.319 70.1427 169.421C69.9788 169.523 69.7807 169.577 69.5773 169.577H65.3332L64.6016 168.304L64.316 169.577H62.7158L63.1653 165.032Z" fill="#2F2E41"/>
<path d="M42.6157 165.024L44.8194 165.427L47.712 158.455L44.4594 157.861L42.6157 165.024Z" fill="#FFB6B6"/>
<path d="M42.1049 163.971L45.6338 164.433L45.31 165.691L48.1259 168.224C48.265 168.349 48.353 168.508 48.3771 168.678C48.4012 168.849 48.36 169.021 48.2597 169.17C48.1593 169.319 48.005 169.437 47.8193 169.507C47.6336 169.577 47.4263 169.595 47.2275 169.559L43.0798 168.801L42.6852 167.426L42.0858 168.619L40.522 168.333L42.1049 163.971Z" fill="#2F2E41"/>
<path d="M70.9175 133.227C69.3349 140.557 68.9392 143.721 68.9392 143.721C68.9392 143.721 70.1262 144.887 69.3349 145.554C68.5435 146.221 69.3349 147.553 69.3349 147.553L67.5555 163.711L66.1231 163.516L62.6727 163.048L61.4282 162.879L62.2196 147.72C62.2196 147.72 61.4282 146.387 61.8239 146.053C62.2196 145.72 61.4282 143.721 61.4282 143.721L60.4402 127.896L54.3107 145.221C54.3107 145.221 54.9053 145.888 54.3107 146.387C53.7183 146.886 52.5335 149.386 52.5335 149.386L48.8886 160.133L48.5791 161.046L46.6782 160.746L44.6092 160.418L44.229 160.359L43.5527 160.251L43.1172 160.182L42.9691 160.159L42.2529 160.046L42.4696 159.235L42.5823 158.809L45.6658 147.268L45.7365 147.001L45.8117 146.72C45.8117 146.72 45.416 145.888 46.0084 145.386C46.1817 145.234 46.3083 145.048 46.3772 144.845C46.4462 144.641 46.4554 144.427 46.4041 144.22C46.3847 144.203 46.3669 144.184 46.351 144.165C46.2811 144.084 46.2328 143.991 46.2096 143.893C46.1821 143.736 46.204 143.576 46.2731 143.429C46.3421 143.282 46.4559 143.153 46.603 143.054C46.7157 142.954 46.8103 142.839 46.8837 142.715C47.485 141.756 47.7878 139.724 47.7878 139.724C47.7878 139.724 48.3227 123.629 50.0734 121.17C50.1662 121.041 52.0247 118.574 52.1219 118.524C54.098 117.525 69.4937 118.904 69.4937 118.904C69.4937 118.904 70.4262 121.015 70.4682 121.235C70.6959 122.47 72.2592 127.009 70.9175 133.227Z" fill="#2F2E41"/>
<path d="M66.2395 94.4578C66.2395 94.4578 66.5726 93.0006 63.3716 90.3032C61.6769 89.8271 58.7406 90.1046 57.7226 90.3032C53.0151 95.5395 53.858 94.6155 52.6326 97.5412C52.3091 98.1993 52.1935 98.9169 52.2972 99.6238C52.8621 102.004 53.7792 114.222 53.5909 114.856C53.4026 115.491 52.0845 116.285 53.4026 116.285C54.7207 116.285 71.7186 116.034 71.342 115.558C70.9654 115.082 66.2395 94.4578 66.2395 94.4578Z" fill="#3F3D56"/>
<path d="M60.9303 89.3881C63.9121 89.3881 66.3293 87.3511 66.3293 84.8384C66.3293 82.3257 63.9121 80.2888 60.9303 80.2888C57.9485 80.2888 55.5312 82.3257 55.5312 84.8384C55.5312 87.3511 57.9485 89.3881 60.9303 89.3881Z" fill="#FFB6B6"/>
<path d="M56.3559 86.5587C56.3264 87.1104 55.916 87.5861 55.5992 88.0692C55.0467 88.9312 54.7519 89.8938 54.7403 90.8735C54.7288 91.8531 55.0008 92.8204 55.5328 93.6916C55.9735 94.396 56.5837 95.0246 56.9334 95.7644C57.1017 96.0769 57.187 96.4165 57.1832 96.7596C57.1794 97.1028 57.0867 97.441 56.9115 97.7508C55.9652 96.9835 55.5034 97.3886 54.4288 96.7189C54.8514 97.7169 54.4911 97.7494 54.9153 98.7463C53.0915 99.1852 51.2669 99.6252 49.4417 100.066C50.5623 99.2999 51.3537 98.2449 51.6946 97.0631C52.0354 95.8813 51.907 94.6379 51.329 93.5235C50.6618 92.3179 49.4692 91.3241 49.035 90.0431C48.7987 89.3498 48.8029 88.6139 49.0473 87.9226C49.2916 87.2312 49.7658 86.6133 50.4138 86.142C51.0617 85.6706 51.8563 85.3655 52.7036 85.2627C53.5509 85.1599 54.4154 85.2637 55.1948 85.5619C55.8084 85.4142 56.3856 86.0157 56.3559 86.5587Z" fill="#2F2E41"/>
<path d="M63.1376 79.7391C62.4115 78.4022 60.4958 78.6742 58.7637 78.8506C57.8988 78.963 57.0794 79.2515 56.3766 79.691C55.6738 80.1305 55.1087 80.7077 54.7303 81.3727C53.99 82.7205 53.8485 84.2475 54.3315 85.6757C54.5906 86.6485 55.209 87.527 56.0979 88.185C57.0126 88.805 61.3129 90.2711 61.6709 89.0087C61.2234 90.6557 60.059 91.5934 61.3917 92.8559C62.0819 91.1086 65.0008 89.449 65.6911 87.7017C65.795 87.4386 65.3683 84.3474 65.4722 84.0844C65.6912 83.53 65.9105 82.9747 66.0688 82.4058C66.2676 81.6911 66.3441 80.8716 65.8173 80.287C65.2905 79.7025 63.9634 79.6797 63.6972 80.3786" fill="#2F2E41"/>
<path d="M62.2684 85.3029L62.0376 84.0649C62.1944 82.5251 61.9384 80.0758 63.1376 79.7391L63.871 80.3571C63.4071 80.4874 62.5248 82.79 62.2684 85.3029Z" fill="#FF6584"/>
<path d="M114.861 169.638C114.862 169.685 114.851 169.732 114.829 169.776C114.808 169.82 114.776 169.86 114.736 169.894C114.696 169.928 114.648 169.955 114.596 169.973C114.544 169.991 114.488 170 114.431 170H13.1235C13.0094 170 12.9 169.962 12.8193 169.894C12.7387 169.826 12.6934 169.734 12.6934 169.638C12.6934 169.541 12.7387 169.449 12.8193 169.381C12.9 169.313 13.0094 169.275 13.1235 169.275H114.431C114.488 169.275 114.544 169.284 114.596 169.302C114.648 169.321 114.696 169.347 114.736 169.381C114.776 169.415 114.808 169.455 114.829 169.499C114.851 169.543 114.862 169.59 114.861 169.638Z" fill="#CCCCCC"/>
<path d="M167.895 147.112H93.4383C91.9045 147.112 90.4336 147.626 89.3491 148.54C88.2646 149.453 87.6553 150.693 87.6553 151.985C87.6553 153.278 88.2646 154.517 89.3491 155.431C90.4336 156.345 91.9045 156.859 93.4383 156.859H167.895C169.429 156.859 170.9 156.345 171.984 155.431C173.069 154.517 173.678 153.278 173.678 151.985C173.678 150.693 173.069 149.453 171.984 148.54C170.9 147.626 169.429 147.112 167.895 147.112Z" fill="#E6E6E6"/>
</g>
<defs>
<clipPath id="clip0_221_243">
<rect width="261" height="170" fill="white"/>
</clipPath>
</defs>
</svg>
