<svg width="324" height="284" viewBox="0 0 324 284" fill="none" xmlns="http://www.w3.org/2000/svg">
<g clip-path="url(#clip0_135_102)">
<path d="M176.715 273.946C176.456 273.958 176.199 273.89 175.979 273.751C175.76 273.612 175.588 273.408 175.488 273.169C175.387 272.929 175.363 272.664 175.419 272.41C175.474 272.156 175.606 271.925 175.797 271.748L175.884 271.403C175.872 271.375 175.861 271.348 175.849 271.32C175.588 270.702 175.149 270.175 174.589 269.805C174.029 269.436 173.373 269.24 172.702 269.242C172.031 269.245 171.376 269.445 170.819 269.819C170.262 270.193 169.828 270.723 169.571 271.343C168.544 273.818 167.236 276.296 166.915 278.913C166.773 280.069 166.833 281.241 167.091 282.377C164.68 277.114 163.427 271.393 163.419 265.602C163.419 264.149 163.499 262.697 163.661 261.253C163.794 260.069 163.979 258.894 164.216 257.727C165.509 251.395 168.284 245.461 172.315 240.41C174.265 239.346 175.843 237.708 176.835 235.719C177.194 235.003 177.448 234.24 177.589 233.452C177.369 233.481 176.759 230.128 176.925 229.922C176.618 229.457 176.069 229.225 175.734 228.771C174.069 226.512 171.774 226.906 170.576 229.976C168.017 231.269 167.992 233.412 169.562 235.473C170.561 236.785 170.699 238.559 171.575 239.963C171.485 240.078 171.391 240.19 171.301 240.306C169.652 242.427 168.216 244.704 167.011 247.105C167.304 244.415 166.954 241.694 165.991 239.165C165.015 236.809 163.185 234.824 161.573 232.787C159.637 230.34 155.668 231.408 155.327 234.51C155.323 234.54 155.32 234.57 155.317 234.6C155.556 234.735 155.791 234.878 156.02 235.03C156.308 235.222 156.531 235.498 156.66 235.819C156.789 236.141 156.818 236.494 156.743 236.832C156.669 237.171 156.493 237.478 156.24 237.715C155.988 237.952 155.669 238.107 155.327 238.16L155.292 238.166C155.377 239.029 155.528 239.884 155.743 240.724C153.675 248.724 158.139 251.637 164.512 251.768C164.653 251.841 164.79 251.913 164.931 251.981C163.72 255.413 162.961 258.987 162.672 262.614C162.509 264.754 162.518 266.903 162.701 269.042L162.69 268.966C162.229 266.588 160.961 264.442 159.101 262.892C156.339 260.621 152.437 259.786 149.457 257.961C149.14 257.757 148.772 257.649 148.395 257.648C148.019 257.647 147.65 257.754 147.333 257.956C147.015 258.157 146.762 258.446 146.603 258.787C146.443 259.128 146.385 259.508 146.435 259.881C146.439 259.908 146.443 259.934 146.447 259.961C146.891 260.142 147.323 260.351 147.742 260.585C147.981 260.721 148.215 260.864 148.445 261.016C148.733 261.208 148.956 261.483 149.085 261.805C149.214 262.126 149.243 262.479 149.168 262.818C149.093 263.156 148.918 263.464 148.665 263.701C148.412 263.938 148.094 264.093 147.752 264.146L147.717 264.151C147.691 264.155 147.67 264.158 147.644 264.162C148.403 265.975 149.469 267.644 150.794 269.096C152.086 276.079 157.639 276.741 163.578 274.708H163.581C164.233 277.541 165.177 280.299 166.399 282.937H176.463C176.499 282.825 176.532 282.709 176.564 282.597C175.633 282.656 174.697 282.6 173.779 282.431C174.526 281.515 175.273 280.591 176.019 279.674C176.036 279.657 176.052 279.639 176.066 279.62C176.445 279.151 176.827 278.685 177.206 278.216L177.206 278.215C177.227 276.777 177.061 275.342 176.715 273.946Z" fill="#A4634D"/>
<path d="M161.804 114.729C150.464 114.729 139.379 111.365 129.95 105.061C120.521 98.758 113.172 89.7989 108.833 79.3169C104.493 68.835 103.358 57.3009 105.57 46.1732C107.782 35.0456 113.243 24.8242 121.262 16.8017C129.28 8.7791 139.496 3.31566 150.618 1.10224C161.74 -1.11118 173.269 0.0248237 183.745 4.36661C194.222 8.70839 203.176 16.0609 209.477 25.4945C215.777 34.928 219.139 46.0189 219.139 57.3645C219.122 72.5732 213.076 87.1541 202.327 97.9083C191.578 108.662 177.005 114.712 161.804 114.729ZM161.804 0.903373C150.643 0.903373 139.732 4.21476 130.452 10.4188C121.171 16.6228 113.938 25.4408 109.667 35.7578C105.396 46.0747 104.278 57.4271 106.456 68.3795C108.633 79.3319 114.008 89.3923 121.9 97.2885C129.792 105.185 139.848 110.562 150.794 112.741C161.741 114.919 173.088 113.801 183.4 109.528C193.711 105.254 202.525 98.0176 208.726 88.7326C214.927 79.4476 218.236 68.5314 218.236 57.3645C218.22 42.3953 212.269 28.044 201.689 17.4591C191.11 6.87429 176.766 0.92029 161.804 0.903373Z" fill="#F2F2F2"/>
<path d="M168.095 78.1422H155.905C155.307 78.1422 154.732 77.9042 154.309 77.4807C153.886 77.0572 153.648 76.4827 153.648 75.8838C153.648 75.2848 153.886 74.7103 154.309 74.2868C154.732 73.8633 155.307 73.6253 155.905 73.6253H168.095C168.693 73.6253 169.268 73.8633 169.691 74.2868C170.114 74.7103 170.352 75.2848 170.352 75.8838C170.352 76.4827 170.114 77.0572 169.691 77.4807C169.268 77.9042 168.693 78.1422 168.095 78.1422Z" fill="#E6E6E6"/>
<path d="M170.895 143.69H153.105C152.231 143.69 151.393 143.343 150.775 142.725C150.158 142.106 149.811 141.268 149.811 140.394C149.811 139.52 150.158 138.681 150.775 138.063C151.393 137.445 152.231 137.098 153.105 137.098H170.895C171.769 137.098 172.607 137.445 173.225 138.063C173.842 138.681 174.189 139.52 174.189 140.394C174.189 141.268 173.842 142.106 173.225 142.725C172.607 143.343 171.769 143.69 170.895 143.69Z" fill="#A4634D"/>
<path d="M221.463 129.874H102.537C101.477 129.873 100.461 129.451 99.7122 128.702C98.9629 127.952 98.5414 126.936 98.5402 125.875V90.4022C98.5414 89.342 98.9629 88.3256 99.7122 87.576C100.461 86.8263 101.477 86.4046 102.537 86.4034H221.463C222.523 86.4046 223.539 86.8263 224.288 87.576C225.037 88.3256 225.459 89.342 225.46 90.4022V125.875C225.459 126.936 225.037 127.952 224.288 128.702C223.539 129.451 222.523 129.873 221.463 129.874Z" fill="#E6E6E6"/>
<path d="M209.908 127.177H105.234C104.174 127.176 103.158 126.754 102.409 126.004C101.659 125.255 101.238 124.238 101.237 123.178V93.1017C101.238 92.0415 101.659 91.0251 102.409 90.2754C103.158 89.5257 104.174 89.104 105.234 89.1028H218.767C219.827 89.104 220.843 89.5257 221.592 90.2754C222.341 91.0251 222.763 92.0415 222.764 93.1017V114.314C222.76 117.725 221.404 120.994 218.994 123.405C216.584 125.817 213.316 127.173 209.908 127.177Z" fill="white"/>
<path d="M173.801 99.7994H126.002C125.729 99.7994 125.467 99.6908 125.273 99.4974C125.08 99.304 124.971 99.0416 124.971 98.7681C124.971 98.4946 125.08 98.2323 125.273 98.0389C125.467 97.8455 125.729 97.7368 126.002 97.7368H173.801C174.075 97.7368 174.337 97.8455 174.53 98.0389C174.723 98.2323 174.832 98.4946 174.832 98.7681C174.832 99.0416 174.723 99.304 174.53 99.4974C174.337 99.6908 174.075 99.7994 173.801 99.7994Z" fill="#A4634D"/>
<path d="M197.998 104.018H126.002C125.729 104.018 125.467 103.909 125.273 103.715C125.08 103.522 124.971 103.26 124.971 102.986C124.971 102.713 125.08 102.45 125.273 102.257C125.467 102.064 125.729 101.955 126.002 101.955H197.998C198.271 101.955 198.534 102.064 198.727 102.257C198.92 102.45 199.029 102.713 199.029 102.986C199.029 103.26 198.92 103.522 198.727 103.715C198.534 103.909 198.271 104.018 197.998 104.018Z" fill="#E6E6E6"/>
<path d="M197.998 108.859H126.002C125.867 108.86 125.732 108.833 125.607 108.781C125.482 108.73 125.368 108.654 125.272 108.558C125.176 108.462 125.1 108.348 125.048 108.223C124.996 108.098 124.969 107.964 124.969 107.828C124.969 107.692 124.996 107.558 125.048 107.433C125.1 107.308 125.176 107.194 125.272 107.098C125.368 107.002 125.482 106.926 125.607 106.875C125.732 106.823 125.867 106.796 126.002 106.797H197.998C198.271 106.797 198.533 106.906 198.726 107.1C198.918 107.293 199.027 107.555 199.027 107.828C199.027 108.101 198.918 108.363 198.726 108.557C198.533 108.75 198.271 108.859 197.998 108.859Z" fill="#E6E6E6"/>
<path d="M197.998 113.701H126.002C125.867 113.701 125.732 113.675 125.607 113.623C125.482 113.572 125.368 113.496 125.272 113.4C125.176 113.304 125.1 113.19 125.048 113.065C124.996 112.94 124.969 112.805 124.969 112.67C124.969 112.534 124.996 112.4 125.048 112.275C125.1 112.149 125.176 112.036 125.272 111.94C125.368 111.844 125.482 111.768 125.607 111.716C125.732 111.665 125.867 111.638 126.002 111.639H197.998C198.271 111.639 198.533 111.748 198.726 111.941C198.918 112.135 199.027 112.397 199.027 112.67C199.027 112.943 198.918 113.205 198.726 113.398C198.533 113.592 198.271 113.701 197.998 113.701Z" fill="#E6E6E6"/>
<path d="M197.998 118.543H126.002C125.867 118.543 125.732 118.517 125.607 118.465C125.482 118.413 125.368 118.337 125.272 118.242C125.176 118.146 125.1 118.032 125.048 117.907C124.996 117.782 124.969 117.647 124.969 117.512C124.969 117.376 124.996 117.242 125.048 117.117C125.1 116.991 125.176 116.877 125.272 116.782C125.368 116.686 125.482 116.61 125.607 116.558C125.732 116.507 125.867 116.48 126.002 116.48H197.998C198.271 116.481 198.533 116.59 198.726 116.783C198.918 116.977 199.027 117.239 199.027 117.512C199.027 117.785 198.918 118.047 198.726 118.24C198.533 118.434 198.271 118.542 197.998 118.543Z" fill="#E6E6E6"/>
<path d="M261.256 278.166L256.424 278.166L254.126 259.521L261.257 259.522L261.256 278.166Z" fill="#A0616A"/>
<path d="M261.426 283.209L246.569 283.208V283.02C246.569 281.486 247.178 280.015 248.263 278.93C249.347 277.845 250.818 277.235 252.352 277.235L255.066 275.175L260.129 277.235L261.426 277.235L261.426 283.209Z" fill="#2F2E41"/>
<path d="M300.754 271.977L296.425 274.122L286.092 258.437L292.482 255.27L300.754 271.977Z" fill="#A0616A"/>
<path d="M303.144 276.42L289.831 283.018L289.748 282.85C289.067 281.475 288.96 279.886 289.45 278.432C289.94 276.978 290.988 275.779 292.362 275.097L293.88 272.046L299.331 271.643L300.493 271.067L303.144 276.42Z" fill="#2F2E41"/>
<path d="M246.943 177.949C246.943 177.949 241.444 185.62 245.413 198.872C249.383 212.124 247.154 223.971 248.269 226.347C249.383 228.723 251.626 230.979 249.773 232.78C247.919 234.581 246.943 236.046 248.407 236.534C249.871 237.022 254.751 271.197 254.751 271.197L263.046 271.685C263.046 271.685 266.051 255.81 262.84 242.999C262.84 242.999 263.545 233.698 262.076 230.966C260.606 228.234 260.894 230.699 260.994 227.27C261.049 224.79 261.411 222.326 262.07 219.935C262.558 217.982 262.84 198.3 262.84 198.3L270.916 224.419C271.24 225.319 271.361 226.279 271.272 227.231C271.072 228.577 271.07 230.587 271.315 231.291C271.56 231.994 271.833 232.142 271.696 233.533C271.56 234.923 287.813 264.238 287.813 264.238L295.888 258.818L287.932 233.117C287.142 232.241 286.484 231.254 285.98 230.187C285.004 228.234 284.966 228.127 285.473 226.716C285.98 225.305 285.98 222.557 285.98 221.734C285.98 220.911 286.487 183.565 280.134 178.072C273.781 172.579 246.943 177.949 246.943 177.949Z" fill="#2F2E41"/>
<path d="M276.774 118.534L275.121 113.826L270.606 109.309L262.279 108.314L256.857 111.88L251.837 116.832L244.421 178.417C244.421 178.417 279.447 191.928 284.036 180.589L276.774 118.534Z" fill="#CCCCCC"/>
<path d="M279.613 118.534L274.748 113.666C274.748 113.666 272.424 144.775 273.414 146.963C274.404 149.151 275.57 148.592 274.31 149.775C273.05 150.957 271.696 149.784 273.05 151.951C273.848 153.167 274.24 154.605 274.168 156.057C274.168 156.057 281.176 200.191 285.239 200.191C289.303 200.191 291.846 199.001 291.703 197.79C291.56 196.578 289.163 193.561 289.91 192.811C290.657 192.061 292.498 192.627 290.675 191.215C288.851 189.803 287.948 190.254 288.4 188.448C288.851 186.641 285.4 163.219 285.4 163.219L285.063 124.096L279.613 118.534Z" fill="#3F3D56"/>
<path d="M256.857 111.88L250.557 112.772L243.067 115.632C243.067 115.632 246.488 154.244 245.774 155.537C245.059 156.829 243.79 156.022 244.876 157.329C245.962 158.636 246.939 158.056 245.774 159.25C244.608 160.443 242.646 158.931 243.852 161.042C245.059 163.153 239.244 192.216 240.81 193.775C242.375 195.334 246.41 194.363 246.412 193.212C246.289 191.972 245.82 190.79 245.059 189.803C244.841 189.552 244.721 189.231 244.721 188.899C244.721 188.567 244.841 188.246 245.059 187.996C245.699 187.38 246.138 186.586 246.32 185.717C246.414 184.834 247.103 183.749 247.436 182.937C247.768 182.124 256.139 127.112 256.139 127.112L256.857 111.88Z" fill="#3F3D56"/>
<path d="M229.974 142.282L232.816 140.798C229.268 137.596 220.465 132.357 220.465 132.357L205.293 122.124C205.071 121.601 204.715 121.145 204.261 120.804C203.807 120.462 203.271 120.246 202.708 120.177C202.144 120.108 201.572 120.19 201.049 120.412C200.526 120.635 200.072 120.992 199.731 121.446C199.39 121.901 199.174 122.437 199.106 123.002C199.038 123.566 199.12 124.138 199.344 124.661C199.567 125.184 199.924 125.638 200.379 125.979C200.833 126.319 201.37 126.534 201.934 126.601L218.937 141.842L229.974 142.282Z" fill="#A0616A"/>
<path d="M250.742 130.99L250.773 118.508L243.842 115.192L226.363 133.7L225.008 132.797H221.848L214.173 141.83C214.173 141.83 218.261 144.254 220.28 143.268C222.3 142.282 222.11 143.699 222.11 143.699C222.409 144.076 222.827 144.341 223.296 144.451C223.764 144.561 224.256 144.51 224.692 144.307C226.363 143.637 229.523 145.444 229.523 145.444L250.742 130.99Z" fill="#3F3D56"/>
<path d="M267.353 105.447C272.934 105.447 277.459 100.92 277.459 95.335C277.459 89.7505 272.934 85.2234 267.353 85.2234C261.771 85.2234 257.246 89.7505 257.246 95.335C257.246 100.92 261.771 105.447 267.353 105.447Z" fill="#A0616A"/>
<path d="M279.553 97.9023C278.599 99.7705 277.318 101.453 275.772 102.87C275.328 103.374 274.761 103.757 274.127 103.979C273.808 104.083 273.463 104.072 273.152 103.948C272.84 103.823 272.582 103.594 272.423 103.298L272.235 103.042C272.777 102.877 273.288 102.624 273.748 102.294C273.977 102.127 274.163 101.909 274.29 101.657C274.417 101.404 274.482 101.125 274.48 100.842C274.464 100.559 274.338 100.294 274.131 100.102C273.923 99.91 273.649 99.8059 273.366 99.8117C272.734 99.8869 272.17 100.624 271.604 100.34C271.148 100.108 271.213 99.4423 271.344 98.9399C272.047 96.3178 271.753 92.2535 270.741 92.1115C269.734 91.9065 268.775 91.5138 267.914 90.9539C267.052 90.3931 266.089 90.0055 265.078 89.8127C265.005 89.8031 264.932 89.7979 264.853 89.7916C264.824 89.2509 264.73 88.7158 264.573 88.1978C264.463 88.7448 264.295 89.2785 264.073 89.79C263.197 89.9094 262.314 89.9541 261.431 89.9236C260.49 89.8144 257.786 92.0077 257.766 91.7059C257.737 91.1653 257.643 90.6301 257.486 90.1121C257.376 90.6591 257.208 91.1929 256.985 91.7044C256.975 91.7253 256.971 91.7429 256.961 91.7638C256.673 91.0625 256.591 90.2784 256.598 90.864C255.994 87.1379 257.191 84.8944 260.248 82.6848C260.858 82.1975 261.583 81.8733 262.352 81.7424C262.737 81.6809 263.131 81.7196 263.496 81.8546C263.861 81.9896 264.186 82.2165 264.438 82.5133C265.612 81.8922 266.93 81.5964 268.256 81.6565C269.582 81.7167 270.868 82.1305 271.981 82.8553C274.179 84.3289 275.914 85.3094 275.621 87.9445C277.705 88.1453 279.465 89.8199 280.124 91.8043C280.776 93.7921 280.437 96.0102 279.553 97.9023Z" fill="#2F2E41"/>
<path d="M292.453 150.591L285.203 149.552C282.75 153.655 281.879 164.574 281.879 164.574L274.783 181.449C274.313 181.768 273.935 182.206 273.688 182.718C273.441 183.229 273.333 183.797 273.375 184.364C273.417 184.931 273.607 185.477 273.927 185.946C274.247 186.416 274.684 186.793 275.196 187.04C275.708 187.287 276.276 187.394 276.842 187.352C277.409 187.309 277.954 187.118 278.423 186.797C278.892 186.477 279.269 186.039 279.515 185.526C279.761 185.014 279.868 184.446 279.824 183.879L291.475 164.238L292.453 150.591Z" fill="#A0616A"/>
<path d="M275.758 125.436L278.831 121.202L285.061 124.099L290.242 144.096C290.242 144.096 294.026 146.56 293.219 148.298C292.412 150.036 291.983 151.438 292.817 152.434C293.652 153.43 296.082 153.503 294.271 155.127C292.461 156.75 294.011 160.993 294.011 160.993L292.276 164.866L281.441 164.415L275.758 125.436Z" fill="#3F3D56"/>
<path d="M25.1636 187.458C25.8475 186.921 26.295 186.138 26.411 185.276C26.5269 184.414 26.3021 183.541 25.7844 182.842C25.6769 182.702 25.558 182.571 25.4289 182.45L30.0555 171.761L25.4604 167.504L20.7048 182.832C20.2459 183.407 19.99 184.117 19.9769 184.852C19.9639 185.587 20.1945 186.306 20.6327 186.896C20.8853 187.23 21.2011 187.51 21.5621 187.722C21.923 187.933 22.322 188.071 22.7363 188.129C23.1507 188.186 23.5722 188.161 23.9768 188.055C24.3814 187.949 24.7612 187.764 25.0946 187.512C25.1178 187.494 25.1408 187.476 25.1636 187.458Z" fill="#FFB6B6"/>
<path d="M52.0424 118.117C52.0424 118.117 48.6176 111.603 40.6728 118.637C32.7281 125.672 23.3398 160.883 23.5221 162.207C23.7045 163.531 25.6463 163.007 23.1902 164.913C20.734 166.819 19.3759 165.107 20.734 166.819C22.092 168.532 25.129 170.346 22.44 170.601C19.751 170.855 29.6085 175.098 29.6085 175.098C29.6085 175.098 31.159 174.726 31.6347 171.147C31.9019 169.136 30.9965 167.995 32.5903 167.66C34.184 167.325 32.6902 163.689 32.9196 163.117C33.149 162.545 45.8745 137.56 45.8745 137.56L52.0424 118.117Z" fill="#A4634D"/>
<path d="M67.6826 277.204L73.4351 277.204L76.1723 255.001L67.6812 255.002L67.6826 277.204Z" fill="#FFB6B6"/>
<path d="M67.4796 283.209L85.1715 283.208V282.984C85.1713 281.157 84.4458 279.405 83.1544 278.113C81.863 276.821 80.1116 276.095 78.2853 276.095H78.2849L75.0532 273.642L69.0237 276.095L67.4793 276.095L67.4796 283.209Z" fill="#2F2E41"/>
<path d="M27.3572 266.616L32.0632 269.927L47.0671 253.34L40.1204 248.454L27.3572 266.616Z" fill="#FFB6B6"/>
<path d="M23.7392 271.411L38.2117 281.592L38.3404 281.409C39.3908 279.915 39.8047 278.064 39.4911 276.264C39.1776 274.464 38.1622 272.862 36.6683 271.811L35.4347 267.944L29.092 266.481L27.8287 265.592L23.7392 271.411Z" fill="#2F2E41"/>
<path d="M44.7601 166.748L44.282 167.77C41.1398 174.486 40.3364 181.994 41.5575 189.308C41.6483 189.594 41.631 189.903 41.5088 190.176C40.7515 191.065 41.9396 194.926 42.6207 197.082L43.2345 200.894C43.2345 200.894 42.2166 204.435 43.7627 204.175C45.3088 203.915 43.0065 207.691 44.4813 208.637L48.3069 232.398L32.3461 258.717L38.2575 267.293L61.9031 236.833L62.1987 209.332L65.7455 231.511L66.0411 266.405L76.7954 265.262L80.7355 231.431L76.9772 184.644L71.0658 164.358L44.7601 166.748Z" fill="#2F2E41"/>
<path d="M52.149 105.835L60.8492 106.25L65.0096 113.441C66.8546 113.994 68.5516 114.956 69.9756 116.253C71.3995 117.551 72.5139 119.152 73.2366 120.939L75.9457 127.635L72.8638 166.353C72.8638 166.353 72.2461 168.695 73.3836 168.353C74.521 168.011 74.0574 170.946 74.0574 170.946L78.2497 187.078L40.1344 183.762L42.2508 166.67C42.2508 166.67 39.3083 166.765 41.3772 164.695C43.4462 162.625 44.4524 163.284 42.4649 160.837C40.4774 158.39 40.1818 156.616 40.1818 156.616L39.2951 144.491L37.8332 127.428C37.6013 124.72 38.0456 121.997 39.1263 119.504C40.2069 117.011 41.89 114.826 44.0242 113.145L52.149 105.835Z" fill="#A4634D"/>
<path d="M56.6606 103.838C62.7542 103.838 67.694 98.896 67.694 92.7993C67.694 86.7027 62.7542 81.7603 56.6606 81.7603C50.5669 81.7603 45.6271 86.7027 45.6271 92.7993C45.6271 98.896 50.5669 103.838 56.6606 103.838Z" fill="#FFB6B6"/>
<path d="M52.3973 102.934C55.5634 102.83 55.8511 101.993 59.0172 101.889C60.0254 101.856 61.215 101.718 61.7024 100.834C61.8443 100.503 61.9075 100.144 61.887 99.784C61.8665 99.4244 61.7629 99.0745 61.5843 98.7617C61.2231 98.1409 60.8974 97.5 60.609 96.8421C60.4352 96.3261 60.3896 95.7756 60.4762 95.2381C60.5627 94.7006 60.7788 94.1922 61.1057 93.757C61.4326 93.3218 61.8606 92.9727 62.3526 92.7401C62.8445 92.5074 63.3857 92.3981 63.9294 92.4216C64.8929 92.4633 65.7978 92.9166 66.7587 92.9995C68.0764 93.1131 70.9903 88.76 70.3836 87.5842C69.793 86.4396 68.6045 85.576 68.4177 84.3015C68.2956 83.468 68.6395 82.6397 68.6865 81.7985C68.7561 80.5513 65.5962 83.3635 66.1749 82.2567C67.5945 79.5414 54.2169 76.1752 52.0145 79.5763C51.1914 80.8475 49.7245 80.7608 48.417 81.5242C47.5601 82.0245 45.3962 83.7506 44.9043 84.8265C44.4522 85.9243 44.2386 87.1057 44.2776 88.2923C44.2578 93.8112 45.0982 98.8877 49.5475 102.15" fill="#2F2E41"/>
<path d="M83.7199 186.983C83.0693 186.407 82.6692 185.599 82.6049 184.731C82.5406 183.864 82.8171 183.006 83.3756 182.339C83.4913 182.205 83.6178 182.081 83.7539 181.969L79.7733 171.022L84.6142 167.047L88.4467 182.632C88.8705 183.233 89.0837 183.957 89.0528 184.692C89.0219 185.427 88.7489 186.13 88.2762 186.694C88.0041 187.011 87.6722 187.272 87.2993 187.462C86.9264 187.651 86.5198 187.766 86.1028 187.798C85.6858 187.83 85.2666 187.78 84.869 187.65C84.4714 187.52 84.1032 187.313 83.7856 187.041C83.7634 187.022 83.7416 187.003 83.7199 186.983Z" fill="#FFB6B6"/>
<path d="M61.0263 116.161C61.0263 116.161 64.8336 109.863 72.3445 117.359C79.8554 124.856 87.126 160.565 86.865 161.876C86.6041 163.186 84.6969 162.548 87.035 164.597C89.373 166.646 90.8308 165.018 89.373 166.646C87.9152 168.274 84.7755 169.904 87.4445 170.319C90.1135 170.734 80.0203 174.381 80.0203 174.381C80.0203 174.381 78.4949 173.916 78.2336 170.315C78.0868 168.292 79.0587 167.207 77.4877 166.777C75.9168 166.347 77.6249 162.807 77.4301 162.223C77.2352 161.638 66.0231 135.937 66.0231 135.937L61.0263 116.161Z" fill="#A4634D"/>
<path d="M170.81 56.1317C170.811 57.9188 170.282 59.666 169.29 61.1522C168.298 62.6384 166.887 63.7969 165.237 64.4813C163.587 65.1656 161.771 65.345 160.019 64.9968C158.267 64.6486 156.658 63.7884 155.394 62.525C154.131 61.2616 153.27 59.6517 152.921 57.899C152.573 56.1462 152.751 54.3294 153.434 52.6781C154.117 51.0268 155.275 49.6152 156.759 48.622C158.244 47.6287 159.99 47.0983 161.777 47.0979C162.963 47.0963 164.138 47.3288 165.235 47.7822C166.331 48.2356 167.327 48.9009 168.166 49.74C169.006 50.5791 169.671 51.5756 170.125 52.6724C170.578 53.7691 170.811 54.9447 170.81 56.1317Z" fill="#A4634D"/>
<path d="M161.978 57.4412C163.723 57.4412 165.138 56.0256 165.138 54.2793C165.138 52.5331 163.723 51.1175 161.978 51.1175C160.233 51.1175 158.818 52.5331 158.818 54.2793C158.818 56.0256 160.233 57.4412 161.978 57.4412Z" fill="white"/>
<path d="M165.366 58.5708H158.594C158.175 58.5712 157.773 58.7379 157.477 59.0343C157.181 59.3307 157.014 59.7325 157.014 60.1517C157.11 61.5057 157.322 62.8491 157.646 64.1672C159.004 64.8674 160.518 65.2111 162.045 65.1661C163.572 65.121 165.063 64.6887 166.377 63.9097C166.667 62.6743 166.857 61.4176 166.946 60.1517C166.945 59.7325 166.779 59.3307 166.483 59.0343C166.186 58.7379 165.785 58.5712 165.366 58.5708Z" fill="white"/>
<path d="M2.37785e-06 283.463C-0.000208034 283.533 0.0135478 283.603 0.0404738 283.668C0.0673997 283.734 0.106962 283.793 0.156894 283.843C0.206826 283.893 0.266141 283.933 0.33142 283.96C0.396699 283.986 0.466657 284 0.53727 284H323.463C323.605 284 323.742 283.943 323.843 283.843C323.943 283.742 324 283.605 324 283.463C324 283.32 323.943 283.183 323.843 283.082C323.742 282.982 323.605 282.925 323.463 282.925H0.53727C0.466658 282.925 0.396698 282.939 0.33142 282.965C0.266142 282.992 0.206832 283.032 0.1569 283.082C0.106969 283.132 0.0674006 283.191 0.0404738 283.257C0.013547 283.322 -0.000205638 283.392 2.37785e-06 283.463Z" fill="#CCCCCC"/>
</g>
<defs>
<clipPath id="clip0_135_102">
<rect width="324" height="284" fill="white"/>
</clipPath>
</defs>
</svg>
