<svg width="248" height="204" viewBox="0 0 248 204" fill="none" xmlns="http://www.w3.org/2000/svg">
<g clip-path="url(#clip0_221_243)">
<path d="M224.47 195.175H23.5309C20.0125 195.175 16.5388 194.335 13.3659 192.717C10.1929 191.099 7.40132 188.744 5.19682 185.826C2.99233 182.907 1.43102 179.5 0.627888 175.854C-0.175243 172.209 -0.19974 168.418 0.556199 164.761L9.5315 121.345H238.469L247.444 164.761C248.2 168.418 248.176 172.209 247.373 175.854C246.569 179.5 245.008 182.907 242.804 185.826C240.599 188.744 237.808 191.099 234.635 192.717C231.462 194.335 227.988 195.175 224.47 195.175ZM10.0835 122.076L1.22696 164.918C0.493118 168.468 0.516916 172.148 1.29661 175.688C2.0763 179.227 3.59203 182.535 5.73216 185.368C7.87229 188.201 10.5823 190.487 13.6627 192.058C16.743 193.628 20.1152 194.444 23.5309 194.444H224.47C227.885 194.444 231.257 193.628 234.338 192.058C237.418 190.487 240.128 188.201 242.268 185.368C244.408 182.535 245.924 179.227 246.704 175.688C247.484 172.148 247.507 168.468 246.773 164.918L237.917 122.076H10.0835Z" fill="#F2F2F2"/>
<path d="M198.955 28.6467L209.495 26.975L207.83 19.172L201.511 22.5589L188.474 17.3299C188.288 16.8195 187.967 16.3777 187.549 16.0582C187.131 15.7388 186.635 15.5556 186.122 15.5309C185.608 15.5063 185.099 15.6412 184.656 15.9194C184.213 16.1975 183.855 16.6068 183.627 17.0973C183.399 17.5878 183.31 18.1384 183.371 18.6819C183.431 19.2254 183.639 19.7383 183.969 20.1581C184.299 20.5779 184.737 20.8865 185.229 21.0462C185.721 21.2059 186.246 21.2099 186.74 21.0576L198.955 28.6467Z" fill="#FFB6B6"/>
<path d="M220.378 22.8136C219.563 26.1011 200.786 29.8094 200.795 29.0982C200.822 27.0768 202.029 22.8355 201.339 21.7351C200.945 21.1059 206.255 19.498 206.255 19.498C206.255 19.498 209.186 18.2975 212.985 16.8324C214.052 16.3969 215.205 16.2559 216.337 16.4223C217.469 16.5888 218.543 17.0573 219.459 17.7843C219.459 17.7843 221.193 19.526 220.378 22.8136Z" fill="#A4634D"/>
<path d="M38.7283 159.72H32.203C30.7456 159.72 29.348 160.336 28.3175 161.433C27.2869 162.53 26.708 164.017 26.708 165.568C26.708 167.119 27.2869 168.607 28.3175 169.703C29.348 170.8 30.7456 171.416 32.203 171.416H38.7283C40.1857 171.416 41.5833 170.8 42.6138 169.703C43.6444 168.607 44.2233 167.119 44.2233 165.568C44.2233 164.017 43.6444 162.53 42.6138 161.433C41.5833 160.336 40.1857 159.72 38.7283 159.72Z" fill="#E6E6E6"/>
<path d="M59.678 159.72H53.1527C51.6953 159.72 50.2977 160.336 49.2672 161.433C48.2367 162.53 47.6577 164.017 47.6577 165.568C47.6577 167.119 48.2367 168.607 49.2672 169.703C50.2977 170.8 51.6953 171.416 53.1527 171.416H59.678C61.1354 171.416 62.533 170.8 63.5635 169.703C64.5941 168.607 65.173 167.119 65.173 165.568C65.173 164.017 64.5941 162.53 63.5635 161.433C62.533 160.336 61.1354 159.72 59.678 159.72Z" fill="#E6E6E6"/>
<path d="M80.6277 159.72H74.1024C72.645 159.72 71.2474 160.336 70.2169 161.433C69.1864 162.53 68.6074 164.017 68.6074 165.568C68.6074 167.119 69.1864 168.607 70.2169 169.703C71.2474 170.8 72.645 171.416 74.1024 171.416H80.6277C82.0851 171.416 83.4827 170.8 84.5133 169.703C85.5438 168.607 86.1227 167.119 86.1227 165.568C86.1227 164.017 85.5438 162.53 84.5133 161.433C83.4827 160.336 82.0851 159.72 80.6277 159.72Z" fill="#E6E6E6"/>
<path d="M101.577 159.72H95.0521C93.5948 159.72 92.1971 160.336 91.1666 161.433C90.1361 162.53 89.5571 164.017 89.5571 165.568C89.5571 167.119 90.1361 168.607 91.1666 169.703C92.1971 170.8 93.5948 171.416 95.0521 171.416H101.577C103.035 171.416 104.432 170.8 105.463 169.703C106.493 168.607 107.072 167.119 107.072 165.568C107.072 164.017 106.493 162.53 105.463 161.433C104.432 160.336 103.035 159.72 101.577 159.72Z" fill="#E6E6E6"/>
<path d="M122.527 159.72H116.001C114.544 159.72 113.146 160.336 112.116 161.433C111.085 162.53 110.506 164.017 110.506 165.568C110.506 167.119 111.085 168.607 112.116 169.703C113.146 170.8 114.544 171.416 116.001 171.416H122.527C123.984 171.416 125.382 170.8 126.412 169.703C127.443 168.607 128.022 167.119 128.022 165.568C128.022 164.017 127.443 162.53 126.412 161.433C125.382 160.336 123.984 159.72 122.527 159.72Z" fill="#E6E6E6"/>
<path d="M143.476 159.72H136.951C135.494 159.72 134.096 160.336 133.065 161.433C132.035 162.53 131.456 164.017 131.456 165.568C131.456 167.119 132.035 168.607 133.065 169.703C134.096 170.8 135.494 171.416 136.951 171.416H143.476C144.934 171.416 146.331 170.8 147.362 169.703C148.392 168.607 148.971 167.119 148.971 165.568C148.971 164.017 148.392 162.53 147.362 161.433C146.331 160.336 144.934 159.72 143.476 159.72Z" fill="#E6E6E6"/>
<path d="M164.426 159.72H157.901C156.443 159.72 155.046 160.336 154.015 161.433C152.985 162.53 152.406 164.017 152.406 165.568C152.406 167.119 152.985 168.607 154.015 169.703C155.046 170.8 156.443 171.416 157.901 171.416H164.426C165.883 171.416 167.281 170.8 168.312 169.703C169.342 168.607 169.921 167.119 169.921 165.568C169.921 164.017 169.342 162.53 168.312 161.433C167.281 160.336 165.883 159.72 164.426 159.72Z" fill="#E6E6E6"/>
<path d="M185.376 159.72H178.85C177.393 159.72 175.995 160.336 174.965 161.433C173.934 162.53 173.355 164.017 173.355 165.568C173.355 167.119 173.934 168.607 174.965 169.703C175.995 170.8 177.393 171.416 178.85 171.416H185.376C186.833 171.416 188.231 170.8 189.261 169.703C190.292 168.607 190.871 167.119 190.871 165.568C190.871 164.017 190.292 162.53 189.261 161.433C188.231 160.336 186.833 159.72 185.376 159.72Z" fill="#E6E6E6"/>
<path d="M206.325 159.72H199.8C198.343 159.72 196.945 160.336 195.915 161.433C194.884 162.53 194.305 164.017 194.305 165.568C194.305 167.119 194.884 168.607 195.915 169.703C196.945 170.8 198.343 171.416 199.8 171.416H206.325C207.783 171.416 209.18 170.8 210.211 169.703C211.242 168.607 211.82 167.119 211.82 165.568C211.82 164.017 211.242 162.53 210.211 161.433C209.18 160.336 207.783 159.72 206.325 159.72Z" fill="#E6E6E6"/>
<path d="M38.7283 135.232H32.203C30.7456 135.232 29.348 135.848 28.3175 136.945C27.2869 138.042 26.708 139.529 26.708 141.08C26.708 142.631 27.2869 144.118 28.3175 145.215C29.348 146.312 30.7456 146.928 32.203 146.928H38.7283C40.1857 146.928 41.5833 146.312 42.6138 145.215C43.6444 144.118 44.2233 142.631 44.2233 141.08C44.2233 139.529 43.6444 138.042 42.6138 136.945C41.5833 135.848 40.1857 135.232 38.7283 135.232Z" fill="#E6E6E6"/>
<path d="M59.678 135.232H53.1527C51.6953 135.232 50.2977 135.848 49.2672 136.945C48.2367 138.042 47.6577 139.529 47.6577 141.08C47.6577 142.631 48.2367 144.118 49.2672 145.215C50.2977 146.312 51.6953 146.928 53.1527 146.928H59.678C61.1354 146.928 62.533 146.312 63.5635 145.215C64.5941 144.118 65.173 142.631 65.173 141.08C65.173 139.529 64.5941 138.042 63.5635 136.945C62.533 135.848 61.1354 135.232 59.678 135.232Z" fill="#E6E6E6"/>
<path d="M80.6277 135.232H74.1024C72.645 135.232 71.2474 135.848 70.2169 136.945C69.1864 138.042 68.6074 139.529 68.6074 141.08C68.6074 142.631 69.1864 144.118 70.2169 145.215C71.2474 146.312 72.645 146.928 74.1024 146.928H80.6277C82.0851 146.928 83.4827 146.312 84.5133 145.215C85.5438 144.118 86.1227 142.631 86.1227 141.08C86.1227 139.529 85.5438 138.042 84.5133 136.945C83.4827 135.848 82.0851 135.232 80.6277 135.232Z" fill="#A4634D"/>
<path d="M101.577 135.232H95.0521C93.5948 135.232 92.1971 135.848 91.1666 136.945C90.1361 138.042 89.5571 139.529 89.5571 141.08C89.5571 142.631 90.1361 144.118 91.1666 145.215C92.1971 146.312 93.5948 146.928 95.0521 146.928H101.577C103.035 146.928 104.432 146.312 105.463 145.215C106.493 144.118 107.072 142.631 107.072 141.08C107.072 139.529 106.493 138.042 105.463 136.945C104.432 135.848 103.035 135.232 101.577 135.232Z" fill="#E6E6E6"/>
<path d="M122.527 135.232H116.001C114.544 135.232 113.146 135.848 112.116 136.945C111.085 138.042 110.506 139.529 110.506 141.08C110.506 142.631 111.085 144.118 112.116 145.215C113.146 146.312 114.544 146.928 116.001 146.928H122.527C123.984 146.928 125.382 146.312 126.412 145.215C127.443 144.118 128.022 142.631 128.022 141.08C128.022 139.529 127.443 138.042 126.412 136.945C125.382 135.848 123.984 135.232 122.527 135.232Z" fill="#E6E6E6"/>
<path d="M143.476 135.232H136.951C135.494 135.232 134.096 135.848 133.065 136.945C132.035 138.042 131.456 139.529 131.456 141.08C131.456 142.631 132.035 144.118 133.065 145.215C134.096 146.312 135.494 146.928 136.951 146.928H143.476C144.934 146.928 146.331 146.312 147.362 145.215C148.392 144.118 148.971 142.631 148.971 141.08C148.971 139.529 148.392 138.042 147.362 136.945C146.331 135.848 144.934 135.232 143.476 135.232Z" fill="#E6E6E6"/>
<path d="M164.426 135.232H157.901C156.443 135.232 155.046 135.848 154.015 136.945C152.985 138.042 152.406 139.529 152.406 141.08C152.406 142.631 152.985 144.118 154.015 145.215C155.046 146.312 156.443 146.928 157.901 146.928H164.426C165.883 146.928 167.281 146.312 168.312 145.215C169.342 144.118 169.921 142.631 169.921 141.08C169.921 139.529 169.342 138.042 168.312 136.945C167.281 135.848 165.883 135.232 164.426 135.232Z" fill="#E6E6E6"/>
<path d="M185.376 135.232H178.85C177.393 135.232 175.995 135.848 174.965 136.945C173.934 138.042 173.355 139.529 173.355 141.08C173.355 142.631 173.934 144.118 174.965 145.215C175.995 146.312 177.393 146.928 178.85 146.928H185.376C186.833 146.928 188.231 146.312 189.261 145.215C190.292 144.118 190.871 142.631 190.871 141.08C190.871 139.529 190.292 138.042 189.261 136.945C188.231 135.848 186.833 135.232 185.376 135.232Z" fill="#E6E6E6"/>
<path d="M206.325 135.232H199.8C198.343 135.232 196.945 135.848 195.915 136.945C194.884 138.042 194.305 139.529 194.305 141.08C194.305 142.631 194.884 144.118 195.915 145.215C196.945 146.312 198.343 146.928 199.8 146.928H206.325C207.783 146.928 209.18 146.312 210.211 145.215C211.242 144.118 211.82 142.631 211.82 141.08C211.82 139.529 211.242 138.042 210.211 136.945C209.18 135.848 207.783 135.232 206.325 135.232Z" fill="#E6E6E6"/>
<path d="M48.5164 147.842H41.9911C40.5337 147.842 39.1361 148.458 38.1055 149.555C37.075 150.651 36.4961 152.139 36.4961 153.69C36.4961 155.241 37.075 156.728 38.1055 157.825C39.1361 158.921 40.5337 159.537 41.9911 159.537H48.5164C49.9737 159.537 51.3714 158.921 52.4019 157.825C53.4324 156.728 54.0114 155.241 54.0114 153.69C54.0114 152.139 53.4324 150.651 52.4019 149.555C51.3714 148.458 49.9737 147.842 48.5164 147.842Z" fill="#E6E6E6"/>
<path d="M69.4661 147.842H62.9408C61.4834 147.842 60.0858 148.458 59.0553 149.555C58.0247 150.651 57.4458 152.139 57.4458 153.69C57.4458 155.241 58.0247 156.728 59.0553 157.825C60.0858 158.921 61.4834 159.537 62.9408 159.537H69.4661C70.9234 159.537 72.3211 158.921 73.3516 157.825C74.3821 156.728 74.9611 155.241 74.9611 153.69C74.9611 152.139 74.3821 150.651 73.3516 149.555C72.3211 148.458 70.9234 147.842 69.4661 147.842Z" fill="#E6E6E6"/>
<path d="M90.4153 147.842H83.89C82.4326 147.842 81.035 148.458 80.0045 149.555C78.974 150.651 78.395 152.139 78.395 153.69C78.395 155.241 78.974 156.728 80.0045 157.825C81.035 158.921 82.4326 159.537 83.89 159.537H90.4153C91.8727 159.537 93.2703 158.921 94.3009 157.825C95.3314 156.728 95.9103 155.241 95.9103 153.69C95.9103 152.139 95.3314 150.651 94.3009 149.555C93.2703 148.458 91.8727 147.842 90.4153 147.842Z" fill="#E6E6E6"/>
<path d="M111.365 147.842H104.84C103.382 147.842 101.985 148.458 100.954 149.555C99.9237 150.651 99.3447 152.139 99.3447 153.69C99.3447 155.241 99.9237 156.728 100.954 157.825C101.985 158.921 103.382 159.537 104.84 159.537H111.365C112.822 159.537 114.22 158.921 115.251 157.825C116.281 156.728 116.86 155.241 116.86 153.69C116.86 152.139 116.281 150.651 115.251 149.555C114.22 148.458 112.822 147.842 111.365 147.842Z" fill="#E6E6E6"/>
<path d="M132.315 147.842H125.789C124.332 147.842 122.934 148.458 121.904 149.555C120.873 150.651 120.294 152.139 120.294 153.69C120.294 155.241 120.873 156.728 121.904 157.825C122.934 158.921 124.332 159.537 125.789 159.537H132.315C133.772 159.537 135.17 158.921 136.2 157.825C137.231 156.728 137.81 155.241 137.81 153.69C137.81 152.139 137.231 150.651 136.2 149.555C135.17 148.458 133.772 147.842 132.315 147.842Z" fill="#E6E6E6"/>
<path d="M153.264 147.842H146.739C145.282 147.842 143.884 148.458 142.854 149.555C141.823 150.651 141.244 152.139 141.244 153.69C141.244 155.241 141.823 156.728 142.854 157.825C143.884 158.921 145.282 159.537 146.739 159.537H153.264C154.722 159.537 156.119 158.921 157.15 157.825C158.18 156.728 158.759 155.241 158.759 153.69C158.759 152.139 158.18 150.651 157.15 149.555C156.119 148.458 154.722 147.842 153.264 147.842Z" fill="#E6E6E6"/>
<path d="M174.214 147.842H167.689C166.231 147.842 164.834 148.458 163.803 149.555C162.773 150.651 162.194 152.139 162.194 153.69C162.194 155.241 162.773 156.728 163.803 157.825C164.834 158.921 166.231 159.537 167.689 159.537H174.214C175.671 159.537 177.069 158.921 178.1 157.825C179.13 156.728 179.709 155.241 179.709 153.69C179.709 152.139 179.13 150.651 178.1 149.555C177.069 148.458 175.671 147.842 174.214 147.842Z" fill="#E6E6E6"/>
<path d="M195.164 147.842H188.639C187.181 147.842 185.784 148.458 184.753 149.555C183.722 150.651 183.144 152.139 183.144 153.69C183.144 155.241 183.722 156.728 184.753 157.825C185.784 158.921 187.181 159.537 188.639 159.537H195.164C196.621 159.537 198.019 158.921 199.049 157.825C200.08 156.728 200.659 155.241 200.659 153.69C200.659 152.139 200.08 150.651 199.049 149.555C198.019 148.458 196.621 147.842 195.164 147.842Z" fill="#E6E6E6"/>
<path d="M216.114 147.842H209.588C208.131 147.842 206.733 148.458 205.703 149.555C204.672 150.651 204.093 152.139 204.093 153.69C204.093 155.241 204.672 156.728 205.703 157.825C206.733 158.921 208.131 159.537 209.588 159.537H216.114C217.571 159.537 218.969 158.921 219.999 157.825C221.03 156.728 221.609 155.241 221.609 153.69C221.609 152.139 221.03 150.651 219.999 149.555C218.969 148.458 217.571 147.842 216.114 147.842Z" fill="#E6E6E6"/>
<path d="M191.946 121.709H56.3701C54.2196 121.706 52.1579 120.796 50.6372 119.178C49.1166 117.56 48.2612 115.365 48.2588 113.077L48.2677 112.994C53.0641 90.9084 53.0622 63.221 48.262 25.86L48.2588 25.8104C48.2612 23.5218 49.1166 21.3277 50.6373 19.7094C52.1579 18.0911 54.2196 17.1808 56.3701 17.1782H191.946C194.097 17.1808 196.159 18.0911 197.679 19.7094C199.2 21.3277 200.055 23.5218 200.058 25.8104L200.05 25.8868C194.249 54.5966 194.249 84.2907 200.05 113L200.058 113.077C200.055 115.365 199.2 117.56 197.679 119.178C196.159 120.796 194.097 121.706 191.946 121.709Z" fill="white"/>
<path d="M191.946 121.709H56.3701C54.2196 121.706 52.1579 120.796 50.6372 119.178C49.1166 117.56 48.2612 115.365 48.2588 113.077L48.2677 112.994C53.0641 90.9084 53.0622 63.221 48.262 25.86L48.2588 25.8104C48.2612 23.5218 49.1166 21.3277 50.6373 19.7094C52.1579 18.0911 54.2196 17.1808 56.3701 17.1782H191.946C194.097 17.1808 196.159 18.0911 197.679 19.7094C199.2 21.3277 200.055 23.5218 200.058 25.8104L200.05 25.8868C194.249 54.5966 194.249 84.2907 200.05 113L200.058 113.077C200.055 115.365 199.2 117.56 197.679 119.178C196.159 120.796 194.097 121.706 191.946 121.709ZM48.9458 113.118C48.9583 115.205 49.7457 117.203 51.1364 118.676C52.5271 120.148 54.4084 120.976 56.3701 120.978H191.946C193.909 120.976 195.79 120.148 197.181 118.675C198.572 117.202 199.359 115.203 199.371 113.115C193.56 84.3292 193.56 54.5581 199.371 25.7722C199.359 23.6841 198.572 21.6856 197.181 20.2125C195.79 18.7395 193.909 17.9115 191.946 17.9091H56.3701C54.4057 17.9115 52.5221 18.7414 51.1309 20.2173C49.7397 21.6933 48.954 23.6953 48.9457 25.7858C53.7513 63.2008 53.7516 90.955 48.9458 113.118Z" fill="#E6E6E6"/>
<path d="M177.734 42.9454H68.1781C67.5861 42.9454 67.0183 42.6951 66.5996 42.2495C66.181 41.804 65.9458 41.1997 65.9458 40.5697C65.9458 39.9396 66.181 39.3353 66.5996 38.8898C67.0183 38.4443 67.5861 38.194 68.1781 38.194H177.734C178.327 38.194 178.894 38.4443 179.313 38.8898C179.732 39.3353 179.967 39.9396 179.967 40.5697C179.967 41.1997 179.732 41.804 179.313 42.2495C178.894 42.6951 178.327 42.9454 177.734 42.9454Z" fill="#E6E6E6"/>
<path d="M177.734 54.4584H68.1781C67.5861 54.4584 67.0183 54.2081 66.5996 53.7626C66.181 53.317 65.9458 52.7128 65.9458 52.0827C65.9458 51.4526 66.181 50.8484 66.5996 50.4028C67.0183 49.9573 67.5861 49.707 68.1781 49.707H177.734C178.327 49.707 178.894 49.9573 179.313 50.4028C179.732 50.8484 179.967 51.4526 179.967 52.0827C179.967 52.7128 179.732 53.317 179.313 53.7626C178.894 54.2081 178.327 54.4584 177.734 54.4584Z" fill="#E6E6E6"/>
<path d="M177.734 65.9714H68.1781C67.5861 65.9714 67.0183 65.7211 66.5996 65.2756C66.181 64.83 65.9458 64.2258 65.9458 63.5957C65.9458 62.9656 66.181 62.3614 66.5996 61.9158C67.0183 61.4703 67.5861 61.22 68.1781 61.22H177.734C178.327 61.22 178.894 61.4703 179.313 61.9158C179.732 62.3614 179.967 62.9656 179.967 63.5957C179.967 64.2258 179.732 64.83 179.313 65.2756C178.894 65.7211 178.327 65.9714 177.734 65.9714Z" fill="#E6E6E6"/>
<path d="M177.734 77.4844H68.1781C67.5861 77.4844 67.0183 77.2341 66.5996 76.7886C66.181 76.3431 65.9458 75.7388 65.9458 75.1087C65.9458 74.4787 66.181 73.8744 66.5996 73.4289C67.0183 72.9833 67.5861 72.733 68.1781 72.733H177.734C178.327 72.733 178.894 72.9833 179.313 73.4289C179.732 73.8744 179.967 74.4787 179.967 75.1087C179.967 75.7388 179.732 76.3431 179.313 76.7886C178.894 77.2341 178.327 77.4844 177.734 77.4844Z" fill="#E6E6E6"/>
<path d="M177.734 88.9974H68.1781C67.5861 88.9974 67.0183 88.7471 66.5996 88.3016C66.181 87.8561 65.9458 87.2518 65.9458 86.6217C65.9458 85.9917 66.181 85.3874 66.5996 84.9419C67.0183 84.4963 67.5861 84.246 68.1781 84.246H177.734C178.327 84.246 178.894 84.4963 179.313 84.9419C179.732 85.3874 179.967 85.9917 179.967 86.6217C179.967 87.2518 179.732 87.8561 179.313 88.3016C178.894 88.7471 178.327 88.9974 177.734 88.9974Z" fill="#E6E6E6"/>
<path d="M117.29 100.51H68.1781C67.5861 100.51 67.0183 100.26 66.5996 99.8146C66.181 99.3691 65.9458 98.7648 65.9458 98.1348C65.9458 97.5047 66.181 96.9004 66.5996 96.4549C67.0183 96.0094 67.5861 95.7591 68.1781 95.7591H117.29C117.882 95.7591 118.449 96.0094 118.868 96.4549C119.287 96.9004 119.522 97.5047 119.522 98.1348C119.522 98.7648 119.287 99.3691 118.868 99.8146C118.449 100.26 117.882 100.51 117.29 100.51Z" fill="#A4634D"/>
<path d="M123.534 118.602H114.493C114.356 118.601 114.221 118.567 114.098 118.502C113.975 118.438 113.867 118.345 113.783 118.23C113.683 118.094 113.613 117.937 113.577 117.77C113.542 117.602 113.541 117.428 113.577 117.26L117.831 96.7759C117.865 96.5461 117.974 96.3363 118.139 96.1837C118.304 96.031 118.514 95.9454 118.733 95.9419C118.951 95.9383 119.164 96.0171 119.333 96.1643C119.503 96.3115 119.618 96.5176 119.658 96.7463L124.444 117.23C124.484 117.4 124.488 117.577 124.455 117.748C124.421 117.919 124.352 118.08 124.253 118.219C124.168 118.337 124.06 118.433 123.935 118.499C123.81 118.566 123.673 118.601 123.534 118.602Z" fill="#E6E6E6"/>
<path d="M237.149 126.278H11.1676C9.938 126.278 8.75872 125.758 7.88922 124.833C7.01973 123.907 6.53125 122.652 6.53125 121.344C6.53125 120.035 7.01973 118.78 7.88922 117.855C8.75872 116.929 9.938 116.409 11.1676 116.409H237.149C238.379 116.409 239.558 116.929 240.427 117.855C241.297 118.78 241.785 120.035 241.785 121.344C241.785 122.652 241.297 123.907 240.427 124.833C239.558 125.758 238.379 126.278 237.149 126.278Z" fill="#F2F2F2"/>
<path d="M208.532 113.921L205.234 113.921L203.666 100.385L208.533 100.385L208.532 113.921Z" fill="#FFB6B6"/>
<path d="M209.373 117.323L198.741 117.323V117.18C198.741 116.011 199.177 114.891 199.953 114.065C200.729 113.239 201.782 112.775 202.879 112.775L204.822 111.207L208.445 112.776L209.374 112.776L209.373 117.323Z" fill="#2F2E41"/>
<path d="M238.328 109.359L235.377 110.924L228.298 99.5543L232.654 97.244L238.328 109.359Z" fill="#FFB6B6"/>
<path d="M240.506 112.004L230.99 117.052L230.93 116.923C230.441 115.878 230.361 114.668 230.71 113.561C231.058 112.453 231.806 111.538 232.788 111.017L233.869 108.691L237.77 108.375L238.6 107.934L240.506 112.004Z" fill="#2F2E41"/>
<path d="M207.071 52.4454L225.255 53.1227L226.614 55.8099C226.614 55.8099 228.038 66.8036 227.309 67.5797C226.58 68.3558 226.215 68.3558 226.58 69.714C226.944 71.0722 227.887 84.0494 227.887 84.0494C227.887 84.0494 235.398 100.63 235.763 101.601C236.128 102.571 236.492 102.183 236.128 102.571C235.805 102.941 235.5 103.33 235.216 103.735H229.273C229.273 103.735 226.073 95.1449 223.144 91.8222C220.558 88.8886 218.92 85.1521 218.469 81.1579L216.005 68.7439L210.718 87.7587C210.718 87.7587 209.806 106.58 209.988 107.55L210.171 108.52L203.166 108.603C203.166 108.603 202.437 106.968 202.802 106.386C203.166 105.803 203.144 105.962 202.699 105.01C202.255 104.057 202.437 102.443 202.437 102.443C202.437 102.443 205.066 64.2812 205.066 63.6991C205.08 63.3996 205.028 63.1008 204.914 62.8262V62.0361L205.613 59.2365L207.071 52.4454Z" fill="#2F2E41"/>
<path d="M214.911 17.3354C213.727 18.0842 213.019 19.46 212.613 20.8601C211.861 23.4521 211.408 26.132 211.264 28.8406L210.835 36.9496C210.621 42.1828 209.253 47.2891 206.842 51.8557C206.663 52.2033 206.561 52.5898 206.544 52.9858C206.526 53.3817 206.594 53.7766 206.742 54.1405C206.889 54.5044 207.113 54.8276 207.396 55.0856C207.679 55.3435 208.013 55.5295 208.373 55.6292C214.964 57.4696 227.446 55.1589 227.446 55.1589C227.446 55.1589 227.977 54.9703 227.446 54.4046C226.914 53.8388 225.721 51.0098 225.721 51.0098L227.139 41.0987L228.911 21.1073C226.784 18.2783 222.508 16.6107 222.508 16.6107L221.403 14.4938L215.877 14.9642L214.911 17.3354Z" fill="#A4634D"/>
<path d="M218.419 13.2636C221.35 13.2636 223.727 10.7345 223.727 7.61475C223.727 4.49498 221.35 1.96591 218.419 1.96591C215.487 1.96591 213.111 4.49498 213.111 7.61475C213.111 10.7345 215.487 13.2636 218.419 13.2636Z" fill="#FFB8B8"/>
<path d="M224.959 7.27941C224.722 8.42393 224.294 9.51407 223.696 10.4983C223.538 10.8339 223.301 11.1204 223.008 11.3304C222.86 11.4316 222.683 11.4743 222.508 11.451C222.333 11.4278 222.172 11.3401 222.051 11.2031L221.922 11.0912C222.176 10.9251 222.402 10.7163 222.592 10.4728C222.686 10.3507 222.751 10.2064 222.783 10.0519C222.814 9.89747 222.81 9.73732 222.771 9.58479C222.725 9.43436 222.626 9.30871 222.495 9.23421C222.364 9.15972 222.211 9.14219 222.068 9.18531C221.757 9.31508 221.568 9.79346 221.243 9.71967C220.98 9.65859 220.925 9.28964 220.925 8.99956C220.935 7.48298 220.246 5.32773 219.713 5.39389C219.174 5.42523 218.635 5.34841 218.123 5.16742C217.61 4.98613 217.07 4.91267 216.531 4.95113C216.492 4.95622 216.454 4.96386 216.413 4.97149C216.327 4.68335 216.208 4.40738 216.06 4.14959C216.076 4.46077 216.062 4.77297 216.017 5.0809C215.588 5.26902 215.144 5.41798 214.692 5.5262C214.199 5.6 213.116 7.16746 213.066 7.00714C212.98 6.71901 212.861 6.44304 212.712 6.18525C212.729 6.49644 212.714 6.80863 212.669 7.11656C212.667 7.12928 212.667 7.13947 212.664 7.15219C212.425 6.81374 212.279 6.40154 212.361 6.71706C211.56 4.78829 211.87 3.40658 213.131 1.78059C213.376 1.43097 213.701 1.15342 214.075 0.973951C214.262 0.886418 214.468 0.851675 214.671 0.873069C214.875 0.894463 215.07 0.971276 215.237 1.0961C215.751 0.594651 216.382 0.248587 217.063 0.0937818C217.745 -0.0610231 218.454 -0.0189396 219.115 0.215672C220.428 0.701693 221.439 0.986686 221.64 2.45236C222.188 2.38862 222.741 2.49097 223.237 2.7476C223.732 3.00423 224.149 3.40468 224.44 3.90276C225.006 4.91884 225.191 6.12447 224.959 7.27941Z" fill="#2F2E41"/>
<path d="M230.624 43.9865L230.632 32.6454L223.134 33.2412L225.345 40.3939L218.554 53.3402C218.052 53.46 217.594 53.7327 217.235 54.1249C216.876 54.5171 216.633 55.0119 216.534 55.549C216.434 56.086 216.484 56.6422 216.677 57.1496C216.87 57.657 217.197 58.0938 217.619 58.4066C218.041 58.7194 218.54 58.8948 219.054 58.9114C219.568 58.9279 220.075 58.785 220.514 58.4999C220.954 58.2148 221.305 57.8 221.526 57.3059C221.748 56.8119 221.829 56.26 221.761 55.7175L230.624 43.9865Z" fill="#FFB6B6"/>
<path d="M228.378 20.5749C231.312 21.9198 231.975 42.232 231.316 42.1167C229.441 41.7891 225.679 39.8897 224.554 40.4524C223.911 40.7742 223.204 34.9474 223.204 34.9474C223.204 34.9474 222.522 31.685 221.724 27.4691C221.477 26.2817 221.517 25.0471 221.84 23.8805C222.162 22.7138 222.757 21.6529 223.568 20.7965C223.568 20.7965 225.444 19.23 228.378 20.5749Z" fill="#A4634D"/>
<path d="M47.167 145.901C46.9727 145.713 46.8197 145.481 46.7186 145.222C46.6176 144.964 46.5711 144.685 46.5823 144.405C46.5935 144.126 46.6621 143.852 46.7835 143.604C46.9048 143.355 47.0758 143.138 47.2845 142.968L45.27 136.51L48.4787 137.428L49.8998 143.419C50.1455 143.811 50.2477 144.286 50.1867 144.752C50.1258 145.219 49.9061 145.646 49.5693 145.952C49.2324 146.258 48.8018 146.422 48.3591 146.412C47.9163 146.403 47.4922 146.221 47.167 145.901Z" fill="#FFB6B6"/>
<path d="M52.9823 110.815C53.5147 111.14 56.6648 110.335 57.28 110.564C56.9404 112.769 58.7848 111.942 56.7819 114.838C54.779 117.734 50.7448 126.416 49.8283 129.661C48.9119 132.906 49.819 137.479 49.6817 139.017C49.6154 139.909 49.6195 140.804 49.6941 141.694C48.6119 141.68 47.5453 141.919 46.4462 141.766C45.2741 138.237 44.486 133.213 43.9509 130.436C43.4157 127.659 43.3962 128.834 43.6416 127.445C43.887 126.057 43.9465 127.066 43.6887 125.737C43.4309 124.409 44.4735 122.74 45.437 121.789C45.8524 120.517 46.3892 119.332 46.8004 118.074C49.8141 115.276 50.0122 113.66 52.9823 110.815Z" fill="#3F3D56"/>
<path d="M81.1897 141.808C80.9294 141.847 80.664 141.826 80.4123 141.744C80.1606 141.663 79.9287 141.524 79.7329 141.337C79.5372 141.15 79.3823 140.92 79.2793 140.662C79.1762 140.405 79.1274 140.126 79.1365 139.847L73.1714 137.397L75.8763 135.344L81.1262 137.985C81.5668 138.032 81.9758 138.25 82.2757 138.596C82.5756 138.943 82.7456 139.395 82.7534 139.866C82.7613 140.337 82.6064 140.795 82.3182 141.153C82.03 141.511 81.6285 141.744 81.1897 141.808Z" fill="#FFB6B6"/>
<path d="M59.4331 114.729C60.0071 114.498 61.4254 111.399 61.9825 111.039C63.3663 112.719 63.9384 110.678 64.7661 114.164C65.5938 117.65 69.3285 126.483 71.1001 129.299C72.8717 132.114 76.7658 134.276 77.7943 135.366C78.3986 135.987 79.0508 136.553 79.7441 137.057C79.0457 137.937 78.5412 138.965 77.7319 139.771C74.4264 138.491 70.2809 135.945 67.9265 134.62C65.5721 133.295 66.4115 134.058 65.5603 132.973C64.7091 131.889 65.4788 132.482 64.3514 131.849C63.2239 131.217 62.676 129.3 62.5981 127.903C61.9397 126.754 61.4209 125.559 60.7695 124.422C60.6553 120.167 59.6088 118.977 59.4331 114.729Z" fill="#3F3D56"/>
<path d="M63.9217 133.913L66.8986 148.05L47.8228 146.788L53.01 132.903L63.9217 133.913Z" fill="#FFB6B6"/>
<path d="M60.745 199.163L62.8877 199.163L63.907 190.367H60.7446L60.745 199.163Z" fill="#FFB6B6"/>
<path d="M60.0194 198.038L63.4067 197.823V199.367L66.6271 201.734C66.7862 201.851 66.906 202.019 66.969 202.214C67.032 202.408 67.035 202.619 66.9775 202.815C66.92 203.012 66.805 203.183 66.6492 203.305C66.4935 203.427 66.3053 203.493 66.112 203.493H62.0793L61.3842 201.965L61.1128 203.493H59.5923L60.0194 198.038Z" fill="#2F2E41"/>
<path d="M40.4927 198.029L42.5866 198.512L45.3351 190.146L42.2445 189.433L40.4927 198.029Z" fill="#FFB6B6"/>
<path d="M40.008 196.765L43.3611 197.319L43.0535 198.829L45.7291 201.868C45.8613 202.019 45.9449 202.21 45.9678 202.414C45.9906 202.618 45.9515 202.825 45.8562 203.004C45.7609 203.183 45.6143 203.325 45.4378 203.409C45.2614 203.493 45.0643 203.514 44.8754 203.471L40.9344 202.561L40.5594 200.911L39.9898 202.343L38.5039 202L40.008 196.765Z" fill="#2F2E41"/>
<path d="M67.3853 159.872C65.8815 168.668 65.5055 172.465 65.5055 172.465C65.5055 172.465 66.6334 173.865 65.8815 174.665C65.1295 175.465 65.8815 177.063 65.8815 177.063L64.1907 196.454L62.8297 196.219L59.5511 195.658L58.3686 195.454L59.1206 177.264C59.1206 177.264 58.3686 175.664 58.7446 175.264C59.1206 174.864 58.3686 172.465 58.3686 172.465L57.4298 153.475L51.6057 174.265C51.6057 174.265 52.1706 175.065 51.6057 175.664C51.0428 176.263 49.917 179.263 49.917 179.263L46.4536 192.16L46.1595 193.255L44.3533 192.895L42.3874 192.502L42.0261 192.43L41.3834 192.301L40.9697 192.218L40.8289 192.191L40.1484 192.055L40.3543 191.082L40.4614 190.571L43.3913 176.721L43.4585 176.402L43.53 176.064C43.53 176.064 43.154 175.065 43.7169 174.464C43.8815 174.28 44.0018 174.057 44.0673 173.814C44.1328 173.57 44.1416 173.313 44.0928 173.064C44.0744 173.044 44.0575 173.021 44.0424 172.997C43.9759 172.9 43.9301 172.789 43.908 172.671C43.8819 172.483 43.9027 172.291 43.9684 172.115C44.034 171.938 44.1421 171.783 44.2818 171.665C44.3889 171.544 44.4788 171.407 44.5486 171.258C45.1199 170.107 45.4076 167.669 45.4076 167.669C45.4076 167.669 45.9159 148.354 47.5793 145.404C47.6676 145.25 49.4335 142.289 49.5259 142.228C51.4036 141.03 66.0324 142.685 66.0324 142.685C66.0324 142.685 66.9184 145.218 66.9583 145.482C67.1747 146.964 68.6602 152.411 67.3853 159.872Z" fill="#2F2E41"/>
<path d="M62.9402 113.349C62.9402 113.349 63.2567 111.601 60.2151 108.364C58.6048 107.793 55.8148 108.125 54.8475 108.364C50.3745 114.647 51.1754 113.539 50.011 117.049C49.7036 117.839 49.5938 118.7 49.6923 119.549C50.2291 122.405 51.1005 137.066 50.9216 137.828C50.7427 138.589 49.4902 139.541 50.7426 139.541C51.9951 139.541 68.1464 139.241 67.7886 138.669C67.4307 138.098 62.9402 113.349 62.9402 113.349Z" fill="#3F3D56"/>
<path d="M57.8952 107.266C60.7285 107.266 63.0253 104.821 63.0253 101.806C63.0253 98.7909 60.7285 96.3465 57.8952 96.3465C55.062 96.3465 52.7651 98.7909 52.7651 101.806C52.7651 104.821 55.062 107.266 57.8952 107.266Z" fill="#FFB6B6"/>
<path d="M53.549 103.87C53.521 104.532 53.131 105.103 52.83 105.683C52.305 106.717 52.0249 107.872 52.0139 109.048C52.0029 110.224 52.2614 111.385 52.7669 112.43C53.1857 113.275 53.7655 114.03 54.0977 114.917C54.2576 115.292 54.3386 115.7 54.3351 116.112C54.3315 116.523 54.2434 116.929 54.0769 117.301C53.1777 116.38 52.7389 116.866 51.7178 116.063C52.1194 117.26 51.7771 117.299 52.1802 118.496C50.4472 119.022 48.7135 119.55 46.9792 120.08C48.044 119.16 48.7959 117.894 49.1198 116.476C49.4437 115.058 49.3217 113.565 48.7724 112.228C48.1385 110.781 47.0053 109.589 46.5927 108.052C46.3682 107.22 46.3722 106.337 46.6044 105.507C46.8366 104.677 47.2871 103.936 47.9028 103.37C48.5185 102.805 49.2735 102.439 50.0786 102.315C50.8837 102.192 51.7051 102.316 52.4458 102.674C53.0288 102.497 53.5772 103.219 53.549 103.87Z" fill="#2F2E41"/>
<path d="M59.9926 95.6869C59.3027 94.0826 57.4824 94.4091 55.8365 94.6207C55.0147 94.7556 54.2361 95.1018 53.5683 95.6292C52.9005 96.1566 52.3636 96.8493 52.0041 97.6473C51.3006 99.2646 51.1661 101.097 51.6251 102.811C51.8713 103.978 52.4589 105.032 53.3035 105.822C54.1727 106.566 58.2588 108.325 58.5989 106.81C58.1737 108.787 57.0673 109.912 58.3336 111.427C58.9895 109.33 61.763 107.339 62.4188 105.242C62.5176 104.926 62.1121 101.217 62.2109 100.901C62.419 100.236 62.6274 99.5696 62.7778 98.8869C62.9666 98.0293 63.0394 97.046 62.5388 96.3445C62.0382 95.643 60.7773 95.6157 60.5243 96.4543" fill="#2F2E41"/>
<path d="M59.1666 102.364L58.9473 100.878C59.0963 99.0301 58.853 96.091 59.9925 95.6869L60.6893 96.4285C60.2485 96.5849 59.4102 99.348 59.1666 102.364Z" fill="#FF6584"/>
<path d="M109.14 203.565C109.14 203.622 109.13 203.679 109.11 203.732C109.089 203.785 109.059 203.833 109.021 203.873C108.983 203.913 108.938 203.945 108.888 203.967C108.839 203.989 108.785 204 108.732 204H12.4697C12.3613 204 12.2574 203.954 12.1807 203.873C12.1041 203.791 12.061 203.68 12.061 203.565C12.061 203.45 12.1041 203.339 12.1807 203.258C12.2574 203.176 12.3613 203.13 12.4697 203.13H108.732C108.785 203.13 108.839 203.141 108.888 203.163C108.938 203.185 108.983 203.217 109.021 203.257C109.059 203.298 109.089 203.346 109.11 203.398C109.13 203.451 109.14 203.508 109.14 203.565Z" fill="#CCCCCC"/>
<path d="M159.532 176.535H88.784C87.3267 176.535 85.929 177.151 84.8985 178.247C83.868 179.344 83.2891 180.832 83.2891 182.383C83.2891 183.933 83.868 185.421 84.8985 186.518C85.929 187.614 87.3267 188.23 88.784 188.23H159.532C160.989 188.23 162.387 187.614 163.418 186.518C164.448 185.421 165.027 183.933 165.027 182.383C165.027 180.832 164.448 179.344 163.418 178.247C162.387 177.151 160.989 176.535 159.532 176.535Z" fill="#E6E6E6"/>
</g>
<defs>
<clipPath id="clip0_221_243">
<rect width="248" height="204" fill="white"/>
</clipPath>
</defs>
</svg>
