<svg width="261" height="136" viewBox="0 0 261 136" fill="none" xmlns="http://www.w3.org/2000/svg">
<g clip-path="url(#clip0_250_297)">
<path d="M54.928 135.482H15.0535C15.0535 135.482 14.2453 124.446 19.0274 124.32C23.8095 124.195 23.2706 129.212 29.2654 122.314C35.2602 115.416 42.5343 115.792 43.4773 119.868C44.4202 123.944 41.6588 127.205 46.7103 126.202C51.7618 125.198 59.0365 127.832 54.928 135.482Z" fill="#E6E6E6"/>
<path d="M34.3173 135.485L34.1826 135.48C34.4966 128.214 36.131 123.546 37.4472 120.908C38.8759 118.045 40.2528 116.886 40.2667 116.874L40.3564 116.968C40.3427 116.979 38.982 118.127 37.5646 120.971C36.2557 123.596 34.6301 128.246 34.3173 135.485Z" fill="white"/>
<path d="M48.7489 135.5L48.6196 135.465C49.6224 132.385 51.4301 129.585 53.8807 127.316L53.9712 127.409C51.5387 129.662 49.7445 132.442 48.7489 135.5Z" fill="white"/>
<path d="M21.3341 135.491L21.2006 135.474C21.6353 132.75 21.1753 129.967 19.881 127.49C19.3503 126.451 18.6479 125.497 17.7993 124.661L17.8926 124.57C18.7527 125.416 19.4648 126.383 20.0029 127.434C21.3089 129.934 21.773 132.742 21.3341 135.491Z" fill="white"/>
<path d="M60.3392 135.65H10.7528L10.7415 135.494C10.7131 135.105 10.0804 125.928 13.2741 122.654C13.5909 122.308 13.982 122.028 14.4223 121.831C14.8625 121.634 15.3421 121.526 15.8302 121.512C17.9118 121.457 19.2201 122.183 20.2753 122.765C22.2642 123.864 23.5779 124.59 28.3552 119.093C33.53 113.138 39.1139 111.857 42.3237 112.569C44.3977 113.029 45.827 114.33 46.2453 116.139C46.6424 117.851 46.5153 119.46 46.4138 120.753C46.3052 122.136 46.2195 123.228 46.8298 123.724C47.3403 124.137 48.3559 124.174 50.0292 123.842C53.4324 123.166 58.1821 123.744 60.5658 126.612C61.8483 128.155 62.8587 130.959 60.3891 135.557L60.3392 135.65ZM11.0912 135.314H60.116C61.9563 131.838 62.0139 128.902 60.2808 126.817C58.0939 124.187 53.5061 123.494 50.1043 124.17C48.2861 124.531 47.2031 124.472 46.593 123.977C45.8469 123.372 45.9385 122.205 46.0542 120.729C46.154 119.458 46.278 117.875 45.8928 116.21C45.5049 114.533 44.1733 113.325 42.2397 112.896C39.1323 112.206 33.7033 113.471 28.6351 119.304C23.6624 125.027 22.1641 124.2 20.0913 123.054C19.023 122.464 17.8103 121.795 15.8401 121.847C15.4007 121.86 14.9691 121.959 14.5731 122.137C14.177 122.314 13.8254 122.567 13.5407 122.879C10.6712 125.822 11.0211 134.074 11.0915 135.314H11.0912Z" fill="#2F2E41"/>
<path d="M222.361 135.836H173.52L173.511 135.581L171.179 73.4861H224.702L222.361 135.836ZM174.068 135.308H221.813L224.115 74.0142H171.766L174.068 135.308Z" fill="#3F3D56"/>
<path d="M185.171 84.9915H181.456V127.79H185.171V84.9915Z" fill="#3F3D56"/>
<path d="M199.798 84.9915H196.083V127.79H199.798V84.9915Z" fill="#3F3D56"/>
<path d="M214.425 84.9915H210.71V127.79H214.425V84.9915Z" fill="#3F3D56"/>
<path d="M255.738 91.7204L255.498 91.5794L194.832 55.8865L200.094 48.134L200.334 48.2751L261 83.9678L255.738 91.7204ZM195.614 55.7223L255.561 90.9917L260.217 84.1323L200.271 48.8624L195.614 55.7223Z" fill="#3F3D56"/>
<path d="M241.09 53.0098C239.327 51.9708 237.28 51.4246 235.194 51.436C233.107 51.4474 231.067 52.0159 229.317 53.0741C227.567 54.1323 226.179 55.6358 225.32 57.4061C224.46 59.1763 224.163 61.1391 224.466 63.0615L227.358 64.7635C226.631 63.192 226.464 61.445 226.881 59.7785C227.297 58.112 228.276 56.6134 229.673 55.5021C231.071 54.3909 232.814 53.7254 234.647 53.603C236.48 53.4807 238.307 53.908 239.861 54.8223C241.414 55.7367 242.612 57.09 243.28 58.6842C243.948 60.2784 244.049 62.0297 243.571 63.6817C243.092 65.3337 242.057 66.7995 240.619 67.8647C239.181 68.9298 237.414 69.5382 235.577 69.6008L238.47 71.3028C240.465 70.7326 242.242 69.6415 243.591 68.1591C244.94 66.6766 245.804 64.8649 246.08 62.9391C246.356 61.0133 246.033 59.0541 245.149 57.2941C244.265 55.5342 242.857 54.0472 241.093 53.0098H241.09Z" fill="#3F3D56"/>
<path d="M257.794 135.472H0V136H257.794V135.472Z" fill="#3F3D56"/>
<path d="M112.601 131.869H108.47L106.504 117.037H112.602L112.601 131.869Z" fill="#FEB8B8"/>
<path d="M100.505 135.439H113.486V130.77H105.451C104.139 130.77 102.881 131.255 101.953 132.118C101.026 132.982 100.505 134.153 100.505 135.374V135.439Z" fill="#2F2E41"/>
<path d="M111.149 108.886L113.998 111.67L126.888 102.765L122.684 98.656L111.149 108.886Z" fill="#FEB8B8"/>
<path d="M116.933 112.946L111.389 107.53L107.758 110.752L116.715 119.501L116.765 119.456C117.235 119.039 117.612 118.54 117.875 117.987C118.138 117.434 118.282 116.838 118.297 116.234C118.313 115.629 118.2 115.027 117.966 114.463C117.732 113.899 117.381 113.384 116.933 112.946Z" fill="#2F2E41"/>
<path d="M82.4002 68.2516C82.1388 67.8601 81.9727 67.42 81.9138 66.9622C81.8548 66.5045 81.9043 66.0403 82.0588 65.6023C82.2133 65.1644 82.4691 64.7632 82.8081 64.4272C83.1471 64.0912 83.5611 63.8284 84.021 63.6574L100.237 25.1807L106.558 28.7042L88.5441 65.616C88.8015 66.3545 88.759 67.1552 88.4246 67.8665C88.0902 68.5777 87.4871 69.15 86.7298 69.4749C85.9724 69.7998 85.1133 69.8547 84.3153 69.6293C83.5173 69.4038 82.8359 68.9136 82.4002 68.2516Z" fill="#FEB8B8"/>
<path d="M143.951 71.0095C143.457 70.9766 142.977 70.8432 142.544 70.6188C142.111 70.3943 141.737 70.0842 141.446 69.7104C141.156 69.3366 140.958 68.9081 140.865 68.4551C140.772 68.0021 140.787 67.5356 140.909 67.0886L116.986 32.2708L123.761 29.5776L145.269 64.8321C146.063 65.0712 146.735 65.5734 147.158 66.2435C147.581 66.9135 147.724 67.7048 147.562 68.467C147.399 69.2292 146.942 69.9094 146.276 70.3782C145.61 70.8471 144.783 71.0721 143.951 71.0105V71.0095Z" fill="#FEB8B8"/>
<path d="M100.396 64.399L104.631 122.991L114.75 122.16L116.834 78.9321L122.489 97.4974L134.692 98.3285L129.862 61.6279L100.396 64.399Z" fill="#2F2E41"/>
<path d="M124.275 94.7266L122.488 97.4976L109.989 105.533L118.918 109.967C118.918 109.967 136.18 101.1 134.692 98.3288L124.275 94.7266Z" fill="#2F2E41"/>
<path d="M91.5352 40.693L95.0578 31.4519C95.8415 29.3957 97.0554 27.5046 98.6294 25.8881C100.203 24.2716 102.106 22.9617 104.227 22.0343C108.995 20.399 114.181 20.1347 119.112 21.2757L120.394 21.572C123.812 22.3434 127.015 23.7835 129.789 25.7965C131.959 27.3897 133.912 29.4069 134.086 31.5767C134.087 31.5814 134.089 31.5859 134.09 31.5902C134.692 34.0436 134.989 46.7898 134.989 46.7898H129.686L130.525 63.9697L130.457 63.8453C130.457 63.8453 99.8688 69.2345 99.8688 66.4635V48.7289L99.2418 42.3076L91.5352 40.693Z" fill="#CCCCCC"/>
<path d="M120.086 18.8735C124.768 18.8735 128.563 15.3402 128.563 10.9818C128.563 6.62332 124.768 3.09009 120.086 3.09009C115.405 3.09009 111.61 6.62332 111.61 10.9818C111.61 15.3402 115.405 18.8735 120.086 18.8735Z" fill="#FEB8B8"/>
<path d="M121.356 7.44272L127.938 7.68827C128.766 7.68589 129.67 7.6587 130.301 7.1602C131.251 6.40797 131.092 4.98853 130.583 3.92817C129.165 0.975753 126.002 -0.0819627 122.529 0.00490427C119.055 0.0917712 115.416 1.18777 113.546 3.91259C111.675 6.63742 111.17 10.0783 111.874 13.2446C112.689 11.6346 113.942 10.2516 115.51 9.23372C117.078 8.21583 118.906 7.59865 120.81 7.44378L121.356 7.44272Z" fill="#2F2E41"/>
<path d="M160.44 84.6346L136.617 69.0902C136.396 68.9452 136.245 68.7244 136.199 68.4762C136.152 68.2281 136.212 67.9727 136.367 67.7661L155.066 42.9278C155.221 42.7217 155.458 42.5815 155.725 42.5378C155.991 42.4942 156.266 42.5507 156.488 42.6949L180.311 58.2393C180.532 58.3843 180.683 58.6051 180.73 58.8532C180.776 59.1014 180.716 59.3567 180.561 59.5634L161.863 84.4011C161.707 84.6073 161.47 84.7478 161.204 84.7915C160.937 84.8353 160.662 84.7789 160.44 84.6346Z" fill="#A4634D"/>
<path d="M165.798 67.7679L151.819 58.6467C151.658 58.5412 151.52 58.4071 151.414 58.2521C151.308 58.097 151.236 57.9241 151.201 57.743C151.167 57.562 151.172 57.3765 151.214 57.1971C151.257 57.0177 151.338 56.8479 151.451 56.6974C151.564 56.5469 151.708 56.4186 151.875 56.3199C152.041 56.2212 152.227 56.1541 152.422 56.1222C152.616 56.0904 152.815 56.0945 153.008 56.1344C153.201 56.1742 153.383 56.249 153.545 56.3545L167.524 65.4757C167.85 65.6888 168.072 66.0138 168.141 66.3794C168.211 66.7449 168.121 67.1211 167.892 67.4251C167.663 67.729 167.314 67.9359 166.921 68.0002C166.529 68.0645 166.125 67.9809 165.798 67.7679Z" fill="white"/>
<path d="M162.59 72.0296L148.611 62.9084C148.449 62.803 148.311 62.6689 148.205 62.5138C148.099 62.3588 148.026 62.1857 147.992 62.0046C147.958 61.8235 147.962 61.6379 148.005 61.4584C148.048 61.2789 148.128 61.109 148.241 60.9584C148.355 60.8078 148.499 60.6795 148.666 60.5808C148.832 60.482 149.018 60.4149 149.213 60.3831C149.407 60.3513 149.607 60.3556 149.799 60.3956C149.992 60.4356 150.175 60.5105 150.336 60.6162L164.315 69.7374C164.641 69.9506 164.863 70.2756 164.932 70.641C165.001 71.0064 164.911 71.3823 164.682 71.686C164.454 71.9898 164.105 72.1967 163.712 72.2611C163.32 72.3255 162.916 72.2422 162.59 72.0296Z" fill="white"/>
<path d="M159.347 76.3372L145.368 67.216C145.206 67.1106 145.069 66.9765 144.963 66.8214C144.857 66.6664 144.784 66.4934 144.75 66.3124C144.716 66.1314 144.721 65.9459 144.763 65.7664C144.806 65.587 144.886 65.4172 145 65.2667C145.113 65.1162 145.257 64.988 145.424 64.8893C145.59 64.7906 145.776 64.7234 145.97 64.6916C146.165 64.6597 146.364 64.6639 146.557 64.7037C146.75 64.7436 146.932 64.8184 147.094 64.9239L161.073 74.0451C161.399 74.2581 161.621 74.5831 161.69 74.9487C161.759 75.3143 161.67 75.6904 161.441 75.9944C161.212 76.2984 160.863 76.5052 160.47 76.5695C160.077 76.6338 159.673 76.5503 159.347 76.3372Z" fill="white"/>
<path d="M165.759 59.3373L160.344 55.8044C160.182 55.699 160.044 55.5649 159.938 55.4098C159.832 55.2548 159.76 55.0817 159.725 54.9006C159.691 54.7195 159.696 54.5339 159.738 54.3544C159.781 54.1749 159.862 54.0049 159.975 53.8544C160.088 53.7038 160.232 53.5755 160.399 53.4768C160.566 53.378 160.752 53.3109 160.946 53.2791C161.141 53.2473 161.34 53.2516 161.533 53.2916C161.726 53.3316 161.908 53.4065 162.07 53.5122L167.484 57.0451C167.811 57.2581 168.033 57.5832 168.102 57.9488C168.171 58.3143 168.081 58.6905 167.852 58.9944C167.624 59.2984 167.274 59.5053 166.882 59.5696C166.489 59.6339 166.085 59.5503 165.759 59.3373Z" fill="white"/>
</g>
<defs>
<clipPath id="clip0_250_297">
<rect width="261" height="136" fill="white"/>
</clipPath>
</defs>
</svg>
