<svg width="121" height="165" viewBox="0 0 121 165" fill="none" xmlns="http://www.w3.org/2000/svg">
<g clip-path="url(#clip0_137_202)">
<path d="M107.104 164.734H54.4237C46.7611 164.734 40.528 158.524 40.528 150.891V13.8431C40.528 6.20955 46.7611 0 54.4237 0H107.104C114.767 0 121 6.20955 121 13.8431V150.891C121 158.524 114.767 164.734 107.104 164.734Z" fill="#DADBDC"/>
<path d="M107.142 160.986H54.3855C48.7142 160.986 44.0987 156.388 44.0987 150.738V13.7262C44.0987 8.07651 48.7142 3.47845 54.3855 3.47845H107.142C112.814 3.47845 117.429 8.07651 117.429 13.7262V150.738C117.429 156.388 112.814 160.986 107.142 160.986Z" fill="white"/>
<path d="M88.2247 12.5984H73.3059C71.3364 12.5984 69.7352 11.0032 69.7352 9.04119C69.7352 7.07914 71.3364 5.48395 73.3059 5.48395H88.2247C90.1942 5.48395 91.7954 7.07914 91.7954 9.04119C91.7954 11.0032 90.1942 12.5984 88.2247 12.5984Z" fill="#DADBDC"/>
<path d="M103.449 54.4375H59.7948C58.9301 54.4375 58.2263 53.5461 58.2263 52.4537C58.2263 51.3613 58.9301 50.4699 59.7948 50.4699H103.449C104.314 50.4699 105.017 51.3613 105.017 52.4537C105.017 53.5461 104.314 54.4375 103.449 54.4375Z" fill="#DADBDC"/>
<path d="M103.449 63.2287H59.7948C58.9301 63.2287 58.2263 62.3373 58.2263 61.2449C58.2263 60.1525 58.9301 59.2611 59.7948 59.2611H103.449C104.314 59.2611 105.017 60.1525 105.017 61.2449C105.017 62.3373 104.314 63.2287 103.449 63.2287Z" fill="#DADBDC"/>
<path d="M90.9307 72.0198H59.7948C58.9301 72.0198 58.2263 71.1285 58.2263 70.036C58.2263 68.9436 58.9301 68.0522 59.7948 68.0522H90.9307C91.7955 68.0522 92.4992 68.9436 92.4992 70.036C92.4992 71.1285 91.7955 72.0198 90.9307 72.0198Z" fill="#DADBDC"/>
<path d="M80.7639 123.707C91.0553 123.707 99.398 115.396 99.398 105.144C99.398 94.8915 91.0553 86.5804 80.7639 86.5804C70.4726 86.5804 62.1299 94.8915 62.1299 105.144C62.1299 115.396 70.4726 123.707 80.7639 123.707Z" fill="#A4634D"/>
<path d="M75.8074 105.53C76.7703 107.407 77.7333 109.288 78.6962 111.166C78.9717 111.707 79.7819 111.535 79.9428 111.003C81.2058 106.807 83.5518 102.983 86.7134 99.9424C87.3463 99.3337 86.3806 98.3744 85.7477 98.9804C82.4197 102.182 79.9565 106.228 78.6253 110.641L79.8719 110.478C78.909 108.6 77.946 106.72 76.9831 104.842C76.5848 104.062 75.4064 104.75 75.8047 105.527H75.8074V105.53Z" fill="white"/>
<path d="M30.5303 82.6889L26.0129 84.2243L25.942 77.7267L30.0529 77.6805L30.5303 82.6889Z" fill="#F3A3A6"/>
<path d="M26.4712 79.5202C28.9661 79.5202 30.9886 77.5054 30.9886 75.02C30.9886 72.5346 28.9661 70.5198 26.4712 70.5198C23.9763 70.5198 21.9539 72.5346 21.9539 75.02C21.9539 77.5054 23.9763 79.5202 26.4712 79.5202Z" fill="#F3A3A6"/>
<path d="M27.707 74.5607C26.9513 74.5471 26.4467 73.7917 26.1439 73.0987C25.8411 72.4084 25.5301 71.6122 24.8291 71.3323C24.2535 71.104 23.2605 72.6992 22.8022 72.2834C22.3249 71.8486 22.7613 69.5822 23.2578 69.1719C23.7543 68.7615 24.439 68.6746 25.0827 68.6365C26.6567 68.5468 28.2389 68.6555 29.7856 68.9599C30.7403 69.1474 31.7278 69.4355 32.4234 70.1149C33.3045 70.9763 33.5419 72.2889 33.6182 73.5172C33.6973 74.7727 33.6373 76.0907 33.0372 77.1994C32.4343 78.3055 31.1604 79.1316 29.9247 78.8653C29.7938 78.1995 29.9111 77.5147 29.952 76.8353C29.9929 76.1586 29.9329 75.4276 29.5128 74.8923C29.0927 74.3569 28.2034 74.1531 27.726 74.6368" fill="#2F2E43"/>
<path d="M33.28 76.0581C33.7274 75.7238 34.2648 75.4412 34.8212 75.5037C35.4241 75.5689 35.9369 76.0581 36.0979 76.6396C36.2588 77.2212 36.0924 77.8652 35.7269 78.3462C35.3614 78.8272 34.8131 79.1479 34.2293 79.311C33.891 79.4061 33.5228 79.4468 33.1982 79.311C32.7208 79.1126 32.4589 78.512 32.6389 78.0283" fill="#2F2E43"/>
<path d="M16.4709 118.574C16.1872 120.055 16.7518 121.4 17.7366 121.577C18.7186 121.753 19.747 120.693 20.0307 119.212C20.1535 118.623 20.1262 118.011 19.9516 117.432L23.4269 94.222L18.7459 93.3986L17.2047 116.941C16.8282 117.422 16.5745 117.981 16.4709 118.576V118.574Z" fill="#F3A3A6"/>
<path d="M25.9311 81.2432L22.7422 81.2785C20.4918 81.6426 19.8916 82.8492 19.4061 85.0667C18.6614 88.45 17.7121 92.9584 17.9112 93.0209C18.2304 93.1242 23.6861 95.608 26.4467 94.9938L25.9311 81.2432Z" fill="#A4634D"/>
<path d="M29.8471 155.011L25.6028 155.058L25.6701 161.055L29.9144 161.008L29.8471 155.011Z" fill="#F3A3A6"/>
<path d="M21.5665 164.734C21.1192 164.739 20.7236 164.734 20.4236 164.709C19.2942 164.62 18.2113 163.802 17.663 163.323C17.4175 163.109 17.3356 162.761 17.4584 162.462C17.5457 162.247 17.7257 162.084 17.9494 162.016L20.92 161.136L25.7074 157.839L25.762 157.934C25.7838 157.97 26.2667 158.815 26.4303 159.388C26.4931 159.606 26.4794 159.788 26.3894 159.929C26.3267 160.027 26.2394 160.084 26.1685 160.119C26.2557 160.209 26.5313 160.391 27.3769 160.516C28.6072 160.698 28.8554 159.424 28.8636 159.369L28.8718 159.326L28.9072 159.301C29.4883 158.918 29.8456 158.744 29.9711 158.78C30.0502 158.801 30.1784 158.839 30.5658 162.296C30.6012 162.405 30.8549 163.198 30.6967 163.962C30.5249 164.793 26.8886 164.546 26.163 164.489C26.1412 164.492 23.4242 164.715 21.5611 164.734H21.5665Z" fill="#2F2E43"/>
<path d="M41.8796 150.155L38.3033 152.432L41.5461 157.485L45.1223 155.208L41.8796 150.155Z" fill="#F3A3A6"/>
<path d="M37.2381 163.736C36.7389 163.742 36.2806 163.687 35.9533 163.633C35.6314 163.579 35.3777 163.329 35.3231 163.008C35.2822 162.777 35.3504 162.546 35.5032 162.372L37.5545 160.06L39.865 154.739L39.9632 154.79C39.9987 154.809 40.858 155.271 41.3026 155.671C41.4717 155.823 41.5563 155.983 41.5563 156.152C41.5563 156.269 41.5127 156.364 41.469 156.429C41.5918 156.459 41.9218 156.467 42.7047 156.127C43.845 155.633 43.3785 154.421 43.3567 154.372L43.3403 154.331L43.3594 154.293C43.6486 153.662 43.8614 153.326 43.9841 153.287C44.0632 153.266 44.1914 153.228 46.3574 155.956C46.4447 156.029 47.083 156.568 47.353 157.299C47.6476 158.095 44.4342 159.801 43.785 160.136C43.7659 160.152 40.4079 162.638 39.0276 163.35C38.4793 163.633 37.8273 163.725 37.2326 163.731L37.2381 163.736Z" fill="#2F2E43"/>
<path d="M32.4044 104.81L20.5218 104.94L19.567 115.962L24.7391 156.6L30.8058 156.532L28.1189 133.058L38.1956 154.168L43.545 150.347L35.6396 130.623C35.6396 130.623 38.1929 113.337 35.9888 109.062C33.7847 104.788 32.4071 104.804 32.4071 104.804V104.81H32.4044Z" fill="#2F2E43"/>
<path d="M38.3211 105.416L19.4497 105.625L24.84 81.2567L33.0645 81.1643L38.3211 105.416Z" fill="#A4634D"/>
<path d="M40.1651 118.313C40.4815 119.789 39.9469 121.145 38.9676 121.343C37.9883 121.541 36.938 120.506 36.6216 119.03C36.4852 118.443 36.4989 117.832 36.6598 117.248L32.6662 94.1188L37.3281 93.1921L39.3931 116.696C39.7805 117.169 40.0451 117.723 40.1651 118.316V118.313Z" fill="#F3A3A6"/>
<path d="M29.8756 81.1996L33.0645 81.1643C35.3231 81.4795 35.9478 82.6725 36.4852 84.8792C37.3036 88.2462 38.3538 92.7301 38.1574 92.798C37.8382 92.9067 32.4425 95.5101 29.6683 94.9585L29.8783 81.1996H29.8756Z" fill="#A4634D"/>
<path d="M58.671 164.734C58.671 164.88 58.5509 165 58.4036 165H0.267331C0.120026 165 0 164.88 0 164.734C0 164.587 0.120026 164.467 0.267331 164.467H58.4036C58.5509 164.467 58.671 164.587 58.671 164.734Z" fill="#3F3D58"/>
</g>
<defs>
<clipPath id="clip0_137_202">
<rect width="121" height="165" fill="white"/>
</clipPath>
</defs>
</svg>
